%TF.GenerationSoftware,KiCad,Pcbnew,9.0.6*%
%TF.CreationDate,2025-12-10T21:38:51-06:00*%
%TF.ProjectId,keyboard,6b657962-6f61-4726-942e-6b696361645f,v1.0.0*%
%TF.SameCoordinates,Original*%
%TF.FileFunction,Drillmap*%
%TF.FilePolarity,Positive*%
%FSLAX45Y45*%
G04 Gerber Fmt 4.5, Leading zero omitted, Abs format (unit mm)*
G04 Created by KiCad (PCBNEW 9.0.6) date 2025-12-10 21:38:51*
%MOMM*%
%LPD*%
G01*
G04 APERTURE LIST*
%ADD10C,0.150000*%
%ADD11C,0.200000*%
%ADD12C,0.190000*%
%ADD13C,0.340000*%
G04 APERTURE END LIST*
D10*
X12770978Y-10785491D02*
X12711812Y-10912375D01*
X20195544Y-6193467D02*
G75*
G02*
X20147177Y-6326362I-90634J-42263D01*
G01*
X28037136Y-9995707D02*
G75*
G02*
X27904240Y-9947340I-42266J90627D01*
G01*
X15132950Y-6193467D02*
X15192117Y-6066584D01*
X21552197Y-4843654D02*
X21683208Y-5124610D01*
X9482866Y-5059383D02*
G75*
G02*
X9349971Y-5107758I-90636J42263D01*
G01*
X15143748Y-5933691D02*
G75*
G02*
X15192116Y-6066584I-42258J-90629D01*
G01*
X27428614Y-4431563D02*
X25978521Y-5107752D01*
X25290534Y-8838003D02*
G75*
G02*
X25423423Y-8886375I42256J-90637D01*
G01*
X20769195Y-13759952D02*
G75*
G02*
X20726934Y-13769323I-42265J90632D01*
G01*
X11355160Y-9562562D02*
X11224148Y-9843517D01*
X9905067Y-8886372D02*
G75*
G02*
X10037962Y-8837999I90633J-42258D01*
G01*
X24104346Y-9843517D02*
X23973335Y-9562562D01*
X22519457Y-12833454D02*
G75*
G02*
X22471089Y-12966350I-90627J-42266D01*
G01*
X11963683Y-3998417D02*
G75*
G02*
X12096573Y-3950053I90627J-42263D01*
G01*
X11963683Y-3998417D02*
X11832670Y-4279373D01*
X13442965Y-11473992D02*
X12809038Y-12833454D01*
X27137424Y-8539508D02*
G75*
G02*
X27270315Y-8587877I42256J-90643D01*
G01*
X25687331Y-9215697D02*
G75*
G02*
X25554436Y-9167329I-42262J90637D01*
G01*
X21885529Y-11473992D02*
G75*
G02*
X21933900Y-11341103I90621J42262D01*
G01*
X23628716Y-4327742D02*
G75*
G02*
X23495822Y-4279373I-42266J90622D01*
G01*
X23231919Y-3950049D02*
X21600565Y-4710761D01*
X22616682Y-10912375D02*
G75*
G02*
X22568316Y-11045272I-90633J-42266D01*
G01*
X12760180Y-11045267D02*
G75*
G02*
X12711815Y-10912376I42260J90627D01*
G01*
X14601561Y-13769321D02*
G75*
G02*
X14559299Y-13759953I-1J100011D01*
G01*
X25687331Y-9215697D02*
X27137424Y-8539508D01*
X13645287Y-5124610D02*
X13776298Y-4843654D01*
X5660003Y-9234994D02*
G75*
G02*
X5611628Y-9102098I42257J90634D01*
G01*
X28037136Y-9995707D02*
X29668491Y-9234994D01*
X27270316Y-8587877D02*
X27904244Y-9947338D01*
X11272517Y-9976410D02*
G75*
G02*
X11224150Y-9843518I42263J90630D01*
G01*
X22605885Y-10652599D02*
X24055977Y-9976410D01*
X22519457Y-12833454D02*
X21885529Y-11473992D01*
X10037960Y-8838003D02*
X11306790Y-9429669D01*
X10116793Y-3699921D02*
X9482866Y-5059383D01*
X7424251Y-9947338D02*
X8058178Y-8587877D01*
X20147175Y-6326360D02*
X18626544Y-7035441D01*
X27561506Y-4479932D02*
X29716859Y-9102102D01*
X12722609Y-10652599D02*
G75*
G02*
X12770979Y-10785492I-42259J-90631D01*
G01*
X8191070Y-8539508D02*
X9641163Y-9215697D01*
X21683208Y-5124610D02*
G75*
G02*
X21634840Y-5257504I-90638J-42261D01*
G01*
X25078808Y-3651553D02*
X23628716Y-4327742D01*
X9349973Y-5107752D02*
X7899880Y-4431563D01*
X13693655Y-5257502D02*
G75*
G02*
X13645286Y-5124609I42265J90632D01*
G01*
X24104346Y-9843517D02*
G75*
G02*
X24055979Y-9976413I-90636J-42263D01*
G01*
X18584283Y-7044811D02*
X16744212Y-7044810D01*
X12760180Y-11045267D02*
X13394596Y-11341100D01*
X21552197Y-4843654D02*
G75*
G02*
X21600567Y-4710765I90643J42254D01*
G01*
X8058178Y-8587877D02*
G75*
G02*
X8191073Y-8539502I90632J-42253D01*
G01*
X10116793Y-3699921D02*
G75*
G02*
X10249687Y-3651548I90637J-42269D01*
G01*
X20136377Y-6066584D02*
G75*
G02*
X20184748Y-5933696I90643J42254D01*
G01*
X13727929Y-4710761D02*
G75*
G02*
X13776301Y-4843655I-42249J-90629D01*
G01*
X21933898Y-11341100D02*
X22568314Y-11045267D01*
X18626544Y-7035441D02*
G75*
G02*
X18584283Y-7044810I-42264J90641D01*
G01*
X7424251Y-9947338D02*
G75*
G02*
X7291359Y-9995704I-90631J42268D01*
G01*
X16744212Y-7044810D02*
G75*
G02*
X16701950Y-7035442I-2J100000D01*
G01*
X23973335Y-9562562D02*
G75*
G02*
X24021705Y-9429672I90625J42262D01*
G01*
X21634839Y-5257502D02*
X20184746Y-5933691D01*
X11699778Y-4327742D02*
X10249685Y-3651553D01*
X25423427Y-8886372D02*
X25554438Y-9167328D01*
X5611635Y-9102102D02*
X7766988Y-4479932D01*
X11306790Y-9429669D02*
G75*
G02*
X11355161Y-9562562I-42261J-90632D01*
G01*
X25078808Y-3651553D02*
G75*
G02*
X25211699Y-3699922I42262J-90627D01*
G01*
X9774056Y-9167328D02*
G75*
G02*
X9641165Y-9215693I-90626J42258D01*
G01*
X23495823Y-4279373D02*
X23364812Y-3998418D01*
X20136377Y-6066584D02*
X20195544Y-6193467D01*
X12857406Y-12966347D02*
X14559299Y-13759953D01*
X13727929Y-4710761D02*
X12096575Y-3950049D01*
X20769195Y-13759952D02*
X22471087Y-12966347D01*
X14601561Y-13769321D02*
X20726934Y-13769322D01*
X12857406Y-12966347D02*
G75*
G02*
X12809035Y-12833453I42274J90637D01*
G01*
X11832670Y-4279373D02*
G75*
G02*
X11699780Y-4327736I-90630J42273D01*
G01*
X13394596Y-11341100D02*
G75*
G02*
X13442958Y-11473989I-42276J-90630D01*
G01*
X15181319Y-6326360D02*
G75*
G02*
X15132951Y-6193467I42261J90630D01*
G01*
X9774056Y-9167328D02*
X9905067Y-8886372D01*
X22616682Y-10912375D02*
X22557516Y-10785492D01*
X25845629Y-5059383D02*
X25211701Y-3699921D01*
X29716859Y-9102102D02*
G75*
G02*
X29668492Y-9234997I-90620J-42268D01*
G01*
X7766988Y-4479932D02*
G75*
G02*
X7899882Y-4431560I90632J-42258D01*
G01*
X11272517Y-9976410D02*
X12722609Y-10652599D01*
X27428614Y-4431563D02*
G75*
G02*
X27561502Y-4479934I42256J-90637D01*
G01*
X15143748Y-5933691D02*
X13693655Y-5257502D01*
X16701950Y-7035442D02*
X15181319Y-6326360D01*
X23231919Y-3950049D02*
G75*
G02*
X23364811Y-3998418I42261J-90631D01*
G01*
X5660003Y-9234994D02*
X7291358Y-9995707D01*
X22557516Y-10785492D02*
G75*
G02*
X22605886Y-10652602I90624J42262D01*
G01*
X24021703Y-9429669D02*
X25290534Y-8838003D01*
X25978521Y-5107752D02*
G75*
G02*
X25845629Y-5059383I-42261J90632D01*
G01*
D11*
D12*
X6283699Y-8426918D02*
X6473699Y-8616918D01*
X6473699Y-8426918D02*
X6283699Y-8616918D01*
X7002150Y-6886195D02*
X7192150Y-7076195D01*
X7192150Y-6886195D02*
X7002150Y-7076195D01*
X7280638Y-8891798D02*
X7470638Y-9081798D01*
X7470638Y-8891798D02*
X7280638Y-9081798D01*
X7720601Y-5345472D02*
X7910601Y-5535472D01*
X7910601Y-5345472D02*
X7720601Y-5535472D01*
X7999089Y-7351075D02*
X8189089Y-7541075D01*
X8189089Y-7351075D02*
X7999089Y-7541075D01*
X8633504Y-7646908D02*
X8823504Y-7836908D01*
X8823504Y-7646908D02*
X8633504Y-7836908D01*
X8717540Y-5810352D02*
X8907540Y-6000352D01*
X8907540Y-5810352D02*
X8717540Y-6000352D01*
X9351955Y-6106185D02*
X9541955Y-6296185D01*
X9541955Y-6106185D02*
X9351955Y-6296185D01*
X9630443Y-8111788D02*
X9820443Y-8301788D01*
X9820443Y-8111788D02*
X9630443Y-8301788D01*
X10070406Y-4565462D02*
X10260406Y-4755462D01*
X10260406Y-4565462D02*
X10070406Y-4755462D01*
X10348894Y-6571065D02*
X10538894Y-6761065D01*
X10538894Y-6571065D02*
X10348894Y-6761065D01*
X10480393Y-7945404D02*
X10670393Y-8135404D01*
X10670393Y-7945404D02*
X10480393Y-8135404D01*
X11067345Y-5030342D02*
X11257345Y-5220342D01*
X11257345Y-5030342D02*
X11067345Y-5220342D01*
X11198845Y-6404680D02*
X11388845Y-6594680D01*
X11388845Y-6404680D02*
X11198845Y-6594680D01*
X11477332Y-8410284D02*
X11667332Y-8600284D01*
X11667332Y-8410284D02*
X11477332Y-8600284D01*
X11896212Y-9168334D02*
X12086212Y-9358334D01*
X12086212Y-9168334D02*
X11896212Y-9358334D01*
X11917295Y-4863958D02*
X12107295Y-5053958D01*
X12107295Y-4863958D02*
X11917295Y-5053958D01*
X12195783Y-6869560D02*
X12385783Y-7059560D01*
X12385783Y-6869560D02*
X12195783Y-7059560D01*
X12614663Y-7627610D02*
X12804663Y-7817610D01*
X12804663Y-7627610D02*
X12614663Y-7817610D01*
X12893150Y-9633214D02*
X13083150Y-9823214D01*
X13083150Y-9633214D02*
X12893150Y-9823214D01*
X12914234Y-5328838D02*
X13104234Y-5518838D01*
X13104234Y-5328838D02*
X12914234Y-5518838D01*
X13333114Y-6086887D02*
X13523114Y-6276887D01*
X13523114Y-6086887D02*
X13333114Y-6276887D01*
X13383876Y-10237191D02*
X13573876Y-10427191D01*
X13573876Y-10237191D02*
X13383876Y-10427191D01*
X13481102Y-12158271D02*
X13671102Y-12348271D01*
X13671102Y-12158271D02*
X13481102Y-12348271D01*
X13611601Y-8092490D02*
X13801601Y-8282490D01*
X13801601Y-8092490D02*
X13611601Y-8282490D01*
X14102327Y-8696468D02*
X14292327Y-8886468D01*
X14292327Y-8696468D02*
X14102327Y-8886468D01*
X14330053Y-6551767D02*
X14520053Y-6741767D01*
X14520053Y-6551767D02*
X14330053Y-6741767D01*
X14380814Y-10702071D02*
X14570814Y-10892071D01*
X14570814Y-10702071D02*
X14380814Y-10892071D01*
X14478041Y-12623151D02*
X14668041Y-12813151D01*
X14668041Y-12623151D02*
X14478041Y-12813151D01*
X14820778Y-7155745D02*
X15010778Y-7345745D01*
X15010778Y-7155745D02*
X14820778Y-7345745D01*
X15099266Y-9161348D02*
X15289266Y-9351348D01*
X15289266Y-9161348D02*
X15099266Y-9351348D01*
X15817716Y-7620625D02*
X16007716Y-7810625D01*
X16007716Y-7620625D02*
X15817716Y-7810625D01*
X19320778Y-7620625D02*
X19510778Y-7810625D01*
X19510778Y-7620625D02*
X19320778Y-7810625D01*
X20039229Y-9161348D02*
X20229229Y-9351348D01*
X20229229Y-9161348D02*
X20039229Y-9351348D01*
X20317717Y-7155745D02*
X20507717Y-7345745D01*
X20507717Y-7155745D02*
X20317717Y-7345745D01*
X20660454Y-12623151D02*
X20850454Y-12813151D01*
X20850454Y-12623151D02*
X20660454Y-12813151D01*
X20757679Y-10702071D02*
X20947679Y-10892071D01*
X20947679Y-10702071D02*
X20757679Y-10892071D01*
X20808441Y-6551767D02*
X20998441Y-6741767D01*
X20998441Y-6551767D02*
X20808441Y-6741767D01*
X21036168Y-8696468D02*
X21226168Y-8886468D01*
X21226168Y-8696468D02*
X21036168Y-8886468D01*
X21526893Y-8092490D02*
X21716893Y-8282490D01*
X21716893Y-8092490D02*
X21526893Y-8282490D01*
X21657393Y-12158271D02*
X21847393Y-12348271D01*
X21847393Y-12158271D02*
X21657393Y-12348271D01*
X21754618Y-10237191D02*
X21944618Y-10427191D01*
X21944618Y-10237191D02*
X21754618Y-10427191D01*
X21805380Y-6086887D02*
X21995380Y-6276887D01*
X21995380Y-6086887D02*
X21805380Y-6276887D01*
X22224260Y-5328837D02*
X22414260Y-5518837D01*
X22414260Y-5328837D02*
X22224260Y-5518837D01*
X22245344Y-9633214D02*
X22435344Y-9823214D01*
X22435344Y-9633214D02*
X22245344Y-9823214D01*
X22523832Y-7627610D02*
X22713832Y-7817610D01*
X22713832Y-7627610D02*
X22523832Y-7817610D01*
X22942711Y-6869561D02*
X23132711Y-7059561D01*
X23132711Y-6869561D02*
X22942711Y-7059561D01*
X23221199Y-4863957D02*
X23411199Y-5053957D01*
X23411199Y-4863957D02*
X23221199Y-5053957D01*
X23242283Y-9168334D02*
X23432283Y-9358334D01*
X23432283Y-9168334D02*
X23242283Y-9358334D01*
X23661163Y-8410284D02*
X23851163Y-8600284D01*
X23851163Y-8410284D02*
X23661163Y-8600284D01*
X23939650Y-6404681D02*
X24129650Y-6594681D01*
X24129650Y-6404681D02*
X23939650Y-6594681D01*
X24071150Y-5030342D02*
X24261150Y-5220342D01*
X24261150Y-5030342D02*
X24071150Y-5220342D01*
X24658102Y-7945404D02*
X24848102Y-8135404D01*
X24848102Y-7945404D02*
X24658102Y-8135404D01*
X24789601Y-6571065D02*
X24979601Y-6761065D01*
X24979601Y-6571065D02*
X24789601Y-6761065D01*
X25068088Y-4565462D02*
X25258088Y-4755462D01*
X25258088Y-4565462D02*
X25068088Y-4755462D01*
X25508052Y-8111788D02*
X25698052Y-8301788D01*
X25698052Y-8111788D02*
X25508052Y-8301788D01*
X25786540Y-6106185D02*
X25976540Y-6296185D01*
X25976540Y-6106185D02*
X25786540Y-6296185D01*
X26420954Y-5810352D02*
X26610954Y-6000352D01*
X26610954Y-5810352D02*
X26420954Y-6000352D01*
X26504991Y-7646908D02*
X26694991Y-7836908D01*
X26694991Y-7646908D02*
X26504991Y-7836908D01*
X27139406Y-7351075D02*
X27329406Y-7541075D01*
X27329406Y-7351075D02*
X27139406Y-7541075D01*
X27417893Y-5345472D02*
X27607893Y-5535472D01*
X27607893Y-5345472D02*
X27417893Y-5535472D01*
X27857857Y-8891798D02*
X28047857Y-9081798D01*
X28047857Y-8891798D02*
X27857857Y-9081798D01*
X28136345Y-6886195D02*
X28326345Y-7076195D01*
X28326345Y-6886195D02*
X28136345Y-7076195D01*
X28854795Y-8426918D02*
X29044795Y-8616918D01*
X29044795Y-8426918D02*
X28854795Y-8616918D01*
D13*
X7047169Y-8754358D02*
G75*
G02*
X6707169Y-8754358I-170000J0D01*
G01*
X6707169Y-8754358D02*
G75*
G02*
X7047169Y-8754358I170000J0D01*
G01*
X7765619Y-7213635D02*
G75*
G02*
X7425619Y-7213635I-170000J0D01*
G01*
X7425619Y-7213635D02*
G75*
G02*
X7765619Y-7213635I170000J0D01*
G01*
X8484070Y-5672912D02*
G75*
G02*
X8144070Y-5672912I-170000J0D01*
G01*
X8144070Y-5672912D02*
G75*
G02*
X8484070Y-5672912I170000J0D01*
G01*
X9396974Y-7974348D02*
G75*
G02*
X9056974Y-7974348I-170000J0D01*
G01*
X9056974Y-7974348D02*
G75*
G02*
X9396974Y-7974348I170000J0D01*
G01*
X10115424Y-6433625D02*
G75*
G02*
X9775424Y-6433625I-170000J0D01*
G01*
X9775424Y-6433625D02*
G75*
G02*
X10115424Y-6433625I170000J0D01*
G01*
X10833875Y-4892902D02*
G75*
G02*
X10493875Y-4892902I-170000J0D01*
G01*
X10493875Y-4892902D02*
G75*
G02*
X10833875Y-4892902I170000J0D01*
G01*
X11243863Y-8272844D02*
G75*
G02*
X10903863Y-8272844I-170000J0D01*
G01*
X10903863Y-8272844D02*
G75*
G02*
X11243863Y-8272844I170000J0D01*
G01*
X11962314Y-6732120D02*
G75*
G02*
X11622314Y-6732120I-170000J0D01*
G01*
X11622314Y-6732120D02*
G75*
G02*
X11962314Y-6732120I170000J0D01*
G01*
X12659681Y-9495774D02*
G75*
G02*
X12319681Y-9495774I-170000J0D01*
G01*
X12319681Y-9495774D02*
G75*
G02*
X12659681Y-9495774I170000J0D01*
G01*
X12680764Y-5191398D02*
G75*
G02*
X12340764Y-5191398I-170000J0D01*
G01*
X12340764Y-5191398D02*
G75*
G02*
X12680764Y-5191398I170000J0D01*
G01*
X13378132Y-7955050D02*
G75*
G02*
X13038132Y-7955050I-170000J0D01*
G01*
X13038132Y-7955050D02*
G75*
G02*
X13378132Y-7955050I170000J0D01*
G01*
X14096584Y-6414327D02*
G75*
G02*
X13756584Y-6414327I-170000J0D01*
G01*
X13756584Y-6414327D02*
G75*
G02*
X14096584Y-6414327I170000J0D01*
G01*
X14147345Y-10564631D02*
G75*
G02*
X13807345Y-10564631I-170000J0D01*
G01*
X13807345Y-10564631D02*
G75*
G02*
X14147345Y-10564631I170000J0D01*
G01*
X14244571Y-12485711D02*
G75*
G02*
X13904571Y-12485711I-170000J0D01*
G01*
X13904571Y-12485711D02*
G75*
G02*
X14244571Y-12485711I170000J0D01*
G01*
X14865796Y-9023908D02*
G75*
G02*
X14525796Y-9023908I-170000J0D01*
G01*
X14525796Y-9023908D02*
G75*
G02*
X14865796Y-9023908I170000J0D01*
G01*
X15584247Y-7483185D02*
G75*
G02*
X15244247Y-7483185I-170000J0D01*
G01*
X15244247Y-7483185D02*
G75*
G02*
X15584247Y-7483185I170000J0D01*
G01*
X20084247Y-7483185D02*
G75*
G02*
X19744247Y-7483185I-170000J0D01*
G01*
X19744247Y-7483185D02*
G75*
G02*
X20084247Y-7483185I170000J0D01*
G01*
X20802698Y-9023908D02*
G75*
G02*
X20462698Y-9023908I-170000J0D01*
G01*
X20462698Y-9023908D02*
G75*
G02*
X20802698Y-9023908I170000J0D01*
G01*
X21423923Y-12485711D02*
G75*
G02*
X21083923Y-12485711I-170000J0D01*
G01*
X21083923Y-12485711D02*
G75*
G02*
X21423923Y-12485711I170000J0D01*
G01*
X21521149Y-10564631D02*
G75*
G02*
X21181149Y-10564631I-170000J0D01*
G01*
X21181149Y-10564631D02*
G75*
G02*
X21521149Y-10564631I170000J0D01*
G01*
X21571911Y-6414327D02*
G75*
G02*
X21231911Y-6414327I-170000J0D01*
G01*
X21231911Y-6414327D02*
G75*
G02*
X21571911Y-6414327I170000J0D01*
G01*
X22290362Y-7955050D02*
G75*
G02*
X21950362Y-7955050I-170000J0D01*
G01*
X21950362Y-7955050D02*
G75*
G02*
X22290362Y-7955050I170000J0D01*
G01*
X22987730Y-5191397D02*
G75*
G02*
X22647730Y-5191397I-170000J0D01*
G01*
X22647730Y-5191397D02*
G75*
G02*
X22987730Y-5191397I170000J0D01*
G01*
X23008814Y-9495774D02*
G75*
G02*
X22668814Y-9495774I-170000J0D01*
G01*
X22668814Y-9495774D02*
G75*
G02*
X23008814Y-9495774I170000J0D01*
G01*
X23706181Y-6732121D02*
G75*
G02*
X23366181Y-6732121I-170000J0D01*
G01*
X23366181Y-6732121D02*
G75*
G02*
X23706181Y-6732121I170000J0D01*
G01*
X24424632Y-8272844D02*
G75*
G02*
X24084632Y-8272844I-170000J0D01*
G01*
X24084632Y-8272844D02*
G75*
G02*
X24424632Y-8272844I170000J0D01*
G01*
X24834619Y-4892902D02*
G75*
G02*
X24494619Y-4892902I-170000J0D01*
G01*
X24494619Y-4892902D02*
G75*
G02*
X24834619Y-4892902I170000J0D01*
G01*
X25553070Y-6433625D02*
G75*
G02*
X25213070Y-6433625I-170000J0D01*
G01*
X25213070Y-6433625D02*
G75*
G02*
X25553070Y-6433625I170000J0D01*
G01*
X26271521Y-7974348D02*
G75*
G02*
X25931521Y-7974348I-170000J0D01*
G01*
X25931521Y-7974348D02*
G75*
G02*
X26271521Y-7974348I170000J0D01*
G01*
X27184424Y-5672912D02*
G75*
G02*
X26844424Y-5672912I-170000J0D01*
G01*
X26844424Y-5672912D02*
G75*
G02*
X27184424Y-5672912I170000J0D01*
G01*
X27902876Y-7213635D02*
G75*
G02*
X27562876Y-7213635I-170000J0D01*
G01*
X27562876Y-7213635D02*
G75*
G02*
X27902876Y-7213635I170000J0D01*
G01*
X28621326Y-8754358D02*
G75*
G02*
X28281326Y-8754358I-170000J0D01*
G01*
X28281326Y-8754358D02*
G75*
G02*
X28621326Y-8754358I170000J0D01*
G01*
D11*
X5855536Y-14088306D02*
X5855536Y-13888306D01*
X5855536Y-13888306D02*
X5903155Y-13888306D01*
X5903155Y-13888306D02*
X5931727Y-13897829D01*
X5931727Y-13897829D02*
X5950774Y-13916877D01*
X5950774Y-13916877D02*
X5960298Y-13935925D01*
X5960298Y-13935925D02*
X5969822Y-13974020D01*
X5969822Y-13974020D02*
X5969822Y-14002591D01*
X5969822Y-14002591D02*
X5960298Y-14040686D01*
X5960298Y-14040686D02*
X5950774Y-14059734D01*
X5950774Y-14059734D02*
X5931727Y-14078782D01*
X5931727Y-14078782D02*
X5903155Y-14088306D01*
X5903155Y-14088306D02*
X5855536Y-14088306D01*
X6055536Y-14088306D02*
X6055536Y-13954972D01*
X6055536Y-13993067D02*
X6065060Y-13974020D01*
X6065060Y-13974020D02*
X6074584Y-13964496D01*
X6074584Y-13964496D02*
X6093631Y-13954972D01*
X6093631Y-13954972D02*
X6112679Y-13954972D01*
X6179346Y-14088306D02*
X6179346Y-13954972D01*
X6179346Y-13888306D02*
X6169822Y-13897829D01*
X6169822Y-13897829D02*
X6179346Y-13907353D01*
X6179346Y-13907353D02*
X6188869Y-13897829D01*
X6188869Y-13897829D02*
X6179346Y-13888306D01*
X6179346Y-13888306D02*
X6179346Y-13907353D01*
X6303155Y-14088306D02*
X6284107Y-14078782D01*
X6284107Y-14078782D02*
X6274584Y-14059734D01*
X6274584Y-14059734D02*
X6274584Y-13888306D01*
X6407917Y-14088306D02*
X6388869Y-14078782D01*
X6388869Y-14078782D02*
X6379346Y-14059734D01*
X6379346Y-14059734D02*
X6379346Y-13888306D01*
X6636488Y-14088306D02*
X6636488Y-13888306D01*
X6636488Y-13888306D02*
X6703155Y-14031163D01*
X6703155Y-14031163D02*
X6769822Y-13888306D01*
X6769822Y-13888306D02*
X6769822Y-14088306D01*
X6950774Y-14088306D02*
X6950774Y-13983544D01*
X6950774Y-13983544D02*
X6941250Y-13964496D01*
X6941250Y-13964496D02*
X6922203Y-13954972D01*
X6922203Y-13954972D02*
X6884107Y-13954972D01*
X6884107Y-13954972D02*
X6865060Y-13964496D01*
X6950774Y-14078782D02*
X6931727Y-14088306D01*
X6931727Y-14088306D02*
X6884107Y-14088306D01*
X6884107Y-14088306D02*
X6865060Y-14078782D01*
X6865060Y-14078782D02*
X6855536Y-14059734D01*
X6855536Y-14059734D02*
X6855536Y-14040686D01*
X6855536Y-14040686D02*
X6865060Y-14021639D01*
X6865060Y-14021639D02*
X6884107Y-14012115D01*
X6884107Y-14012115D02*
X6931727Y-14012115D01*
X6931727Y-14012115D02*
X6950774Y-14002591D01*
X7046012Y-13954972D02*
X7046012Y-14154972D01*
X7046012Y-13964496D02*
X7065060Y-13954972D01*
X7065060Y-13954972D02*
X7103155Y-13954972D01*
X7103155Y-13954972D02*
X7122203Y-13964496D01*
X7122203Y-13964496D02*
X7131727Y-13974020D01*
X7131727Y-13974020D02*
X7141250Y-13993067D01*
X7141250Y-13993067D02*
X7141250Y-14050210D01*
X7141250Y-14050210D02*
X7131727Y-14069258D01*
X7131727Y-14069258D02*
X7122203Y-14078782D01*
X7122203Y-14078782D02*
X7103155Y-14088306D01*
X7103155Y-14088306D02*
X7065060Y-14088306D01*
X7065060Y-14088306D02*
X7046012Y-14078782D01*
X7226965Y-14069258D02*
X7236488Y-14078782D01*
X7236488Y-14078782D02*
X7226965Y-14088306D01*
X7226965Y-14088306D02*
X7217441Y-14078782D01*
X7217441Y-14078782D02*
X7226965Y-14069258D01*
X7226965Y-14069258D02*
X7226965Y-14088306D01*
X7226965Y-13964496D02*
X7236488Y-13974020D01*
X7236488Y-13974020D02*
X7226965Y-13983544D01*
X7226965Y-13983544D02*
X7217441Y-13974020D01*
X7217441Y-13974020D02*
X7226965Y-13964496D01*
X7226965Y-13964496D02*
X7226965Y-13983544D01*
D12*
X5404759Y-14321822D02*
X5594759Y-14511822D01*
X5594759Y-14321822D02*
X5404759Y-14511822D01*
D11*
X5960298Y-14508306D02*
X5846012Y-14508306D01*
X5903155Y-14508306D02*
X5903155Y-14308306D01*
X5903155Y-14308306D02*
X5884107Y-14336877D01*
X5884107Y-14336877D02*
X5865060Y-14355925D01*
X5865060Y-14355925D02*
X5846012Y-14365448D01*
X6046012Y-14489258D02*
X6055536Y-14498782D01*
X6055536Y-14498782D02*
X6046012Y-14508306D01*
X6046012Y-14508306D02*
X6036488Y-14498782D01*
X6036488Y-14498782D02*
X6046012Y-14489258D01*
X6046012Y-14489258D02*
X6046012Y-14508306D01*
X6150774Y-14508306D02*
X6188869Y-14508306D01*
X6188869Y-14508306D02*
X6207917Y-14498782D01*
X6207917Y-14498782D02*
X6217441Y-14489258D01*
X6217441Y-14489258D02*
X6236488Y-14460686D01*
X6236488Y-14460686D02*
X6246012Y-14422591D01*
X6246012Y-14422591D02*
X6246012Y-14346401D01*
X6246012Y-14346401D02*
X6236488Y-14327353D01*
X6236488Y-14327353D02*
X6226965Y-14317829D01*
X6226965Y-14317829D02*
X6207917Y-14308306D01*
X6207917Y-14308306D02*
X6169822Y-14308306D01*
X6169822Y-14308306D02*
X6150774Y-14317829D01*
X6150774Y-14317829D02*
X6141250Y-14327353D01*
X6141250Y-14327353D02*
X6131727Y-14346401D01*
X6131727Y-14346401D02*
X6131727Y-14394020D01*
X6131727Y-14394020D02*
X6141250Y-14413067D01*
X6141250Y-14413067D02*
X6150774Y-14422591D01*
X6150774Y-14422591D02*
X6169822Y-14432115D01*
X6169822Y-14432115D02*
X6207917Y-14432115D01*
X6207917Y-14432115D02*
X6226965Y-14422591D01*
X6226965Y-14422591D02*
X6236488Y-14413067D01*
X6236488Y-14413067D02*
X6246012Y-14394020D01*
X6369822Y-14308306D02*
X6388869Y-14308306D01*
X6388869Y-14308306D02*
X6407917Y-14317829D01*
X6407917Y-14317829D02*
X6417441Y-14327353D01*
X6417441Y-14327353D02*
X6426965Y-14346401D01*
X6426965Y-14346401D02*
X6436488Y-14384496D01*
X6436488Y-14384496D02*
X6436488Y-14432115D01*
X6436488Y-14432115D02*
X6426965Y-14470210D01*
X6426965Y-14470210D02*
X6417441Y-14489258D01*
X6417441Y-14489258D02*
X6407917Y-14498782D01*
X6407917Y-14498782D02*
X6388869Y-14508306D01*
X6388869Y-14508306D02*
X6369822Y-14508306D01*
X6369822Y-14508306D02*
X6350774Y-14498782D01*
X6350774Y-14498782D02*
X6341250Y-14489258D01*
X6341250Y-14489258D02*
X6331727Y-14470210D01*
X6331727Y-14470210D02*
X6322203Y-14432115D01*
X6322203Y-14432115D02*
X6322203Y-14384496D01*
X6322203Y-14384496D02*
X6331727Y-14346401D01*
X6331727Y-14346401D02*
X6341250Y-14327353D01*
X6341250Y-14327353D02*
X6350774Y-14317829D01*
X6350774Y-14317829D02*
X6369822Y-14308306D01*
X6560298Y-14308306D02*
X6579346Y-14308306D01*
X6579346Y-14308306D02*
X6598393Y-14317829D01*
X6598393Y-14317829D02*
X6607917Y-14327353D01*
X6607917Y-14327353D02*
X6617441Y-14346401D01*
X6617441Y-14346401D02*
X6626965Y-14384496D01*
X6626965Y-14384496D02*
X6626965Y-14432115D01*
X6626965Y-14432115D02*
X6617441Y-14470210D01*
X6617441Y-14470210D02*
X6607917Y-14489258D01*
X6607917Y-14489258D02*
X6598393Y-14498782D01*
X6598393Y-14498782D02*
X6579346Y-14508306D01*
X6579346Y-14508306D02*
X6560298Y-14508306D01*
X6560298Y-14508306D02*
X6541250Y-14498782D01*
X6541250Y-14498782D02*
X6531727Y-14489258D01*
X6531727Y-14489258D02*
X6522203Y-14470210D01*
X6522203Y-14470210D02*
X6512679Y-14432115D01*
X6512679Y-14432115D02*
X6512679Y-14384496D01*
X6512679Y-14384496D02*
X6522203Y-14346401D01*
X6522203Y-14346401D02*
X6531727Y-14327353D01*
X6531727Y-14327353D02*
X6541250Y-14317829D01*
X6541250Y-14317829D02*
X6560298Y-14308306D01*
X6712679Y-14508306D02*
X6712679Y-14374972D01*
X6712679Y-14394020D02*
X6722203Y-14384496D01*
X6722203Y-14384496D02*
X6741250Y-14374972D01*
X6741250Y-14374972D02*
X6769822Y-14374972D01*
X6769822Y-14374972D02*
X6788869Y-14384496D01*
X6788869Y-14384496D02*
X6798393Y-14403544D01*
X6798393Y-14403544D02*
X6798393Y-14508306D01*
X6798393Y-14403544D02*
X6807917Y-14384496D01*
X6807917Y-14384496D02*
X6826965Y-14374972D01*
X6826965Y-14374972D02*
X6855536Y-14374972D01*
X6855536Y-14374972D02*
X6874584Y-14384496D01*
X6874584Y-14384496D02*
X6884108Y-14403544D01*
X6884108Y-14403544D02*
X6884108Y-14508306D01*
X6979346Y-14508306D02*
X6979346Y-14374972D01*
X6979346Y-14394020D02*
X6988869Y-14384496D01*
X6988869Y-14384496D02*
X7007917Y-14374972D01*
X7007917Y-14374972D02*
X7036489Y-14374972D01*
X7036489Y-14374972D02*
X7055536Y-14384496D01*
X7055536Y-14384496D02*
X7065060Y-14403544D01*
X7065060Y-14403544D02*
X7065060Y-14508306D01*
X7065060Y-14403544D02*
X7074584Y-14384496D01*
X7074584Y-14384496D02*
X7093631Y-14374972D01*
X7093631Y-14374972D02*
X7122203Y-14374972D01*
X7122203Y-14374972D02*
X7141250Y-14384496D01*
X7141250Y-14384496D02*
X7150774Y-14403544D01*
X7150774Y-14403544D02*
X7150774Y-14508306D01*
X7541250Y-14298782D02*
X7369822Y-14555925D01*
X7798393Y-14308306D02*
X7817441Y-14308306D01*
X7817441Y-14308306D02*
X7836489Y-14317829D01*
X7836489Y-14317829D02*
X7846012Y-14327353D01*
X7846012Y-14327353D02*
X7855536Y-14346401D01*
X7855536Y-14346401D02*
X7865060Y-14384496D01*
X7865060Y-14384496D02*
X7865060Y-14432115D01*
X7865060Y-14432115D02*
X7855536Y-14470210D01*
X7855536Y-14470210D02*
X7846012Y-14489258D01*
X7846012Y-14489258D02*
X7836489Y-14498782D01*
X7836489Y-14498782D02*
X7817441Y-14508306D01*
X7817441Y-14508306D02*
X7798393Y-14508306D01*
X7798393Y-14508306D02*
X7779346Y-14498782D01*
X7779346Y-14498782D02*
X7769822Y-14489258D01*
X7769822Y-14489258D02*
X7760298Y-14470210D01*
X7760298Y-14470210D02*
X7750774Y-14432115D01*
X7750774Y-14432115D02*
X7750774Y-14384496D01*
X7750774Y-14384496D02*
X7760298Y-14346401D01*
X7760298Y-14346401D02*
X7769822Y-14327353D01*
X7769822Y-14327353D02*
X7779346Y-14317829D01*
X7779346Y-14317829D02*
X7798393Y-14308306D01*
X7950774Y-14489258D02*
X7960298Y-14498782D01*
X7960298Y-14498782D02*
X7950774Y-14508306D01*
X7950774Y-14508306D02*
X7941251Y-14498782D01*
X7941251Y-14498782D02*
X7950774Y-14489258D01*
X7950774Y-14489258D02*
X7950774Y-14508306D01*
X8084108Y-14308306D02*
X8103155Y-14308306D01*
X8103155Y-14308306D02*
X8122203Y-14317829D01*
X8122203Y-14317829D02*
X8131727Y-14327353D01*
X8131727Y-14327353D02*
X8141251Y-14346401D01*
X8141251Y-14346401D02*
X8150774Y-14384496D01*
X8150774Y-14384496D02*
X8150774Y-14432115D01*
X8150774Y-14432115D02*
X8141251Y-14470210D01*
X8141251Y-14470210D02*
X8131727Y-14489258D01*
X8131727Y-14489258D02*
X8122203Y-14498782D01*
X8122203Y-14498782D02*
X8103155Y-14508306D01*
X8103155Y-14508306D02*
X8084108Y-14508306D01*
X8084108Y-14508306D02*
X8065060Y-14498782D01*
X8065060Y-14498782D02*
X8055536Y-14489258D01*
X8055536Y-14489258D02*
X8046012Y-14470210D01*
X8046012Y-14470210D02*
X8036489Y-14432115D01*
X8036489Y-14432115D02*
X8036489Y-14384496D01*
X8036489Y-14384496D02*
X8046012Y-14346401D01*
X8046012Y-14346401D02*
X8055536Y-14327353D01*
X8055536Y-14327353D02*
X8065060Y-14317829D01*
X8065060Y-14317829D02*
X8084108Y-14308306D01*
X8217441Y-14308306D02*
X8350774Y-14308306D01*
X8350774Y-14308306D02*
X8265060Y-14508306D01*
X8512679Y-14374972D02*
X8512679Y-14508306D01*
X8465060Y-14298782D02*
X8417441Y-14441639D01*
X8417441Y-14441639D02*
X8541251Y-14441639D01*
X8646013Y-14394020D02*
X8626965Y-14384496D01*
X8626965Y-14384496D02*
X8617441Y-14374972D01*
X8617441Y-14374972D02*
X8607917Y-14355925D01*
X8607917Y-14355925D02*
X8607917Y-14346401D01*
X8607917Y-14346401D02*
X8617441Y-14327353D01*
X8617441Y-14327353D02*
X8626965Y-14317829D01*
X8626965Y-14317829D02*
X8646013Y-14308306D01*
X8646013Y-14308306D02*
X8684108Y-14308306D01*
X8684108Y-14308306D02*
X8703155Y-14317829D01*
X8703155Y-14317829D02*
X8712679Y-14327353D01*
X8712679Y-14327353D02*
X8722203Y-14346401D01*
X8722203Y-14346401D02*
X8722203Y-14355925D01*
X8722203Y-14355925D02*
X8712679Y-14374972D01*
X8712679Y-14374972D02*
X8703155Y-14384496D01*
X8703155Y-14384496D02*
X8684108Y-14394020D01*
X8684108Y-14394020D02*
X8646013Y-14394020D01*
X8646013Y-14394020D02*
X8626965Y-14403544D01*
X8626965Y-14403544D02*
X8617441Y-14413067D01*
X8617441Y-14413067D02*
X8607917Y-14432115D01*
X8607917Y-14432115D02*
X8607917Y-14470210D01*
X8607917Y-14470210D02*
X8617441Y-14489258D01*
X8617441Y-14489258D02*
X8626965Y-14498782D01*
X8626965Y-14498782D02*
X8646013Y-14508306D01*
X8646013Y-14508306D02*
X8684108Y-14508306D01*
X8684108Y-14508306D02*
X8703155Y-14498782D01*
X8703155Y-14498782D02*
X8712679Y-14489258D01*
X8712679Y-14489258D02*
X8722203Y-14470210D01*
X8722203Y-14470210D02*
X8722203Y-14432115D01*
X8722203Y-14432115D02*
X8712679Y-14413067D01*
X8712679Y-14413067D02*
X8703155Y-14403544D01*
X8703155Y-14403544D02*
X8684108Y-14394020D01*
X8798394Y-14308306D02*
X8798394Y-14346401D01*
X8874584Y-14308306D02*
X8874584Y-14346401D01*
X9169822Y-14584496D02*
X9160298Y-14574972D01*
X9160298Y-14574972D02*
X9141251Y-14546401D01*
X9141251Y-14546401D02*
X9131727Y-14527353D01*
X9131727Y-14527353D02*
X9122203Y-14498782D01*
X9122203Y-14498782D02*
X9112679Y-14451163D01*
X9112679Y-14451163D02*
X9112679Y-14413067D01*
X9112679Y-14413067D02*
X9122203Y-14365448D01*
X9122203Y-14365448D02*
X9131727Y-14336877D01*
X9131727Y-14336877D02*
X9141251Y-14317829D01*
X9141251Y-14317829D02*
X9160298Y-14289258D01*
X9160298Y-14289258D02*
X9169822Y-14279734D01*
X9331727Y-14308306D02*
X9293632Y-14308306D01*
X9293632Y-14308306D02*
X9274584Y-14317829D01*
X9274584Y-14317829D02*
X9265060Y-14327353D01*
X9265060Y-14327353D02*
X9246013Y-14355925D01*
X9246013Y-14355925D02*
X9236489Y-14394020D01*
X9236489Y-14394020D02*
X9236489Y-14470210D01*
X9236489Y-14470210D02*
X9246013Y-14489258D01*
X9246013Y-14489258D02*
X9255536Y-14498782D01*
X9255536Y-14498782D02*
X9274584Y-14508306D01*
X9274584Y-14508306D02*
X9312679Y-14508306D01*
X9312679Y-14508306D02*
X9331727Y-14498782D01*
X9331727Y-14498782D02*
X9341251Y-14489258D01*
X9341251Y-14489258D02*
X9350775Y-14470210D01*
X9350775Y-14470210D02*
X9350775Y-14422591D01*
X9350775Y-14422591D02*
X9341251Y-14403544D01*
X9341251Y-14403544D02*
X9331727Y-14394020D01*
X9331727Y-14394020D02*
X9312679Y-14384496D01*
X9312679Y-14384496D02*
X9274584Y-14384496D01*
X9274584Y-14384496D02*
X9255536Y-14394020D01*
X9255536Y-14394020D02*
X9246013Y-14403544D01*
X9246013Y-14403544D02*
X9236489Y-14422591D01*
X9522203Y-14374972D02*
X9522203Y-14508306D01*
X9474584Y-14298782D02*
X9426965Y-14441639D01*
X9426965Y-14441639D02*
X9550775Y-14441639D01*
X9779346Y-14508306D02*
X9779346Y-14308306D01*
X9865060Y-14508306D02*
X9865060Y-14403544D01*
X9865060Y-14403544D02*
X9855537Y-14384496D01*
X9855537Y-14384496D02*
X9836489Y-14374972D01*
X9836489Y-14374972D02*
X9807917Y-14374972D01*
X9807917Y-14374972D02*
X9788870Y-14384496D01*
X9788870Y-14384496D02*
X9779346Y-14394020D01*
X9988870Y-14508306D02*
X9969822Y-14498782D01*
X9969822Y-14498782D02*
X9960298Y-14489258D01*
X9960298Y-14489258D02*
X9950775Y-14470210D01*
X9950775Y-14470210D02*
X9950775Y-14413067D01*
X9950775Y-14413067D02*
X9960298Y-14394020D01*
X9960298Y-14394020D02*
X9969822Y-14384496D01*
X9969822Y-14384496D02*
X9988870Y-14374972D01*
X9988870Y-14374972D02*
X10017441Y-14374972D01*
X10017441Y-14374972D02*
X10036489Y-14384496D01*
X10036489Y-14384496D02*
X10046013Y-14394020D01*
X10046013Y-14394020D02*
X10055537Y-14413067D01*
X10055537Y-14413067D02*
X10055537Y-14470210D01*
X10055537Y-14470210D02*
X10046013Y-14489258D01*
X10046013Y-14489258D02*
X10036489Y-14498782D01*
X10036489Y-14498782D02*
X10017441Y-14508306D01*
X10017441Y-14508306D02*
X9988870Y-14508306D01*
X10169822Y-14508306D02*
X10150775Y-14498782D01*
X10150775Y-14498782D02*
X10141251Y-14479734D01*
X10141251Y-14479734D02*
X10141251Y-14308306D01*
X10322203Y-14498782D02*
X10303156Y-14508306D01*
X10303156Y-14508306D02*
X10265060Y-14508306D01*
X10265060Y-14508306D02*
X10246013Y-14498782D01*
X10246013Y-14498782D02*
X10236489Y-14479734D01*
X10236489Y-14479734D02*
X10236489Y-14403544D01*
X10236489Y-14403544D02*
X10246013Y-14384496D01*
X10246013Y-14384496D02*
X10265060Y-14374972D01*
X10265060Y-14374972D02*
X10303156Y-14374972D01*
X10303156Y-14374972D02*
X10322203Y-14384496D01*
X10322203Y-14384496D02*
X10331727Y-14403544D01*
X10331727Y-14403544D02*
X10331727Y-14422591D01*
X10331727Y-14422591D02*
X10236489Y-14441639D01*
X10407918Y-14498782D02*
X10426965Y-14508306D01*
X10426965Y-14508306D02*
X10465060Y-14508306D01*
X10465060Y-14508306D02*
X10484108Y-14498782D01*
X10484108Y-14498782D02*
X10493632Y-14479734D01*
X10493632Y-14479734D02*
X10493632Y-14470210D01*
X10493632Y-14470210D02*
X10484108Y-14451163D01*
X10484108Y-14451163D02*
X10465060Y-14441639D01*
X10465060Y-14441639D02*
X10436489Y-14441639D01*
X10436489Y-14441639D02*
X10417441Y-14432115D01*
X10417441Y-14432115D02*
X10407918Y-14413067D01*
X10407918Y-14413067D02*
X10407918Y-14403544D01*
X10407918Y-14403544D02*
X10417441Y-14384496D01*
X10417441Y-14384496D02*
X10436489Y-14374972D01*
X10436489Y-14374972D02*
X10465060Y-14374972D01*
X10465060Y-14374972D02*
X10484108Y-14384496D01*
X10560299Y-14584496D02*
X10569822Y-14574972D01*
X10569822Y-14574972D02*
X10588870Y-14546401D01*
X10588870Y-14546401D02*
X10598394Y-14527353D01*
X10598394Y-14527353D02*
X10607918Y-14498782D01*
X10607918Y-14498782D02*
X10617441Y-14451163D01*
X10617441Y-14451163D02*
X10617441Y-14413067D01*
X10617441Y-14413067D02*
X10607918Y-14365448D01*
X10607918Y-14365448D02*
X10598394Y-14336877D01*
X10598394Y-14336877D02*
X10588870Y-14317829D01*
X10588870Y-14317829D02*
X10569822Y-14289258D01*
X10569822Y-14289258D02*
X10560299Y-14279734D01*
X10922203Y-14584496D02*
X10912679Y-14574972D01*
X10912679Y-14574972D02*
X10893632Y-14546401D01*
X10893632Y-14546401D02*
X10884108Y-14527353D01*
X10884108Y-14527353D02*
X10874584Y-14498782D01*
X10874584Y-14498782D02*
X10865060Y-14451163D01*
X10865060Y-14451163D02*
X10865060Y-14413067D01*
X10865060Y-14413067D02*
X10874584Y-14365448D01*
X10874584Y-14365448D02*
X10884108Y-14336877D01*
X10884108Y-14336877D02*
X10893632Y-14317829D01*
X10893632Y-14317829D02*
X10912679Y-14289258D01*
X10912679Y-14289258D02*
X10922203Y-14279734D01*
X10998394Y-14374972D02*
X10998394Y-14508306D01*
X10998394Y-14394020D02*
X11007918Y-14384496D01*
X11007918Y-14384496D02*
X11026965Y-14374972D01*
X11026965Y-14374972D02*
X11055537Y-14374972D01*
X11055537Y-14374972D02*
X11074584Y-14384496D01*
X11074584Y-14384496D02*
X11084108Y-14403544D01*
X11084108Y-14403544D02*
X11084108Y-14508306D01*
X11207917Y-14508306D02*
X11188870Y-14498782D01*
X11188870Y-14498782D02*
X11179346Y-14489258D01*
X11179346Y-14489258D02*
X11169822Y-14470210D01*
X11169822Y-14470210D02*
X11169822Y-14413067D01*
X11169822Y-14413067D02*
X11179346Y-14394020D01*
X11179346Y-14394020D02*
X11188870Y-14384496D01*
X11188870Y-14384496D02*
X11207917Y-14374972D01*
X11207917Y-14374972D02*
X11236489Y-14374972D01*
X11236489Y-14374972D02*
X11255537Y-14384496D01*
X11255537Y-14384496D02*
X11265060Y-14394020D01*
X11265060Y-14394020D02*
X11274584Y-14413067D01*
X11274584Y-14413067D02*
X11274584Y-14470210D01*
X11274584Y-14470210D02*
X11265060Y-14489258D01*
X11265060Y-14489258D02*
X11255537Y-14498782D01*
X11255537Y-14498782D02*
X11236489Y-14508306D01*
X11236489Y-14508306D02*
X11207917Y-14508306D01*
X11331727Y-14374972D02*
X11407917Y-14374972D01*
X11360298Y-14308306D02*
X11360298Y-14479734D01*
X11360298Y-14479734D02*
X11369822Y-14498782D01*
X11369822Y-14498782D02*
X11388870Y-14508306D01*
X11388870Y-14508306D02*
X11407917Y-14508306D01*
X11626965Y-14374972D02*
X11626965Y-14574972D01*
X11626965Y-14384496D02*
X11646013Y-14374972D01*
X11646013Y-14374972D02*
X11684108Y-14374972D01*
X11684108Y-14374972D02*
X11703156Y-14384496D01*
X11703156Y-14384496D02*
X11712679Y-14394020D01*
X11712679Y-14394020D02*
X11722203Y-14413067D01*
X11722203Y-14413067D02*
X11722203Y-14470210D01*
X11722203Y-14470210D02*
X11712679Y-14489258D01*
X11712679Y-14489258D02*
X11703156Y-14498782D01*
X11703156Y-14498782D02*
X11684108Y-14508306D01*
X11684108Y-14508306D02*
X11646013Y-14508306D01*
X11646013Y-14508306D02*
X11626965Y-14498782D01*
X11836489Y-14508306D02*
X11817441Y-14498782D01*
X11817441Y-14498782D02*
X11807918Y-14479734D01*
X11807918Y-14479734D02*
X11807918Y-14308306D01*
X11998394Y-14508306D02*
X11998394Y-14403544D01*
X11998394Y-14403544D02*
X11988870Y-14384496D01*
X11988870Y-14384496D02*
X11969822Y-14374972D01*
X11969822Y-14374972D02*
X11931727Y-14374972D01*
X11931727Y-14374972D02*
X11912679Y-14384496D01*
X11998394Y-14498782D02*
X11979346Y-14508306D01*
X11979346Y-14508306D02*
X11931727Y-14508306D01*
X11931727Y-14508306D02*
X11912679Y-14498782D01*
X11912679Y-14498782D02*
X11903156Y-14479734D01*
X11903156Y-14479734D02*
X11903156Y-14460686D01*
X11903156Y-14460686D02*
X11912679Y-14441639D01*
X11912679Y-14441639D02*
X11931727Y-14432115D01*
X11931727Y-14432115D02*
X11979346Y-14432115D01*
X11979346Y-14432115D02*
X11998394Y-14422591D01*
X12065060Y-14374972D02*
X12141251Y-14374972D01*
X12093632Y-14308306D02*
X12093632Y-14479734D01*
X12093632Y-14479734D02*
X12103156Y-14498782D01*
X12103156Y-14498782D02*
X12122203Y-14508306D01*
X12122203Y-14508306D02*
X12141251Y-14508306D01*
X12284108Y-14498782D02*
X12265060Y-14508306D01*
X12265060Y-14508306D02*
X12226965Y-14508306D01*
X12226965Y-14508306D02*
X12207918Y-14498782D01*
X12207918Y-14498782D02*
X12198394Y-14479734D01*
X12198394Y-14479734D02*
X12198394Y-14403544D01*
X12198394Y-14403544D02*
X12207918Y-14384496D01*
X12207918Y-14384496D02*
X12226965Y-14374972D01*
X12226965Y-14374972D02*
X12265060Y-14374972D01*
X12265060Y-14374972D02*
X12284108Y-14384496D01*
X12284108Y-14384496D02*
X12293632Y-14403544D01*
X12293632Y-14403544D02*
X12293632Y-14422591D01*
X12293632Y-14422591D02*
X12198394Y-14441639D01*
X12465060Y-14508306D02*
X12465060Y-14308306D01*
X12465060Y-14498782D02*
X12446013Y-14508306D01*
X12446013Y-14508306D02*
X12407918Y-14508306D01*
X12407918Y-14508306D02*
X12388870Y-14498782D01*
X12388870Y-14498782D02*
X12379346Y-14489258D01*
X12379346Y-14489258D02*
X12369822Y-14470210D01*
X12369822Y-14470210D02*
X12369822Y-14413067D01*
X12369822Y-14413067D02*
X12379346Y-14394020D01*
X12379346Y-14394020D02*
X12388870Y-14384496D01*
X12388870Y-14384496D02*
X12407918Y-14374972D01*
X12407918Y-14374972D02*
X12446013Y-14374972D01*
X12446013Y-14374972D02*
X12465060Y-14384496D01*
X12541251Y-14584496D02*
X12550775Y-14574972D01*
X12550775Y-14574972D02*
X12569822Y-14546401D01*
X12569822Y-14546401D02*
X12579346Y-14527353D01*
X12579346Y-14527353D02*
X12588870Y-14498782D01*
X12588870Y-14498782D02*
X12598394Y-14451163D01*
X12598394Y-14451163D02*
X12598394Y-14413067D01*
X12598394Y-14413067D02*
X12588870Y-14365448D01*
X12588870Y-14365448D02*
X12579346Y-14336877D01*
X12579346Y-14336877D02*
X12569822Y-14317829D01*
X12569822Y-14317829D02*
X12550775Y-14289258D01*
X12550775Y-14289258D02*
X12541251Y-14279734D01*
X5594759Y-14726822D02*
G75*
G02*
X5394759Y-14726822I-100000J0D01*
G01*
X5394759Y-14726822D02*
G75*
G02*
X5594759Y-14726822I100000J0D01*
G01*
X5836488Y-14618306D02*
X5960298Y-14618306D01*
X5960298Y-14618306D02*
X5893631Y-14694496D01*
X5893631Y-14694496D02*
X5922203Y-14694496D01*
X5922203Y-14694496D02*
X5941250Y-14704020D01*
X5941250Y-14704020D02*
X5950774Y-14713544D01*
X5950774Y-14713544D02*
X5960298Y-14732591D01*
X5960298Y-14732591D02*
X5960298Y-14780210D01*
X5960298Y-14780210D02*
X5950774Y-14799258D01*
X5950774Y-14799258D02*
X5941250Y-14808782D01*
X5941250Y-14808782D02*
X5922203Y-14818306D01*
X5922203Y-14818306D02*
X5865060Y-14818306D01*
X5865060Y-14818306D02*
X5846012Y-14808782D01*
X5846012Y-14808782D02*
X5836488Y-14799258D01*
X6046012Y-14799258D02*
X6055536Y-14808782D01*
X6055536Y-14808782D02*
X6046012Y-14818306D01*
X6046012Y-14818306D02*
X6036488Y-14808782D01*
X6036488Y-14808782D02*
X6046012Y-14799258D01*
X6046012Y-14799258D02*
X6046012Y-14818306D01*
X6226965Y-14684972D02*
X6226965Y-14818306D01*
X6179346Y-14608782D02*
X6131727Y-14751639D01*
X6131727Y-14751639D02*
X6255536Y-14751639D01*
X6369822Y-14618306D02*
X6388869Y-14618306D01*
X6388869Y-14618306D02*
X6407917Y-14627829D01*
X6407917Y-14627829D02*
X6417441Y-14637353D01*
X6417441Y-14637353D02*
X6426965Y-14656401D01*
X6426965Y-14656401D02*
X6436488Y-14694496D01*
X6436488Y-14694496D02*
X6436488Y-14742115D01*
X6436488Y-14742115D02*
X6426965Y-14780210D01*
X6426965Y-14780210D02*
X6417441Y-14799258D01*
X6417441Y-14799258D02*
X6407917Y-14808782D01*
X6407917Y-14808782D02*
X6388869Y-14818306D01*
X6388869Y-14818306D02*
X6369822Y-14818306D01*
X6369822Y-14818306D02*
X6350774Y-14808782D01*
X6350774Y-14808782D02*
X6341250Y-14799258D01*
X6341250Y-14799258D02*
X6331727Y-14780210D01*
X6331727Y-14780210D02*
X6322203Y-14742115D01*
X6322203Y-14742115D02*
X6322203Y-14694496D01*
X6322203Y-14694496D02*
X6331727Y-14656401D01*
X6331727Y-14656401D02*
X6341250Y-14637353D01*
X6341250Y-14637353D02*
X6350774Y-14627829D01*
X6350774Y-14627829D02*
X6369822Y-14618306D01*
X6560298Y-14618306D02*
X6579346Y-14618306D01*
X6579346Y-14618306D02*
X6598393Y-14627829D01*
X6598393Y-14627829D02*
X6607917Y-14637353D01*
X6607917Y-14637353D02*
X6617441Y-14656401D01*
X6617441Y-14656401D02*
X6626965Y-14694496D01*
X6626965Y-14694496D02*
X6626965Y-14742115D01*
X6626965Y-14742115D02*
X6617441Y-14780210D01*
X6617441Y-14780210D02*
X6607917Y-14799258D01*
X6607917Y-14799258D02*
X6598393Y-14808782D01*
X6598393Y-14808782D02*
X6579346Y-14818306D01*
X6579346Y-14818306D02*
X6560298Y-14818306D01*
X6560298Y-14818306D02*
X6541250Y-14808782D01*
X6541250Y-14808782D02*
X6531727Y-14799258D01*
X6531727Y-14799258D02*
X6522203Y-14780210D01*
X6522203Y-14780210D02*
X6512679Y-14742115D01*
X6512679Y-14742115D02*
X6512679Y-14694496D01*
X6512679Y-14694496D02*
X6522203Y-14656401D01*
X6522203Y-14656401D02*
X6531727Y-14637353D01*
X6531727Y-14637353D02*
X6541250Y-14627829D01*
X6541250Y-14627829D02*
X6560298Y-14618306D01*
X6712679Y-14818306D02*
X6712679Y-14684972D01*
X6712679Y-14704020D02*
X6722203Y-14694496D01*
X6722203Y-14694496D02*
X6741250Y-14684972D01*
X6741250Y-14684972D02*
X6769822Y-14684972D01*
X6769822Y-14684972D02*
X6788869Y-14694496D01*
X6788869Y-14694496D02*
X6798393Y-14713544D01*
X6798393Y-14713544D02*
X6798393Y-14818306D01*
X6798393Y-14713544D02*
X6807917Y-14694496D01*
X6807917Y-14694496D02*
X6826965Y-14684972D01*
X6826965Y-14684972D02*
X6855536Y-14684972D01*
X6855536Y-14684972D02*
X6874584Y-14694496D01*
X6874584Y-14694496D02*
X6884108Y-14713544D01*
X6884108Y-14713544D02*
X6884108Y-14818306D01*
X6979346Y-14818306D02*
X6979346Y-14684972D01*
X6979346Y-14704020D02*
X6988869Y-14694496D01*
X6988869Y-14694496D02*
X7007917Y-14684972D01*
X7007917Y-14684972D02*
X7036489Y-14684972D01*
X7036489Y-14684972D02*
X7055536Y-14694496D01*
X7055536Y-14694496D02*
X7065060Y-14713544D01*
X7065060Y-14713544D02*
X7065060Y-14818306D01*
X7065060Y-14713544D02*
X7074584Y-14694496D01*
X7074584Y-14694496D02*
X7093631Y-14684972D01*
X7093631Y-14684972D02*
X7122203Y-14684972D01*
X7122203Y-14684972D02*
X7141250Y-14694496D01*
X7141250Y-14694496D02*
X7150774Y-14713544D01*
X7150774Y-14713544D02*
X7150774Y-14818306D01*
X7541250Y-14608782D02*
X7369822Y-14865925D01*
X7798393Y-14618306D02*
X7817441Y-14618306D01*
X7817441Y-14618306D02*
X7836489Y-14627829D01*
X7836489Y-14627829D02*
X7846012Y-14637353D01*
X7846012Y-14637353D02*
X7855536Y-14656401D01*
X7855536Y-14656401D02*
X7865060Y-14694496D01*
X7865060Y-14694496D02*
X7865060Y-14742115D01*
X7865060Y-14742115D02*
X7855536Y-14780210D01*
X7855536Y-14780210D02*
X7846012Y-14799258D01*
X7846012Y-14799258D02*
X7836489Y-14808782D01*
X7836489Y-14808782D02*
X7817441Y-14818306D01*
X7817441Y-14818306D02*
X7798393Y-14818306D01*
X7798393Y-14818306D02*
X7779346Y-14808782D01*
X7779346Y-14808782D02*
X7769822Y-14799258D01*
X7769822Y-14799258D02*
X7760298Y-14780210D01*
X7760298Y-14780210D02*
X7750774Y-14742115D01*
X7750774Y-14742115D02*
X7750774Y-14694496D01*
X7750774Y-14694496D02*
X7760298Y-14656401D01*
X7760298Y-14656401D02*
X7769822Y-14637353D01*
X7769822Y-14637353D02*
X7779346Y-14627829D01*
X7779346Y-14627829D02*
X7798393Y-14618306D01*
X7950774Y-14799258D02*
X7960298Y-14808782D01*
X7960298Y-14808782D02*
X7950774Y-14818306D01*
X7950774Y-14818306D02*
X7941251Y-14808782D01*
X7941251Y-14808782D02*
X7950774Y-14799258D01*
X7950774Y-14799258D02*
X7950774Y-14818306D01*
X8150774Y-14818306D02*
X8036489Y-14818306D01*
X8093631Y-14818306D02*
X8093631Y-14618306D01*
X8093631Y-14618306D02*
X8074584Y-14646877D01*
X8074584Y-14646877D02*
X8055536Y-14665925D01*
X8055536Y-14665925D02*
X8036489Y-14675448D01*
X8217441Y-14618306D02*
X8341251Y-14618306D01*
X8341251Y-14618306D02*
X8274584Y-14694496D01*
X8274584Y-14694496D02*
X8303155Y-14694496D01*
X8303155Y-14694496D02*
X8322203Y-14704020D01*
X8322203Y-14704020D02*
X8331727Y-14713544D01*
X8331727Y-14713544D02*
X8341251Y-14732591D01*
X8341251Y-14732591D02*
X8341251Y-14780210D01*
X8341251Y-14780210D02*
X8331727Y-14799258D01*
X8331727Y-14799258D02*
X8322203Y-14808782D01*
X8322203Y-14808782D02*
X8303155Y-14818306D01*
X8303155Y-14818306D02*
X8246012Y-14818306D01*
X8246012Y-14818306D02*
X8226965Y-14808782D01*
X8226965Y-14808782D02*
X8217441Y-14799258D01*
X8407917Y-14618306D02*
X8531727Y-14618306D01*
X8531727Y-14618306D02*
X8465060Y-14694496D01*
X8465060Y-14694496D02*
X8493632Y-14694496D01*
X8493632Y-14694496D02*
X8512679Y-14704020D01*
X8512679Y-14704020D02*
X8522203Y-14713544D01*
X8522203Y-14713544D02*
X8531727Y-14732591D01*
X8531727Y-14732591D02*
X8531727Y-14780210D01*
X8531727Y-14780210D02*
X8522203Y-14799258D01*
X8522203Y-14799258D02*
X8512679Y-14808782D01*
X8512679Y-14808782D02*
X8493632Y-14818306D01*
X8493632Y-14818306D02*
X8436489Y-14818306D01*
X8436489Y-14818306D02*
X8417441Y-14808782D01*
X8417441Y-14808782D02*
X8407917Y-14799258D01*
X8626965Y-14818306D02*
X8665060Y-14818306D01*
X8665060Y-14818306D02*
X8684108Y-14808782D01*
X8684108Y-14808782D02*
X8693632Y-14799258D01*
X8693632Y-14799258D02*
X8712679Y-14770686D01*
X8712679Y-14770686D02*
X8722203Y-14732591D01*
X8722203Y-14732591D02*
X8722203Y-14656401D01*
X8722203Y-14656401D02*
X8712679Y-14637353D01*
X8712679Y-14637353D02*
X8703155Y-14627829D01*
X8703155Y-14627829D02*
X8684108Y-14618306D01*
X8684108Y-14618306D02*
X8646013Y-14618306D01*
X8646013Y-14618306D02*
X8626965Y-14627829D01*
X8626965Y-14627829D02*
X8617441Y-14637353D01*
X8617441Y-14637353D02*
X8607917Y-14656401D01*
X8607917Y-14656401D02*
X8607917Y-14704020D01*
X8607917Y-14704020D02*
X8617441Y-14723067D01*
X8617441Y-14723067D02*
X8626965Y-14732591D01*
X8626965Y-14732591D02*
X8646013Y-14742115D01*
X8646013Y-14742115D02*
X8684108Y-14742115D01*
X8684108Y-14742115D02*
X8703155Y-14732591D01*
X8703155Y-14732591D02*
X8712679Y-14723067D01*
X8712679Y-14723067D02*
X8722203Y-14704020D01*
X8798394Y-14618306D02*
X8798394Y-14656401D01*
X8874584Y-14618306D02*
X8874584Y-14656401D01*
X9169822Y-14894496D02*
X9160298Y-14884972D01*
X9160298Y-14884972D02*
X9141251Y-14856401D01*
X9141251Y-14856401D02*
X9131727Y-14837353D01*
X9131727Y-14837353D02*
X9122203Y-14808782D01*
X9122203Y-14808782D02*
X9112679Y-14761163D01*
X9112679Y-14761163D02*
X9112679Y-14723067D01*
X9112679Y-14723067D02*
X9122203Y-14675448D01*
X9122203Y-14675448D02*
X9131727Y-14646877D01*
X9131727Y-14646877D02*
X9141251Y-14627829D01*
X9141251Y-14627829D02*
X9160298Y-14599258D01*
X9160298Y-14599258D02*
X9169822Y-14589734D01*
X9226965Y-14618306D02*
X9350775Y-14618306D01*
X9350775Y-14618306D02*
X9284108Y-14694496D01*
X9284108Y-14694496D02*
X9312679Y-14694496D01*
X9312679Y-14694496D02*
X9331727Y-14704020D01*
X9331727Y-14704020D02*
X9341251Y-14713544D01*
X9341251Y-14713544D02*
X9350775Y-14732591D01*
X9350775Y-14732591D02*
X9350775Y-14780210D01*
X9350775Y-14780210D02*
X9341251Y-14799258D01*
X9341251Y-14799258D02*
X9331727Y-14808782D01*
X9331727Y-14808782D02*
X9312679Y-14818306D01*
X9312679Y-14818306D02*
X9255536Y-14818306D01*
X9255536Y-14818306D02*
X9236489Y-14808782D01*
X9236489Y-14808782D02*
X9226965Y-14799258D01*
X9426965Y-14637353D02*
X9436489Y-14627829D01*
X9436489Y-14627829D02*
X9455536Y-14618306D01*
X9455536Y-14618306D02*
X9503156Y-14618306D01*
X9503156Y-14618306D02*
X9522203Y-14627829D01*
X9522203Y-14627829D02*
X9531727Y-14637353D01*
X9531727Y-14637353D02*
X9541251Y-14656401D01*
X9541251Y-14656401D02*
X9541251Y-14675448D01*
X9541251Y-14675448D02*
X9531727Y-14704020D01*
X9531727Y-14704020D02*
X9417441Y-14818306D01*
X9417441Y-14818306D02*
X9541251Y-14818306D01*
X9779346Y-14818306D02*
X9779346Y-14618306D01*
X9865060Y-14818306D02*
X9865060Y-14713544D01*
X9865060Y-14713544D02*
X9855537Y-14694496D01*
X9855537Y-14694496D02*
X9836489Y-14684972D01*
X9836489Y-14684972D02*
X9807917Y-14684972D01*
X9807917Y-14684972D02*
X9788870Y-14694496D01*
X9788870Y-14694496D02*
X9779346Y-14704020D01*
X9988870Y-14818306D02*
X9969822Y-14808782D01*
X9969822Y-14808782D02*
X9960298Y-14799258D01*
X9960298Y-14799258D02*
X9950775Y-14780210D01*
X9950775Y-14780210D02*
X9950775Y-14723067D01*
X9950775Y-14723067D02*
X9960298Y-14704020D01*
X9960298Y-14704020D02*
X9969822Y-14694496D01*
X9969822Y-14694496D02*
X9988870Y-14684972D01*
X9988870Y-14684972D02*
X10017441Y-14684972D01*
X10017441Y-14684972D02*
X10036489Y-14694496D01*
X10036489Y-14694496D02*
X10046013Y-14704020D01*
X10046013Y-14704020D02*
X10055537Y-14723067D01*
X10055537Y-14723067D02*
X10055537Y-14780210D01*
X10055537Y-14780210D02*
X10046013Y-14799258D01*
X10046013Y-14799258D02*
X10036489Y-14808782D01*
X10036489Y-14808782D02*
X10017441Y-14818306D01*
X10017441Y-14818306D02*
X9988870Y-14818306D01*
X10169822Y-14818306D02*
X10150775Y-14808782D01*
X10150775Y-14808782D02*
X10141251Y-14789734D01*
X10141251Y-14789734D02*
X10141251Y-14618306D01*
X10322203Y-14808782D02*
X10303156Y-14818306D01*
X10303156Y-14818306D02*
X10265060Y-14818306D01*
X10265060Y-14818306D02*
X10246013Y-14808782D01*
X10246013Y-14808782D02*
X10236489Y-14789734D01*
X10236489Y-14789734D02*
X10236489Y-14713544D01*
X10236489Y-14713544D02*
X10246013Y-14694496D01*
X10246013Y-14694496D02*
X10265060Y-14684972D01*
X10265060Y-14684972D02*
X10303156Y-14684972D01*
X10303156Y-14684972D02*
X10322203Y-14694496D01*
X10322203Y-14694496D02*
X10331727Y-14713544D01*
X10331727Y-14713544D02*
X10331727Y-14732591D01*
X10331727Y-14732591D02*
X10236489Y-14751639D01*
X10407918Y-14808782D02*
X10426965Y-14818306D01*
X10426965Y-14818306D02*
X10465060Y-14818306D01*
X10465060Y-14818306D02*
X10484108Y-14808782D01*
X10484108Y-14808782D02*
X10493632Y-14789734D01*
X10493632Y-14789734D02*
X10493632Y-14780210D01*
X10493632Y-14780210D02*
X10484108Y-14761163D01*
X10484108Y-14761163D02*
X10465060Y-14751639D01*
X10465060Y-14751639D02*
X10436489Y-14751639D01*
X10436489Y-14751639D02*
X10417441Y-14742115D01*
X10417441Y-14742115D02*
X10407918Y-14723067D01*
X10407918Y-14723067D02*
X10407918Y-14713544D01*
X10407918Y-14713544D02*
X10417441Y-14694496D01*
X10417441Y-14694496D02*
X10436489Y-14684972D01*
X10436489Y-14684972D02*
X10465060Y-14684972D01*
X10465060Y-14684972D02*
X10484108Y-14694496D01*
X10560299Y-14894496D02*
X10569822Y-14884972D01*
X10569822Y-14884972D02*
X10588870Y-14856401D01*
X10588870Y-14856401D02*
X10598394Y-14837353D01*
X10598394Y-14837353D02*
X10607918Y-14808782D01*
X10607918Y-14808782D02*
X10617441Y-14761163D01*
X10617441Y-14761163D02*
X10617441Y-14723067D01*
X10617441Y-14723067D02*
X10607918Y-14675448D01*
X10607918Y-14675448D02*
X10598394Y-14646877D01*
X10598394Y-14646877D02*
X10588870Y-14627829D01*
X10588870Y-14627829D02*
X10569822Y-14599258D01*
X10569822Y-14599258D02*
X10560299Y-14589734D01*
X10922203Y-14894496D02*
X10912679Y-14884972D01*
X10912679Y-14884972D02*
X10893632Y-14856401D01*
X10893632Y-14856401D02*
X10884108Y-14837353D01*
X10884108Y-14837353D02*
X10874584Y-14808782D01*
X10874584Y-14808782D02*
X10865060Y-14761163D01*
X10865060Y-14761163D02*
X10865060Y-14723067D01*
X10865060Y-14723067D02*
X10874584Y-14675448D01*
X10874584Y-14675448D02*
X10884108Y-14646877D01*
X10884108Y-14646877D02*
X10893632Y-14627829D01*
X10893632Y-14627829D02*
X10912679Y-14599258D01*
X10912679Y-14599258D02*
X10922203Y-14589734D01*
X10998394Y-14684972D02*
X10998394Y-14818306D01*
X10998394Y-14704020D02*
X11007918Y-14694496D01*
X11007918Y-14694496D02*
X11026965Y-14684972D01*
X11026965Y-14684972D02*
X11055537Y-14684972D01*
X11055537Y-14684972D02*
X11074584Y-14694496D01*
X11074584Y-14694496D02*
X11084108Y-14713544D01*
X11084108Y-14713544D02*
X11084108Y-14818306D01*
X11207917Y-14818306D02*
X11188870Y-14808782D01*
X11188870Y-14808782D02*
X11179346Y-14799258D01*
X11179346Y-14799258D02*
X11169822Y-14780210D01*
X11169822Y-14780210D02*
X11169822Y-14723067D01*
X11169822Y-14723067D02*
X11179346Y-14704020D01*
X11179346Y-14704020D02*
X11188870Y-14694496D01*
X11188870Y-14694496D02*
X11207917Y-14684972D01*
X11207917Y-14684972D02*
X11236489Y-14684972D01*
X11236489Y-14684972D02*
X11255537Y-14694496D01*
X11255537Y-14694496D02*
X11265060Y-14704020D01*
X11265060Y-14704020D02*
X11274584Y-14723067D01*
X11274584Y-14723067D02*
X11274584Y-14780210D01*
X11274584Y-14780210D02*
X11265060Y-14799258D01*
X11265060Y-14799258D02*
X11255537Y-14808782D01*
X11255537Y-14808782D02*
X11236489Y-14818306D01*
X11236489Y-14818306D02*
X11207917Y-14818306D01*
X11331727Y-14684972D02*
X11407917Y-14684972D01*
X11360298Y-14618306D02*
X11360298Y-14789734D01*
X11360298Y-14789734D02*
X11369822Y-14808782D01*
X11369822Y-14808782D02*
X11388870Y-14818306D01*
X11388870Y-14818306D02*
X11407917Y-14818306D01*
X11626965Y-14684972D02*
X11626965Y-14884972D01*
X11626965Y-14694496D02*
X11646013Y-14684972D01*
X11646013Y-14684972D02*
X11684108Y-14684972D01*
X11684108Y-14684972D02*
X11703156Y-14694496D01*
X11703156Y-14694496D02*
X11712679Y-14704020D01*
X11712679Y-14704020D02*
X11722203Y-14723067D01*
X11722203Y-14723067D02*
X11722203Y-14780210D01*
X11722203Y-14780210D02*
X11712679Y-14799258D01*
X11712679Y-14799258D02*
X11703156Y-14808782D01*
X11703156Y-14808782D02*
X11684108Y-14818306D01*
X11684108Y-14818306D02*
X11646013Y-14818306D01*
X11646013Y-14818306D02*
X11626965Y-14808782D01*
X11836489Y-14818306D02*
X11817441Y-14808782D01*
X11817441Y-14808782D02*
X11807918Y-14789734D01*
X11807918Y-14789734D02*
X11807918Y-14618306D01*
X11998394Y-14818306D02*
X11998394Y-14713544D01*
X11998394Y-14713544D02*
X11988870Y-14694496D01*
X11988870Y-14694496D02*
X11969822Y-14684972D01*
X11969822Y-14684972D02*
X11931727Y-14684972D01*
X11931727Y-14684972D02*
X11912679Y-14694496D01*
X11998394Y-14808782D02*
X11979346Y-14818306D01*
X11979346Y-14818306D02*
X11931727Y-14818306D01*
X11931727Y-14818306D02*
X11912679Y-14808782D01*
X11912679Y-14808782D02*
X11903156Y-14789734D01*
X11903156Y-14789734D02*
X11903156Y-14770686D01*
X11903156Y-14770686D02*
X11912679Y-14751639D01*
X11912679Y-14751639D02*
X11931727Y-14742115D01*
X11931727Y-14742115D02*
X11979346Y-14742115D01*
X11979346Y-14742115D02*
X11998394Y-14732591D01*
X12065060Y-14684972D02*
X12141251Y-14684972D01*
X12093632Y-14618306D02*
X12093632Y-14789734D01*
X12093632Y-14789734D02*
X12103156Y-14808782D01*
X12103156Y-14808782D02*
X12122203Y-14818306D01*
X12122203Y-14818306D02*
X12141251Y-14818306D01*
X12284108Y-14808782D02*
X12265060Y-14818306D01*
X12265060Y-14818306D02*
X12226965Y-14818306D01*
X12226965Y-14818306D02*
X12207918Y-14808782D01*
X12207918Y-14808782D02*
X12198394Y-14789734D01*
X12198394Y-14789734D02*
X12198394Y-14713544D01*
X12198394Y-14713544D02*
X12207918Y-14694496D01*
X12207918Y-14694496D02*
X12226965Y-14684972D01*
X12226965Y-14684972D02*
X12265060Y-14684972D01*
X12265060Y-14684972D02*
X12284108Y-14694496D01*
X12284108Y-14694496D02*
X12293632Y-14713544D01*
X12293632Y-14713544D02*
X12293632Y-14732591D01*
X12293632Y-14732591D02*
X12198394Y-14751639D01*
X12465060Y-14818306D02*
X12465060Y-14618306D01*
X12465060Y-14808782D02*
X12446013Y-14818306D01*
X12446013Y-14818306D02*
X12407918Y-14818306D01*
X12407918Y-14818306D02*
X12388870Y-14808782D01*
X12388870Y-14808782D02*
X12379346Y-14799258D01*
X12379346Y-14799258D02*
X12369822Y-14780210D01*
X12369822Y-14780210D02*
X12369822Y-14723067D01*
X12369822Y-14723067D02*
X12379346Y-14704020D01*
X12379346Y-14704020D02*
X12388870Y-14694496D01*
X12388870Y-14694496D02*
X12407918Y-14684972D01*
X12407918Y-14684972D02*
X12446013Y-14684972D01*
X12446013Y-14684972D02*
X12465060Y-14694496D01*
X12541251Y-14894496D02*
X12550775Y-14884972D01*
X12550775Y-14884972D02*
X12569822Y-14856401D01*
X12569822Y-14856401D02*
X12579346Y-14837353D01*
X12579346Y-14837353D02*
X12588870Y-14808782D01*
X12588870Y-14808782D02*
X12598394Y-14761163D01*
X12598394Y-14761163D02*
X12598394Y-14723067D01*
X12598394Y-14723067D02*
X12588870Y-14675448D01*
X12588870Y-14675448D02*
X12579346Y-14646877D01*
X12579346Y-14646877D02*
X12569822Y-14627829D01*
X12569822Y-14627829D02*
X12550775Y-14599258D01*
X12550775Y-14599258D02*
X12541251Y-14589734D01*
M02*
