%TF.GenerationSoftware,KiCad,Pcbnew,9.0.6*%
%TF.CreationDate,2025-12-10T21:36:36-06:00*%
%TF.ProjectId,keyboard,6b657962-6f61-4726-942e-6b696361645f,v1.0.0*%
%TF.SameCoordinates,Original*%
%TF.FileFunction,Legend,Top*%
%TF.FilePolarity,Positive*%
%FSLAX46Y46*%
G04 Gerber Fmt 4.6, Leading zero omitted, Abs format (unit mm)*
G04 Created by KiCad (PCBNEW 9.0.6) date 2025-12-10 21:36:36*
%MOMM*%
%LPD*%
G01*
G04 APERTURE LIST*
%ADD10C,0.187500*%
%ADD11C,0.300000*%
%ADD12C,0.150000*%
%ADD13C,0.120000*%
G04 APERTURE END LIST*
D10*
G36*
X152305364Y-115114029D02*
G01*
X152364642Y-115163328D01*
X152446781Y-115244546D01*
X152582977Y-115380192D01*
X152611260Y-115414758D01*
X152619888Y-115450076D01*
X152613055Y-115485644D01*
X152592227Y-115516938D01*
X152561928Y-115538652D01*
X152527656Y-115545697D01*
X152499814Y-115540601D01*
X152470320Y-115524082D01*
X152419444Y-115479475D01*
X152295106Y-115353539D01*
X152223070Y-115285720D01*
X152157520Y-115238643D01*
X152097361Y-115208642D01*
X152051097Y-115184105D01*
X152027168Y-115156092D01*
X152019508Y-115123371D01*
X152026346Y-115093097D01*
X152048101Y-115065059D01*
X152090217Y-115038008D01*
X152150542Y-115002577D01*
X152219703Y-114948544D01*
X152299228Y-114871587D01*
X152488271Y-114679887D01*
X152519602Y-114660603D01*
X152549271Y-114654699D01*
X152583657Y-114661633D01*
X152614301Y-114683001D01*
X152635546Y-114713868D01*
X152642511Y-114749221D01*
X152635249Y-114782218D01*
X152611736Y-114814984D01*
X152498438Y-114929970D01*
X152305364Y-115114029D01*
G37*
G36*
X153420027Y-115791894D02*
G01*
X153318547Y-115784353D01*
X153226503Y-115762429D01*
X153142323Y-115726590D01*
X153077401Y-115683837D01*
X153025557Y-115634524D01*
X152985297Y-115578283D01*
X152955844Y-115514190D01*
X152949707Y-115477920D01*
X152957506Y-115440023D01*
X152980940Y-115409043D01*
X153014749Y-115388405D01*
X153053205Y-115381566D01*
X153090615Y-115390718D01*
X153123913Y-115419851D01*
X153171083Y-115491201D01*
X153213940Y-115535260D01*
X153270459Y-115567313D01*
X153336703Y-115585851D01*
X153420119Y-115592592D01*
X153492060Y-115584748D01*
X153556708Y-115561748D01*
X153615849Y-115523166D01*
X153666228Y-115469257D01*
X153695210Y-115410102D01*
X153704967Y-115343373D01*
X153697526Y-115268548D01*
X153676128Y-115203842D01*
X153641075Y-115147168D01*
X153591211Y-115097176D01*
X153520412Y-115052689D01*
X153432803Y-115019936D01*
X153324773Y-115000181D01*
X153270014Y-114988446D01*
X153236403Y-114968994D01*
X153217547Y-114942958D01*
X153211017Y-114908315D01*
X153219546Y-114873761D01*
X153246668Y-114843511D01*
X153300135Y-114816358D01*
X153545141Y-114756091D01*
X153609099Y-114724780D01*
X153651661Y-114687123D01*
X153678605Y-114639663D01*
X153688572Y-114581427D01*
X153681614Y-114525006D01*
X153658789Y-114477479D01*
X153618872Y-114436438D01*
X153565972Y-114406151D01*
X153497388Y-114386436D01*
X153408853Y-114379193D01*
X153340669Y-114387590D01*
X153273573Y-114413265D01*
X153157711Y-114486447D01*
X153124819Y-114503659D01*
X153103397Y-114508154D01*
X153065615Y-114500356D01*
X153033238Y-114476555D01*
X153011207Y-114442465D01*
X153004021Y-114404564D01*
X153011290Y-114369632D01*
X153035206Y-114332852D01*
X153081936Y-114292349D01*
X153160825Y-114247211D01*
X153254196Y-114206928D01*
X153327647Y-114186024D01*
X153385223Y-114179891D01*
X153496218Y-114186821D01*
X153589679Y-114206246D01*
X153668384Y-114236662D01*
X153734643Y-114277344D01*
X153794714Y-114334732D01*
X153837334Y-114402121D01*
X153863672Y-114481496D01*
X153872945Y-114575931D01*
X153864157Y-114670972D01*
X153839772Y-114747005D01*
X153801323Y-114808006D01*
X153748318Y-114856640D01*
X153678314Y-114893935D01*
X153638289Y-114908315D01*
X153724143Y-114948873D01*
X153791135Y-114998922D01*
X153842171Y-115058524D01*
X153878770Y-115128104D01*
X153901725Y-115210342D01*
X153909856Y-115308110D01*
X153900754Y-115406283D01*
X153874183Y-115494913D01*
X153830190Y-115575994D01*
X153767432Y-115650935D01*
X153691901Y-115712879D01*
X153609876Y-115756448D01*
X153519922Y-115782838D01*
X153420027Y-115791894D01*
G37*
G36*
X156151914Y-115832927D02*
G01*
X156113643Y-115827139D01*
X156085886Y-115811126D01*
X156065923Y-115784469D01*
X156053545Y-115743717D01*
X156016634Y-115425896D01*
X155981830Y-115108075D01*
X155967993Y-115038189D01*
X155946933Y-114969681D01*
X155918529Y-114911281D01*
X155893767Y-114884768D01*
X155871188Y-114877449D01*
X155827136Y-114889019D01*
X155729771Y-114941563D01*
X155641229Y-115000046D01*
X155600628Y-115036268D01*
X155605757Y-115227693D01*
X155636440Y-115499535D01*
X155651589Y-115653583D01*
X155655949Y-115765241D01*
X155648711Y-115806571D01*
X155627739Y-115839064D01*
X155596039Y-115860676D01*
X155555565Y-115868098D01*
X155515083Y-115860659D01*
X155483299Y-115838972D01*
X155462402Y-115806386D01*
X155455181Y-115764875D01*
X155449895Y-115626534D01*
X155430085Y-115399610D01*
X155410275Y-115172685D01*
X155404989Y-115034344D01*
X155396305Y-114932797D01*
X155374214Y-114865725D01*
X155304638Y-114906937D01*
X155228768Y-114972520D01*
X155107868Y-115107984D01*
X155055569Y-115172647D01*
X155044303Y-115354364D01*
X155033038Y-115531867D01*
X155042746Y-115618146D01*
X155052455Y-115698196D01*
X155044667Y-115736871D01*
X155021222Y-115768996D01*
X154987242Y-115790584D01*
X154947950Y-115797756D01*
X154911842Y-115790101D01*
X154882254Y-115766888D01*
X154857595Y-115723358D01*
X154839488Y-115650089D01*
X154832178Y-115534340D01*
X154843444Y-115350883D01*
X154854710Y-115167426D01*
X154844910Y-115004486D01*
X154835201Y-114840446D01*
X154841748Y-114738561D01*
X154857991Y-114673899D01*
X154880180Y-114635327D01*
X154906927Y-114614651D01*
X154939706Y-114607805D01*
X154977145Y-114615934D01*
X155012979Y-114641877D01*
X155038309Y-114678406D01*
X155046318Y-114716890D01*
X155041189Y-114777431D01*
X155036060Y-114839897D01*
X155038075Y-114947424D01*
X155078413Y-114877816D01*
X155130317Y-114811867D01*
X155194879Y-114749221D01*
X155267717Y-114695471D01*
X155325110Y-114668407D01*
X155371100Y-114660561D01*
X155445991Y-114670854D01*
X155505817Y-114700096D01*
X155554276Y-114748921D01*
X155592476Y-114821853D01*
X155654856Y-114755829D01*
X155726657Y-114709654D01*
X155808554Y-114681978D01*
X155904985Y-114672285D01*
X155969341Y-114679739D01*
X156023064Y-114701027D01*
X156068579Y-114736090D01*
X156107139Y-114786901D01*
X156138633Y-114857207D01*
X156150952Y-114919203D01*
X156180674Y-115145811D01*
X156209740Y-115352001D01*
X156254405Y-115734283D01*
X156249085Y-115772219D01*
X156226744Y-115804167D01*
X156192864Y-115825654D01*
X156151914Y-115832927D01*
G37*
G36*
X157019701Y-114691688D02*
G01*
X157088540Y-114713816D01*
X157149290Y-114750098D01*
X157203327Y-114801660D01*
X157251190Y-114870946D01*
X157296329Y-114974902D01*
X157323846Y-115095045D01*
X157332157Y-115234654D01*
X157323058Y-115347208D01*
X157299845Y-115448164D01*
X157263241Y-115539232D01*
X157213271Y-115621810D01*
X157155861Y-115688772D01*
X157093360Y-115739078D01*
X157025105Y-115774599D01*
X156949870Y-115796189D01*
X156865958Y-115803618D01*
X156782525Y-115795631D01*
X156706384Y-115772185D01*
X156635876Y-115733100D01*
X156569844Y-115676947D01*
X156510292Y-115602642D01*
X156466041Y-115516284D01*
X156436994Y-115415682D01*
X156424306Y-115297943D01*
X156424319Y-115297669D01*
X156626173Y-115297669D01*
X156636070Y-115393716D01*
X156663520Y-115469546D01*
X156707139Y-115529669D01*
X156755605Y-115568353D01*
X156807971Y-115590867D01*
X156865958Y-115598454D01*
X156933745Y-115589764D01*
X156994181Y-115564139D01*
X157049323Y-115520418D01*
X157097248Y-115458051D01*
X157128224Y-115381634D01*
X157141556Y-115287411D01*
X157137428Y-115143132D01*
X157116971Y-115041486D01*
X157084891Y-114971894D01*
X157043464Y-114926085D01*
X156992093Y-114898905D01*
X156927416Y-114889173D01*
X156856471Y-114897684D01*
X156795125Y-114923514D01*
X156740926Y-114967460D01*
X156692759Y-115032879D01*
X156656219Y-115112549D01*
X156633873Y-115200244D01*
X156626173Y-115297669D01*
X156424319Y-115297669D01*
X156429536Y-115183751D01*
X156450934Y-115078954D01*
X156488006Y-114981934D01*
X156541085Y-114891371D01*
X156604056Y-114815665D01*
X156674270Y-114758424D01*
X156752602Y-114717674D01*
X156840669Y-114692680D01*
X156940696Y-114684009D01*
X157019701Y-114691688D01*
G37*
G36*
X158886457Y-115832927D02*
G01*
X158848186Y-115827139D01*
X158820429Y-115811126D01*
X158800466Y-115784469D01*
X158788088Y-115743717D01*
X158751177Y-115425896D01*
X158716372Y-115108075D01*
X158702536Y-115038189D01*
X158681476Y-114969681D01*
X158653072Y-114911281D01*
X158628310Y-114884768D01*
X158605730Y-114877449D01*
X158561679Y-114889019D01*
X158464314Y-114941563D01*
X158375772Y-115000046D01*
X158335170Y-115036268D01*
X158340300Y-115227693D01*
X158370983Y-115499535D01*
X158386132Y-115653583D01*
X158390491Y-115765241D01*
X158383254Y-115806571D01*
X158362281Y-115839064D01*
X158330581Y-115860676D01*
X158290108Y-115868098D01*
X158249625Y-115860659D01*
X158217842Y-115838972D01*
X158196945Y-115806386D01*
X158189724Y-115764875D01*
X158184438Y-115626534D01*
X158164628Y-115399610D01*
X158144818Y-115172685D01*
X158139532Y-115034344D01*
X158130848Y-114932797D01*
X158108757Y-114865725D01*
X158039181Y-114906937D01*
X157963311Y-114972520D01*
X157842411Y-115107984D01*
X157790112Y-115172647D01*
X157778846Y-115354364D01*
X157767581Y-115531867D01*
X157777289Y-115618146D01*
X157786998Y-115698196D01*
X157779210Y-115736871D01*
X157755765Y-115768996D01*
X157721785Y-115790584D01*
X157682493Y-115797756D01*
X157646385Y-115790101D01*
X157616797Y-115766888D01*
X157592138Y-115723358D01*
X157574031Y-115650089D01*
X157566721Y-115534340D01*
X157577987Y-115350883D01*
X157589253Y-115167426D01*
X157579453Y-115004486D01*
X157569744Y-114840446D01*
X157576291Y-114738561D01*
X157592534Y-114673899D01*
X157614723Y-114635327D01*
X157641470Y-114614651D01*
X157674249Y-114607805D01*
X157711688Y-114615934D01*
X157747522Y-114641877D01*
X157772852Y-114678406D01*
X157780861Y-114716890D01*
X157775732Y-114777431D01*
X157770603Y-114839897D01*
X157772618Y-114947424D01*
X157812956Y-114877816D01*
X157864860Y-114811867D01*
X157929422Y-114749221D01*
X158002260Y-114695471D01*
X158059653Y-114668407D01*
X158105643Y-114660561D01*
X158180534Y-114670854D01*
X158240360Y-114700096D01*
X158288819Y-114748921D01*
X158327019Y-114821853D01*
X158389399Y-114755829D01*
X158461200Y-114709654D01*
X158543096Y-114681978D01*
X158639528Y-114672285D01*
X158703884Y-114679739D01*
X158757606Y-114701027D01*
X158803122Y-114736090D01*
X158841681Y-114786901D01*
X158873176Y-114857207D01*
X158885495Y-114919203D01*
X158915217Y-115145811D01*
X158944283Y-115352001D01*
X158988948Y-115734283D01*
X158983628Y-115772219D01*
X158961287Y-115804167D01*
X158927407Y-115825654D01*
X158886457Y-115832927D01*
G37*
D11*
G36*
X155311566Y-109676859D02*
G01*
X155108600Y-109670997D01*
X154906001Y-109664769D01*
X154516556Y-109697376D01*
X154590561Y-111861123D01*
X154594591Y-112059692D01*
X154598621Y-112295265D01*
X154565958Y-112685457D01*
X154482633Y-112944199D01*
X154362653Y-113108976D01*
X154207226Y-113204450D01*
X154004378Y-113237920D01*
X153793228Y-113202709D01*
X153614933Y-113098702D01*
X153513481Y-112990199D01*
X153454644Y-112868899D01*
X153434682Y-112729773D01*
X153446772Y-112287205D01*
X153459228Y-111844270D01*
X153385223Y-109720823D01*
X152616957Y-109653046D01*
X152380869Y-109594370D01*
X152227815Y-109489066D01*
X152135993Y-109337082D01*
X152102581Y-109121817D01*
X152141790Y-108908803D01*
X152258286Y-108732006D01*
X152434027Y-108612933D01*
X152659822Y-108571905D01*
X153356646Y-108618799D01*
X153336130Y-108188321D01*
X153319644Y-107786420D01*
X153361686Y-107578297D01*
X153487438Y-107409064D01*
X153671628Y-107296918D01*
X153893370Y-107258855D01*
X154097448Y-107294003D01*
X154255525Y-107395219D01*
X154379152Y-107572304D01*
X154465883Y-107853761D01*
X154500069Y-108281744D01*
X154492009Y-108618799D01*
X154906001Y-108571905D01*
X155339898Y-108591203D01*
X155549337Y-108633454D01*
X155730888Y-108739127D01*
X155838188Y-108899149D01*
X155877233Y-109132442D01*
X155836750Y-109347506D01*
X155717131Y-109521521D01*
X155538440Y-109637034D01*
X155311566Y-109676859D01*
G37*
G36*
X157592184Y-109228063D02*
G01*
X157907063Y-108967194D01*
X158233688Y-108787693D01*
X158585627Y-108679019D01*
X158965317Y-108642247D01*
X159315513Y-108671033D01*
X159590637Y-108749912D01*
X159806225Y-108871883D01*
X159973551Y-109036088D01*
X160097014Y-109246100D01*
X160192794Y-109540232D01*
X160252355Y-109942840D01*
X160297418Y-110956570D01*
X160379483Y-111760739D01*
X160445301Y-112201320D01*
X160518702Y-112556849D01*
X160539218Y-112708524D01*
X160519576Y-112853713D01*
X160462264Y-112978467D01*
X160364829Y-113088077D01*
X160176334Y-113200291D01*
X159957065Y-113237920D01*
X159764688Y-113211214D01*
X159617122Y-113136437D01*
X159503195Y-113012729D01*
X159419975Y-112827958D01*
X159332175Y-112460602D01*
X159239724Y-111892997D01*
X159182492Y-111339623D01*
X159166085Y-110941549D01*
X159175976Y-110631971D01*
X159186235Y-110322393D01*
X159178175Y-109969951D01*
X159133833Y-109837280D01*
X159064171Y-109767763D01*
X158964951Y-109744270D01*
X158679316Y-109788030D01*
X158407875Y-109921988D01*
X158141364Y-110161559D01*
X157945273Y-110422569D01*
X157624790Y-110955104D01*
X157600185Y-111980010D01*
X157544856Y-112509886D01*
X157481542Y-112738565D01*
X157350446Y-112928421D01*
X157184837Y-113036490D01*
X156973394Y-113073789D01*
X156757138Y-113035649D01*
X156565265Y-112920282D01*
X156465214Y-112808266D01*
X156406978Y-112683633D01*
X156387212Y-112541461D01*
X156432274Y-112324207D01*
X156452211Y-112132624D01*
X156481367Y-111218520D01*
X156472914Y-110259514D01*
X156489794Y-108478848D01*
X156497854Y-108343660D01*
X156522400Y-107696660D01*
X156483199Y-107321870D01*
X156444364Y-106947079D01*
X156486729Y-106733735D01*
X156612159Y-106564228D01*
X156796293Y-106452649D01*
X157018091Y-106414752D01*
X157204753Y-106442003D01*
X157352677Y-106519617D01*
X157471530Y-106650512D01*
X157563241Y-106848893D01*
X157618183Y-107127298D01*
X157641277Y-107602138D01*
X157616730Y-108433419D01*
X157592184Y-109228063D01*
G37*
G36*
X162157083Y-108056064D02*
G01*
X161912091Y-108011795D01*
X161702058Y-107879110D01*
X161594078Y-107750765D01*
X161530850Y-107608313D01*
X161509351Y-107446434D01*
X161530858Y-107284567D01*
X161594091Y-107142244D01*
X161702058Y-107014124D01*
X161838960Y-106915232D01*
X161989077Y-106856719D01*
X162157083Y-106836803D01*
X162325021Y-106856764D01*
X162474371Y-106915308D01*
X162609909Y-107014124D01*
X162716546Y-107142085D01*
X162779114Y-107284417D01*
X162800418Y-107446434D01*
X162779122Y-107608463D01*
X162716558Y-107750923D01*
X162609909Y-107879110D01*
X162474397Y-107977707D01*
X162325045Y-108036138D01*
X162157083Y-108056064D01*
G37*
G36*
X162505495Y-111056587D02*
G01*
X162519783Y-111805069D01*
X162534071Y-112553551D01*
X162493353Y-112771387D01*
X162373970Y-112944096D01*
X162195456Y-113057906D01*
X161968405Y-113097236D01*
X161741292Y-113057919D01*
X161562473Y-112944096D01*
X161443376Y-112771417D01*
X161402739Y-112553551D01*
X161388450Y-111805069D01*
X161374162Y-111056587D01*
X161415195Y-110145073D01*
X161456228Y-109232826D01*
X161496877Y-109015024D01*
X161615963Y-108842648D01*
X161794811Y-108728541D01*
X162021894Y-108689141D01*
X162248915Y-108728554D01*
X162427459Y-108842648D01*
X162546830Y-109015054D01*
X162587561Y-109232826D01*
X162546528Y-110145073D01*
X162505495Y-111056587D01*
G37*
G36*
X166458565Y-109955296D02*
G01*
X166264277Y-109931970D01*
X166126892Y-109869482D01*
X166031212Y-109771454D01*
X165970935Y-109631064D01*
X165634979Y-109603586D01*
X165087918Y-109633453D01*
X164805163Y-109701114D01*
X164681269Y-109782994D01*
X164646894Y-109874696D01*
X164684306Y-109962028D01*
X164844975Y-110096567D01*
X165241137Y-110305907D01*
X165982112Y-110670860D01*
X166339863Y-110888792D01*
X166616749Y-111128771D01*
X166797747Y-111367325D01*
X166900423Y-111608416D01*
X166934106Y-111858925D01*
X166892687Y-112190529D01*
X166773109Y-112471699D01*
X166573057Y-112714584D01*
X166278314Y-112924678D01*
X165914888Y-113080576D01*
X165486170Y-113179374D01*
X164979187Y-113214473D01*
X164449838Y-113171587D01*
X163983042Y-113048143D01*
X163689352Y-112905389D01*
X163504923Y-112747459D01*
X163402312Y-112574195D01*
X163368283Y-112377697D01*
X163398889Y-112199778D01*
X163482967Y-112079445D01*
X163626470Y-112001875D01*
X163855914Y-111971765D01*
X164062543Y-111996075D01*
X164401064Y-112089002D01*
X164740105Y-112181793D01*
X164950244Y-112206238D01*
X165389532Y-112173333D01*
X165631201Y-112096059D01*
X165748834Y-111994976D01*
X165786287Y-111869549D01*
X165744777Y-111754139D01*
X165582857Y-111605290D01*
X165208531Y-111405732D01*
X164443242Y-111047839D01*
X164126290Y-110867543D01*
X163862099Y-110641127D01*
X163685614Y-110403832D01*
X163582973Y-110151691D01*
X163548534Y-109877260D01*
X163584142Y-109565669D01*
X163685414Y-109307684D01*
X163851432Y-109091175D01*
X164091022Y-108909789D01*
X164421580Y-108763879D01*
X164770621Y-108679031D01*
X165275228Y-108618664D01*
X165978995Y-108595352D01*
X166359879Y-108626178D01*
X166585694Y-108700865D01*
X166732340Y-108817882D01*
X166822775Y-108986187D01*
X166856071Y-109224399D01*
X166821015Y-109594044D01*
X166736044Y-109806960D01*
X166617392Y-109918255D01*
X166458565Y-109955296D01*
G37*
G36*
X172233565Y-108056064D02*
G01*
X171988574Y-108011795D01*
X171778541Y-107879110D01*
X171670561Y-107750765D01*
X171607333Y-107608313D01*
X171585833Y-107446434D01*
X171607341Y-107284567D01*
X171670574Y-107142244D01*
X171778541Y-107014124D01*
X171915443Y-106915232D01*
X172065560Y-106856719D01*
X172233565Y-106836803D01*
X172401504Y-106856764D01*
X172550854Y-106915308D01*
X172686392Y-107014124D01*
X172793029Y-107142085D01*
X172855597Y-107284417D01*
X172876901Y-107446434D01*
X172855605Y-107608463D01*
X172793041Y-107750923D01*
X172686392Y-107879110D01*
X172550880Y-107977707D01*
X172401527Y-108036138D01*
X172233565Y-108056064D01*
G37*
G36*
X172581978Y-111056587D02*
G01*
X172596266Y-111805069D01*
X172610554Y-112553551D01*
X172569836Y-112771387D01*
X172450453Y-112944096D01*
X172271939Y-113057906D01*
X172044888Y-113097236D01*
X171817775Y-113057919D01*
X171638956Y-112944096D01*
X171519859Y-112771417D01*
X171479221Y-112553551D01*
X171464933Y-111805069D01*
X171450645Y-111056587D01*
X171491678Y-110145073D01*
X171532711Y-109232826D01*
X171573360Y-109015024D01*
X171692445Y-108842648D01*
X171871294Y-108728541D01*
X172098377Y-108689141D01*
X172325398Y-108728554D01*
X172503942Y-108842648D01*
X172623313Y-109015054D01*
X172664043Y-109232826D01*
X172623011Y-110145073D01*
X172581978Y-111056587D01*
G37*
G36*
X176535048Y-109955296D02*
G01*
X176340760Y-109931970D01*
X176203375Y-109869482D01*
X176107695Y-109771454D01*
X176047418Y-109631064D01*
X175711461Y-109603586D01*
X175164401Y-109633453D01*
X174881646Y-109701114D01*
X174757752Y-109782994D01*
X174723377Y-109874696D01*
X174760789Y-109962028D01*
X174921458Y-110096567D01*
X175317620Y-110305907D01*
X176058595Y-110670860D01*
X176416346Y-110888792D01*
X176693231Y-111128771D01*
X176874230Y-111367325D01*
X176976906Y-111608416D01*
X177010589Y-111858925D01*
X176969170Y-112190529D01*
X176849592Y-112471699D01*
X176649540Y-112714584D01*
X176354797Y-112924678D01*
X175991371Y-113080576D01*
X175562653Y-113179374D01*
X175055669Y-113214473D01*
X174526321Y-113171587D01*
X174059525Y-113048143D01*
X173765835Y-112905389D01*
X173581406Y-112747459D01*
X173478795Y-112574195D01*
X173444766Y-112377697D01*
X173475372Y-112199778D01*
X173559450Y-112079445D01*
X173702953Y-112001875D01*
X173932397Y-111971765D01*
X174139026Y-111996075D01*
X174477547Y-112089002D01*
X174816588Y-112181793D01*
X175026727Y-112206238D01*
X175466015Y-112173333D01*
X175707684Y-112096059D01*
X175825317Y-111994976D01*
X175862770Y-111869549D01*
X175821259Y-111754139D01*
X175659340Y-111605290D01*
X175285013Y-111405732D01*
X174519725Y-111047839D01*
X174202773Y-110867543D01*
X173938582Y-110641127D01*
X173762097Y-110403832D01*
X173659456Y-110151691D01*
X173625017Y-109877260D01*
X173660625Y-109565669D01*
X173761897Y-109307684D01*
X173927915Y-109091175D01*
X174167505Y-108909789D01*
X174498063Y-108763879D01*
X174847104Y-108679031D01*
X175351711Y-108618664D01*
X176055478Y-108595352D01*
X176436362Y-108626178D01*
X176662177Y-108700865D01*
X176808823Y-108817882D01*
X176899258Y-108986187D01*
X176932554Y-109224399D01*
X176897498Y-109594044D01*
X176812527Y-109806960D01*
X176693875Y-109918255D01*
X176535048Y-109955296D01*
G37*
G36*
X182444051Y-106644768D02*
G01*
X182945324Y-106856221D01*
X183699668Y-107196207D01*
X184287033Y-107421173D01*
X184821345Y-107696646D01*
X185307426Y-108022424D01*
X185749110Y-108399713D01*
X186129561Y-108816264D01*
X186411875Y-109234965D01*
X186607208Y-109659235D01*
X186722751Y-110093938D01*
X186761374Y-110545143D01*
X186722821Y-111008794D01*
X186607536Y-111455885D01*
X186412962Y-111892264D01*
X186150320Y-112299792D01*
X185833211Y-112646046D01*
X185457850Y-112936402D01*
X185114331Y-113116969D01*
X184691575Y-113255521D01*
X184174083Y-113345888D01*
X183543963Y-113378604D01*
X183235169Y-113358685D01*
X182855198Y-113292508D01*
X182413930Y-113162150D01*
X182113311Y-113014071D01*
X181889656Y-112970137D01*
X181707379Y-112848475D01*
X181584511Y-112669583D01*
X181543614Y-112457198D01*
X181555814Y-112071416D01*
X182711584Y-112071416D01*
X182880508Y-112160070D01*
X183078314Y-112225289D01*
X183291933Y-112263173D01*
X183539567Y-112276580D01*
X184131443Y-112242206D01*
X184539231Y-112154265D01*
X184810118Y-112030383D01*
X185035462Y-111857001D01*
X185228150Y-111646309D01*
X185390073Y-111394375D01*
X185510712Y-111119805D01*
X185581831Y-110841917D01*
X185605495Y-110557233D01*
X185562383Y-110179699D01*
X185432912Y-109821796D01*
X185210165Y-109475112D01*
X184878890Y-109134186D01*
X184416643Y-108796852D01*
X183900535Y-108525715D01*
X182711584Y-108009169D01*
X182711584Y-112071416D01*
X181555814Y-112071416D01*
X181582449Y-111229145D01*
X181621284Y-110000725D01*
X181602965Y-108637117D01*
X181584647Y-107273876D01*
X181606389Y-107131540D01*
X181675266Y-106983760D01*
X181801901Y-106825446D01*
X181957070Y-106696859D01*
X182109811Y-106625410D01*
X182264986Y-106602330D01*
X182444051Y-106644768D01*
G37*
G36*
X189979363Y-108710698D02*
G01*
X190277170Y-108780773D01*
X190625418Y-108909326D01*
X190932661Y-109070421D01*
X191117292Y-109224831D01*
X191213996Y-109374061D01*
X191244207Y-109524818D01*
X191220579Y-109662724D01*
X191150052Y-109781639D01*
X191086304Y-110191601D01*
X191063956Y-110768258D01*
X191097374Y-111492483D01*
X191174598Y-111889333D01*
X191363276Y-112313583D01*
X191523011Y-112712920D01*
X191481650Y-112910384D01*
X191357048Y-113071591D01*
X191178068Y-113178825D01*
X190973831Y-113214473D01*
X190854931Y-113187537D01*
X190666559Y-113082336D01*
X190375558Y-112849940D01*
X190006777Y-113013852D01*
X189711339Y-113122149D01*
X189432932Y-113193811D01*
X189223709Y-113214473D01*
X188729795Y-113176323D01*
X188329328Y-113070566D01*
X188004588Y-112905624D01*
X187742131Y-112683244D01*
X187538275Y-112406177D01*
X187384383Y-112059684D01*
X187284520Y-111628584D01*
X187250334Y-111124364D01*
X188383269Y-111124364D01*
X188409192Y-111488115D01*
X188477967Y-111756871D01*
X188580006Y-111952348D01*
X188730001Y-112104279D01*
X188922175Y-112196686D01*
X189170219Y-112229685D01*
X189419157Y-112208380D01*
X189651988Y-112145422D01*
X189871083Y-112042193D01*
X190080268Y-111897027D01*
X189982845Y-110979783D01*
X189957170Y-110434134D01*
X189975488Y-110132250D01*
X190031175Y-109751964D01*
X189885362Y-109692613D01*
X189776919Y-109673928D01*
X189508488Y-109700976D01*
X189259664Y-109781028D01*
X189025146Y-109915881D01*
X188801290Y-110111734D01*
X188615469Y-110343500D01*
X188486420Y-110586905D01*
X188409364Y-110845538D01*
X188383269Y-111124364D01*
X187250334Y-111124364D01*
X187248272Y-111093956D01*
X187277935Y-110705327D01*
X187364921Y-110345991D01*
X187508512Y-110010548D01*
X187711026Y-109694700D01*
X187977704Y-109395491D01*
X188363984Y-109084079D01*
X188778801Y-108865786D01*
X189228933Y-108734130D01*
X189723796Y-108689141D01*
X189979363Y-108710698D01*
G37*
G36*
X195537264Y-110031133D02*
G01*
X195481112Y-110324369D01*
X195368681Y-110510048D01*
X195203558Y-110619252D01*
X194967568Y-110658715D01*
X194733930Y-110622989D01*
X194581365Y-110527704D01*
X194487015Y-110371813D01*
X194451360Y-110130785D01*
X194430844Y-109720823D01*
X194073509Y-109808924D01*
X193769836Y-109946660D01*
X193511398Y-110132807D01*
X193292545Y-110370158D01*
X193110833Y-110665310D01*
X193114863Y-112721713D01*
X193074393Y-112936045D01*
X192955129Y-113107861D01*
X192776585Y-113221955D01*
X192549563Y-113261367D01*
X192387617Y-113241778D01*
X192259074Y-113186800D01*
X192156088Y-113097236D01*
X192059004Y-112932729D01*
X192024930Y-112719881D01*
X192024930Y-110032599D01*
X192032990Y-109653046D01*
X192041416Y-109273492D01*
X192076631Y-109060075D01*
X192178436Y-108889909D01*
X192339664Y-108776654D01*
X192570080Y-108736036D01*
X192778763Y-108766666D01*
X192930780Y-108851254D01*
X193040792Y-108991151D01*
X193110833Y-109203150D01*
X193487322Y-108966025D01*
X193878215Y-108799407D01*
X194287881Y-108699462D01*
X194721737Y-108665694D01*
X194970540Y-108695562D01*
X195164471Y-108778724D01*
X195316766Y-108913421D01*
X195433347Y-109108359D01*
X195511693Y-109381194D01*
X195541294Y-109756360D01*
X195537264Y-110031133D01*
G37*
G36*
X200209874Y-109511629D02*
G01*
X198795708Y-112434117D01*
X198311447Y-113461867D01*
X197996301Y-114208785D01*
X197725924Y-114962763D01*
X197633247Y-115137672D01*
X197517507Y-115254325D01*
X197376303Y-115323832D01*
X197201290Y-115348178D01*
X196981765Y-115310290D01*
X196791329Y-115196870D01*
X196692688Y-115086247D01*
X196634865Y-114961215D01*
X196615108Y-114816584D01*
X196666666Y-114542771D01*
X196903683Y-113882659D01*
X197484124Y-112563443D01*
X196959954Y-111574510D01*
X196053471Y-109950533D01*
X195852704Y-109635460D01*
X195767336Y-109448111D01*
X195742062Y-109292177D01*
X195785029Y-109087046D01*
X195918283Y-108903831D01*
X196109379Y-108777366D01*
X196324214Y-108736036D01*
X196494509Y-108759250D01*
X196632572Y-108825531D01*
X196746266Y-108936437D01*
X197113691Y-109471815D01*
X197561468Y-110229948D01*
X198102913Y-111263217D01*
X198635973Y-110086454D01*
X198932140Y-109494860D01*
X199205669Y-109008611D01*
X199342307Y-108840086D01*
X199500743Y-108744803D01*
X199689270Y-108712588D01*
X199905671Y-108751157D01*
X200099232Y-108868293D01*
X200200675Y-108981824D01*
X200259553Y-109107331D01*
X200279483Y-109249678D01*
X200263376Y-109369556D01*
X200209874Y-109511629D01*
G37*
G36*
X202040596Y-112386489D02*
G01*
X202011271Y-112701684D01*
X201935453Y-112914810D01*
X201823628Y-113054387D01*
X201674411Y-113137749D01*
X201474930Y-113167578D01*
X201248082Y-113127517D01*
X201068998Y-113011140D01*
X200950229Y-112835026D01*
X200909263Y-112608506D01*
X200909263Y-106921800D01*
X200928907Y-106770550D01*
X200985775Y-106642251D01*
X201081454Y-106531256D01*
X201261793Y-106427345D01*
X201487386Y-106391304D01*
X201710834Y-106429027D01*
X201884891Y-106537484D01*
X202000530Y-106703680D01*
X202040596Y-106921800D01*
X202040596Y-112386489D01*
G37*
D12*
X179898180Y-97853901D02*
X179898180Y-96853901D01*
X179898180Y-96853901D02*
X180279132Y-96853901D01*
X180279132Y-96853901D02*
X180374370Y-96901520D01*
X180374370Y-96901520D02*
X180421989Y-96949139D01*
X180421989Y-96949139D02*
X180469608Y-97044377D01*
X180469608Y-97044377D02*
X180469608Y-97187234D01*
X180469608Y-97187234D02*
X180421989Y-97282472D01*
X180421989Y-97282472D02*
X180374370Y-97330091D01*
X180374370Y-97330091D02*
X180279132Y-97377710D01*
X180279132Y-97377710D02*
X179898180Y-97377710D01*
X181421989Y-97853901D02*
X180850561Y-97853901D01*
X181136275Y-97853901D02*
X181136275Y-96853901D01*
X181136275Y-96853901D02*
X181041037Y-96996758D01*
X181041037Y-96996758D02*
X180945799Y-97091996D01*
X180945799Y-97091996D02*
X180850561Y-97139615D01*
X182279132Y-97187234D02*
X182279132Y-97853901D01*
X182041037Y-96806282D02*
X181802942Y-97520567D01*
X181802942Y-97520567D02*
X182421989Y-97520567D01*
X171434371Y-90233901D02*
X171434371Y-89233901D01*
X171434371Y-89233901D02*
X171815323Y-89233901D01*
X171815323Y-89233901D02*
X171910561Y-89281520D01*
X171910561Y-89281520D02*
X171958180Y-89329139D01*
X171958180Y-89329139D02*
X172005799Y-89424377D01*
X172005799Y-89424377D02*
X172005799Y-89567234D01*
X172005799Y-89567234D02*
X171958180Y-89662472D01*
X171958180Y-89662472D02*
X171910561Y-89710091D01*
X171910561Y-89710091D02*
X171815323Y-89757710D01*
X171815323Y-89757710D02*
X171434371Y-89757710D01*
X172862942Y-89567234D02*
X172862942Y-90233901D01*
X172624847Y-89186282D02*
X172386752Y-89900567D01*
X172386752Y-89900567D02*
X173005799Y-89900567D01*
X179898180Y-87693901D02*
X179898180Y-86693901D01*
X179898180Y-86693901D02*
X180279132Y-86693901D01*
X180279132Y-86693901D02*
X180374370Y-86741520D01*
X180374370Y-86741520D02*
X180421989Y-86789139D01*
X180421989Y-86789139D02*
X180469608Y-86884377D01*
X180469608Y-86884377D02*
X180469608Y-87027234D01*
X180469608Y-87027234D02*
X180421989Y-87122472D01*
X180421989Y-87122472D02*
X180374370Y-87170091D01*
X180374370Y-87170091D02*
X180279132Y-87217710D01*
X180279132Y-87217710D02*
X179898180Y-87217710D01*
X180850561Y-86789139D02*
X180898180Y-86741520D01*
X180898180Y-86741520D02*
X180993418Y-86693901D01*
X180993418Y-86693901D02*
X181231513Y-86693901D01*
X181231513Y-86693901D02*
X181326751Y-86741520D01*
X181326751Y-86741520D02*
X181374370Y-86789139D01*
X181374370Y-86789139D02*
X181421989Y-86884377D01*
X181421989Y-86884377D02*
X181421989Y-86979615D01*
X181421989Y-86979615D02*
X181374370Y-87122472D01*
X181374370Y-87122472D02*
X180802942Y-87693901D01*
X180802942Y-87693901D02*
X181421989Y-87693901D01*
X182041037Y-86693901D02*
X182136275Y-86693901D01*
X182136275Y-86693901D02*
X182231513Y-86741520D01*
X182231513Y-86741520D02*
X182279132Y-86789139D01*
X182279132Y-86789139D02*
X182326751Y-86884377D01*
X182326751Y-86884377D02*
X182374370Y-87074853D01*
X182374370Y-87074853D02*
X182374370Y-87312948D01*
X182374370Y-87312948D02*
X182326751Y-87503424D01*
X182326751Y-87503424D02*
X182279132Y-87598662D01*
X182279132Y-87598662D02*
X182231513Y-87646282D01*
X182231513Y-87646282D02*
X182136275Y-87693901D01*
X182136275Y-87693901D02*
X182041037Y-87693901D01*
X182041037Y-87693901D02*
X181945799Y-87646282D01*
X181945799Y-87646282D02*
X181898180Y-87598662D01*
X181898180Y-87598662D02*
X181850561Y-87503424D01*
X181850561Y-87503424D02*
X181802942Y-87312948D01*
X181802942Y-87312948D02*
X181802942Y-87074853D01*
X181802942Y-87074853D02*
X181850561Y-86884377D01*
X181850561Y-86884377D02*
X181898180Y-86789139D01*
X181898180Y-86789139D02*
X181945799Y-86741520D01*
X181945799Y-86741520D02*
X182041037Y-86693901D01*
X171434371Y-77533901D02*
X171434371Y-76533901D01*
X171434371Y-76533901D02*
X171815323Y-76533901D01*
X171815323Y-76533901D02*
X171910561Y-76581520D01*
X171910561Y-76581520D02*
X171958180Y-76629139D01*
X171958180Y-76629139D02*
X172005799Y-76724377D01*
X172005799Y-76724377D02*
X172005799Y-76867234D01*
X172005799Y-76867234D02*
X171958180Y-76962472D01*
X171958180Y-76962472D02*
X171910561Y-77010091D01*
X171910561Y-77010091D02*
X171815323Y-77057710D01*
X171815323Y-77057710D02*
X171434371Y-77057710D01*
X172624847Y-76533901D02*
X172720085Y-76533901D01*
X172720085Y-76533901D02*
X172815323Y-76581520D01*
X172815323Y-76581520D02*
X172862942Y-76629139D01*
X172862942Y-76629139D02*
X172910561Y-76724377D01*
X172910561Y-76724377D02*
X172958180Y-76914853D01*
X172958180Y-76914853D02*
X172958180Y-77152948D01*
X172958180Y-77152948D02*
X172910561Y-77343424D01*
X172910561Y-77343424D02*
X172862942Y-77438662D01*
X172862942Y-77438662D02*
X172815323Y-77486282D01*
X172815323Y-77486282D02*
X172720085Y-77533901D01*
X172720085Y-77533901D02*
X172624847Y-77533901D01*
X172624847Y-77533901D02*
X172529609Y-77486282D01*
X172529609Y-77486282D02*
X172481990Y-77438662D01*
X172481990Y-77438662D02*
X172434371Y-77343424D01*
X172434371Y-77343424D02*
X172386752Y-77152948D01*
X172386752Y-77152948D02*
X172386752Y-76914853D01*
X172386752Y-76914853D02*
X172434371Y-76724377D01*
X172434371Y-76724377D02*
X172481990Y-76629139D01*
X172481990Y-76629139D02*
X172529609Y-76581520D01*
X172529609Y-76581520D02*
X172624847Y-76533901D01*
X171410561Y-79121520D02*
X171315323Y-79073901D01*
X171315323Y-79073901D02*
X171172466Y-79073901D01*
X171172466Y-79073901D02*
X171029609Y-79121520D01*
X171029609Y-79121520D02*
X170934371Y-79216758D01*
X170934371Y-79216758D02*
X170886752Y-79311996D01*
X170886752Y-79311996D02*
X170839133Y-79502472D01*
X170839133Y-79502472D02*
X170839133Y-79645329D01*
X170839133Y-79645329D02*
X170886752Y-79835805D01*
X170886752Y-79835805D02*
X170934371Y-79931043D01*
X170934371Y-79931043D02*
X171029609Y-80026282D01*
X171029609Y-80026282D02*
X171172466Y-80073901D01*
X171172466Y-80073901D02*
X171267704Y-80073901D01*
X171267704Y-80073901D02*
X171410561Y-80026282D01*
X171410561Y-80026282D02*
X171458180Y-79978662D01*
X171458180Y-79978662D02*
X171458180Y-79645329D01*
X171458180Y-79645329D02*
X171267704Y-79645329D01*
X171886752Y-80073901D02*
X171886752Y-79073901D01*
X171886752Y-79073901D02*
X172458180Y-80073901D01*
X172458180Y-80073901D02*
X172458180Y-79073901D01*
X172934371Y-80073901D02*
X172934371Y-79073901D01*
X172934371Y-79073901D02*
X173172466Y-79073901D01*
X173172466Y-79073901D02*
X173315323Y-79121520D01*
X173315323Y-79121520D02*
X173410561Y-79216758D01*
X173410561Y-79216758D02*
X173458180Y-79311996D01*
X173458180Y-79311996D02*
X173505799Y-79502472D01*
X173505799Y-79502472D02*
X173505799Y-79645329D01*
X173505799Y-79645329D02*
X173458180Y-79835805D01*
X173458180Y-79835805D02*
X173410561Y-79931043D01*
X173410561Y-79931043D02*
X173315323Y-80026282D01*
X173315323Y-80026282D02*
X173172466Y-80073901D01*
X173172466Y-80073901D02*
X172934371Y-80073901D01*
X179779133Y-81613903D02*
X180112466Y-82613903D01*
X180112466Y-82613903D02*
X180445799Y-81613903D01*
X181350561Y-82518664D02*
X181302942Y-82566284D01*
X181302942Y-82566284D02*
X181160085Y-82613903D01*
X181160085Y-82613903D02*
X181064847Y-82613903D01*
X181064847Y-82613903D02*
X180921990Y-82566284D01*
X180921990Y-82566284D02*
X180826752Y-82471045D01*
X180826752Y-82471045D02*
X180779133Y-82375807D01*
X180779133Y-82375807D02*
X180731514Y-82185331D01*
X180731514Y-82185331D02*
X180731514Y-82042474D01*
X180731514Y-82042474D02*
X180779133Y-81851998D01*
X180779133Y-81851998D02*
X180826752Y-81756760D01*
X180826752Y-81756760D02*
X180921990Y-81661522D01*
X180921990Y-81661522D02*
X181064847Y-81613903D01*
X181064847Y-81613903D02*
X181160085Y-81613903D01*
X181160085Y-81613903D02*
X181302942Y-81661522D01*
X181302942Y-81661522D02*
X181350561Y-81709141D01*
X182350561Y-82518664D02*
X182302942Y-82566284D01*
X182302942Y-82566284D02*
X182160085Y-82613903D01*
X182160085Y-82613903D02*
X182064847Y-82613903D01*
X182064847Y-82613903D02*
X181921990Y-82566284D01*
X181921990Y-82566284D02*
X181826752Y-82471045D01*
X181826752Y-82471045D02*
X181779133Y-82375807D01*
X181779133Y-82375807D02*
X181731514Y-82185331D01*
X181731514Y-82185331D02*
X181731514Y-82042474D01*
X181731514Y-82042474D02*
X181779133Y-81851998D01*
X181779133Y-81851998D02*
X181826752Y-81756760D01*
X181826752Y-81756760D02*
X181921990Y-81661522D01*
X181921990Y-81661522D02*
X182064847Y-81613903D01*
X182064847Y-81613903D02*
X182160085Y-81613903D01*
X182160085Y-81613903D02*
X182302942Y-81661522D01*
X182302942Y-81661522D02*
X182350561Y-81709141D01*
X171434371Y-85153901D02*
X171434371Y-84153901D01*
X171434371Y-84153901D02*
X171815323Y-84153901D01*
X171815323Y-84153901D02*
X171910561Y-84201520D01*
X171910561Y-84201520D02*
X171958180Y-84249139D01*
X171958180Y-84249139D02*
X172005799Y-84344377D01*
X172005799Y-84344377D02*
X172005799Y-84487234D01*
X172005799Y-84487234D02*
X171958180Y-84582472D01*
X171958180Y-84582472D02*
X171910561Y-84630091D01*
X171910561Y-84630091D02*
X171815323Y-84677710D01*
X171815323Y-84677710D02*
X171434371Y-84677710D01*
X172386752Y-84249139D02*
X172434371Y-84201520D01*
X172434371Y-84201520D02*
X172529609Y-84153901D01*
X172529609Y-84153901D02*
X172767704Y-84153901D01*
X172767704Y-84153901D02*
X172862942Y-84201520D01*
X172862942Y-84201520D02*
X172910561Y-84249139D01*
X172910561Y-84249139D02*
X172958180Y-84344377D01*
X172958180Y-84344377D02*
X172958180Y-84439615D01*
X172958180Y-84439615D02*
X172910561Y-84582472D01*
X172910561Y-84582472D02*
X172339133Y-85153901D01*
X172339133Y-85153901D02*
X172958180Y-85153901D01*
X180564846Y-80073901D02*
X180231513Y-79597710D01*
X179993418Y-80073901D02*
X179993418Y-79073901D01*
X179993418Y-79073901D02*
X180374370Y-79073901D01*
X180374370Y-79073901D02*
X180469608Y-79121520D01*
X180469608Y-79121520D02*
X180517227Y-79169139D01*
X180517227Y-79169139D02*
X180564846Y-79264377D01*
X180564846Y-79264377D02*
X180564846Y-79407234D01*
X180564846Y-79407234D02*
X180517227Y-79502472D01*
X180517227Y-79502472D02*
X180469608Y-79550091D01*
X180469608Y-79550091D02*
X180374370Y-79597710D01*
X180374370Y-79597710D02*
X179993418Y-79597710D01*
X180945799Y-80026282D02*
X181088656Y-80073901D01*
X181088656Y-80073901D02*
X181326751Y-80073901D01*
X181326751Y-80073901D02*
X181421989Y-80026282D01*
X181421989Y-80026282D02*
X181469608Y-79978662D01*
X181469608Y-79978662D02*
X181517227Y-79883424D01*
X181517227Y-79883424D02*
X181517227Y-79788186D01*
X181517227Y-79788186D02*
X181469608Y-79692948D01*
X181469608Y-79692948D02*
X181421989Y-79645329D01*
X181421989Y-79645329D02*
X181326751Y-79597710D01*
X181326751Y-79597710D02*
X181136275Y-79550091D01*
X181136275Y-79550091D02*
X181041037Y-79502472D01*
X181041037Y-79502472D02*
X180993418Y-79454853D01*
X180993418Y-79454853D02*
X180945799Y-79359615D01*
X180945799Y-79359615D02*
X180945799Y-79264377D01*
X180945799Y-79264377D02*
X180993418Y-79169139D01*
X180993418Y-79169139D02*
X181041037Y-79121520D01*
X181041037Y-79121520D02*
X181136275Y-79073901D01*
X181136275Y-79073901D02*
X181374370Y-79073901D01*
X181374370Y-79073901D02*
X181517227Y-79121520D01*
X181802942Y-79073901D02*
X182374370Y-79073901D01*
X182088656Y-80073901D02*
X182088656Y-79073901D01*
X180350561Y-76581520D02*
X180255323Y-76533901D01*
X180255323Y-76533901D02*
X180112466Y-76533901D01*
X180112466Y-76533901D02*
X179969609Y-76581520D01*
X179969609Y-76581520D02*
X179874371Y-76676758D01*
X179874371Y-76676758D02*
X179826752Y-76771996D01*
X179826752Y-76771996D02*
X179779133Y-76962472D01*
X179779133Y-76962472D02*
X179779133Y-77105329D01*
X179779133Y-77105329D02*
X179826752Y-77295805D01*
X179826752Y-77295805D02*
X179874371Y-77391043D01*
X179874371Y-77391043D02*
X179969609Y-77486282D01*
X179969609Y-77486282D02*
X180112466Y-77533901D01*
X180112466Y-77533901D02*
X180207704Y-77533901D01*
X180207704Y-77533901D02*
X180350561Y-77486282D01*
X180350561Y-77486282D02*
X180398180Y-77438662D01*
X180398180Y-77438662D02*
X180398180Y-77105329D01*
X180398180Y-77105329D02*
X180207704Y-77105329D01*
X180826752Y-77533901D02*
X180826752Y-76533901D01*
X180826752Y-76533901D02*
X181398180Y-77533901D01*
X181398180Y-77533901D02*
X181398180Y-76533901D01*
X181874371Y-77533901D02*
X181874371Y-76533901D01*
X181874371Y-76533901D02*
X182112466Y-76533901D01*
X182112466Y-76533901D02*
X182255323Y-76581520D01*
X182255323Y-76581520D02*
X182350561Y-76676758D01*
X182350561Y-76676758D02*
X182398180Y-76771996D01*
X182398180Y-76771996D02*
X182445799Y-76962472D01*
X182445799Y-76962472D02*
X182445799Y-77105329D01*
X182445799Y-77105329D02*
X182398180Y-77295805D01*
X182398180Y-77295805D02*
X182350561Y-77391043D01*
X182350561Y-77391043D02*
X182255323Y-77486282D01*
X182255323Y-77486282D02*
X182112466Y-77533901D01*
X182112466Y-77533901D02*
X181874371Y-77533901D01*
X171434370Y-74993901D02*
X171434370Y-73993901D01*
X171434370Y-73993901D02*
X171815322Y-73993901D01*
X171815322Y-73993901D02*
X171910560Y-74041520D01*
X171910560Y-74041520D02*
X171958179Y-74089139D01*
X171958179Y-74089139D02*
X172005798Y-74184377D01*
X172005798Y-74184377D02*
X172005798Y-74327234D01*
X172005798Y-74327234D02*
X171958179Y-74422472D01*
X171958179Y-74422472D02*
X171910560Y-74470091D01*
X171910560Y-74470091D02*
X171815322Y-74517710D01*
X171815322Y-74517710D02*
X171434370Y-74517710D01*
X172958179Y-74993901D02*
X172386751Y-74993901D01*
X172672465Y-74993901D02*
X172672465Y-73993901D01*
X172672465Y-73993901D02*
X172577227Y-74136758D01*
X172577227Y-74136758D02*
X172481989Y-74231996D01*
X172481989Y-74231996D02*
X172386751Y-74279615D01*
X171410561Y-81661522D02*
X171315323Y-81613903D01*
X171315323Y-81613903D02*
X171172466Y-81613903D01*
X171172466Y-81613903D02*
X171029609Y-81661522D01*
X171029609Y-81661522D02*
X170934371Y-81756760D01*
X170934371Y-81756760D02*
X170886752Y-81851998D01*
X170886752Y-81851998D02*
X170839133Y-82042474D01*
X170839133Y-82042474D02*
X170839133Y-82185331D01*
X170839133Y-82185331D02*
X170886752Y-82375807D01*
X170886752Y-82375807D02*
X170934371Y-82471045D01*
X170934371Y-82471045D02*
X171029609Y-82566284D01*
X171029609Y-82566284D02*
X171172466Y-82613903D01*
X171172466Y-82613903D02*
X171267704Y-82613903D01*
X171267704Y-82613903D02*
X171410561Y-82566284D01*
X171410561Y-82566284D02*
X171458180Y-82518664D01*
X171458180Y-82518664D02*
X171458180Y-82185331D01*
X171458180Y-82185331D02*
X171267704Y-82185331D01*
X171886752Y-82613903D02*
X171886752Y-81613903D01*
X171886752Y-81613903D02*
X172458180Y-82613903D01*
X172458180Y-82613903D02*
X172458180Y-81613903D01*
X172934371Y-82613903D02*
X172934371Y-81613903D01*
X172934371Y-81613903D02*
X173172466Y-81613903D01*
X173172466Y-81613903D02*
X173315323Y-81661522D01*
X173315323Y-81661522D02*
X173410561Y-81756760D01*
X173410561Y-81756760D02*
X173458180Y-81851998D01*
X173458180Y-81851998D02*
X173505799Y-82042474D01*
X173505799Y-82042474D02*
X173505799Y-82185331D01*
X173505799Y-82185331D02*
X173458180Y-82375807D01*
X173458180Y-82375807D02*
X173410561Y-82471045D01*
X173410561Y-82471045D02*
X173315323Y-82566284D01*
X173315323Y-82566284D02*
X173172466Y-82613903D01*
X173172466Y-82613903D02*
X172934371Y-82613903D01*
X179898180Y-85153901D02*
X179898180Y-84153901D01*
X179898180Y-84153901D02*
X180279132Y-84153901D01*
X180279132Y-84153901D02*
X180374370Y-84201520D01*
X180374370Y-84201520D02*
X180421989Y-84249139D01*
X180421989Y-84249139D02*
X180469608Y-84344377D01*
X180469608Y-84344377D02*
X180469608Y-84487234D01*
X180469608Y-84487234D02*
X180421989Y-84582472D01*
X180421989Y-84582472D02*
X180374370Y-84630091D01*
X180374370Y-84630091D02*
X180279132Y-84677710D01*
X180279132Y-84677710D02*
X179898180Y-84677710D01*
X180850561Y-84249139D02*
X180898180Y-84201520D01*
X180898180Y-84201520D02*
X180993418Y-84153901D01*
X180993418Y-84153901D02*
X181231513Y-84153901D01*
X181231513Y-84153901D02*
X181326751Y-84201520D01*
X181326751Y-84201520D02*
X181374370Y-84249139D01*
X181374370Y-84249139D02*
X181421989Y-84344377D01*
X181421989Y-84344377D02*
X181421989Y-84439615D01*
X181421989Y-84439615D02*
X181374370Y-84582472D01*
X181374370Y-84582472D02*
X180802942Y-85153901D01*
X180802942Y-85153901D02*
X181421989Y-85153901D01*
X182374370Y-85153901D02*
X181802942Y-85153901D01*
X182088656Y-85153901D02*
X182088656Y-84153901D01*
X182088656Y-84153901D02*
X181993418Y-84296758D01*
X181993418Y-84296758D02*
X181898180Y-84391996D01*
X181898180Y-84391996D02*
X181802942Y-84439615D01*
X179898180Y-95313901D02*
X179898180Y-94313901D01*
X179898180Y-94313901D02*
X180279132Y-94313901D01*
X180279132Y-94313901D02*
X180374370Y-94361520D01*
X180374370Y-94361520D02*
X180421989Y-94409139D01*
X180421989Y-94409139D02*
X180469608Y-94504377D01*
X180469608Y-94504377D02*
X180469608Y-94647234D01*
X180469608Y-94647234D02*
X180421989Y-94742472D01*
X180421989Y-94742472D02*
X180374370Y-94790091D01*
X180374370Y-94790091D02*
X180279132Y-94837710D01*
X180279132Y-94837710D02*
X179898180Y-94837710D01*
X181421989Y-95313901D02*
X180850561Y-95313901D01*
X181136275Y-95313901D02*
X181136275Y-94313901D01*
X181136275Y-94313901D02*
X181041037Y-94456758D01*
X181041037Y-94456758D02*
X180945799Y-94551996D01*
X180945799Y-94551996D02*
X180850561Y-94599615D01*
X182326751Y-94313901D02*
X181850561Y-94313901D01*
X181850561Y-94313901D02*
X181802942Y-94790091D01*
X181802942Y-94790091D02*
X181850561Y-94742472D01*
X181850561Y-94742472D02*
X181945799Y-94694853D01*
X181945799Y-94694853D02*
X182183894Y-94694853D01*
X182183894Y-94694853D02*
X182279132Y-94742472D01*
X182279132Y-94742472D02*
X182326751Y-94790091D01*
X182326751Y-94790091D02*
X182374370Y-94885329D01*
X182374370Y-94885329D02*
X182374370Y-95123424D01*
X182374370Y-95123424D02*
X182326751Y-95218662D01*
X182326751Y-95218662D02*
X182279132Y-95266282D01*
X182279132Y-95266282D02*
X182183894Y-95313901D01*
X182183894Y-95313901D02*
X181945799Y-95313901D01*
X181945799Y-95313901D02*
X181850561Y-95266282D01*
X181850561Y-95266282D02*
X181802942Y-95218662D01*
X171434371Y-95313901D02*
X171434371Y-94313901D01*
X171434371Y-94313901D02*
X171815323Y-94313901D01*
X171815323Y-94313901D02*
X171910561Y-94361520D01*
X171910561Y-94361520D02*
X171958180Y-94409139D01*
X171958180Y-94409139D02*
X172005799Y-94504377D01*
X172005799Y-94504377D02*
X172005799Y-94647234D01*
X172005799Y-94647234D02*
X171958180Y-94742472D01*
X171958180Y-94742472D02*
X171910561Y-94790091D01*
X171910561Y-94790091D02*
X171815323Y-94837710D01*
X171815323Y-94837710D02*
X171434371Y-94837710D01*
X172862942Y-94313901D02*
X172672466Y-94313901D01*
X172672466Y-94313901D02*
X172577228Y-94361520D01*
X172577228Y-94361520D02*
X172529609Y-94409139D01*
X172529609Y-94409139D02*
X172434371Y-94551996D01*
X172434371Y-94551996D02*
X172386752Y-94742472D01*
X172386752Y-94742472D02*
X172386752Y-95123424D01*
X172386752Y-95123424D02*
X172434371Y-95218662D01*
X172434371Y-95218662D02*
X172481990Y-95266282D01*
X172481990Y-95266282D02*
X172577228Y-95313901D01*
X172577228Y-95313901D02*
X172767704Y-95313901D01*
X172767704Y-95313901D02*
X172862942Y-95266282D01*
X172862942Y-95266282D02*
X172910561Y-95218662D01*
X172910561Y-95218662D02*
X172958180Y-95123424D01*
X172958180Y-95123424D02*
X172958180Y-94885329D01*
X172958180Y-94885329D02*
X172910561Y-94790091D01*
X172910561Y-94790091D02*
X172862942Y-94742472D01*
X172862942Y-94742472D02*
X172767704Y-94694853D01*
X172767704Y-94694853D02*
X172577228Y-94694853D01*
X172577228Y-94694853D02*
X172481990Y-94742472D01*
X172481990Y-94742472D02*
X172434371Y-94790091D01*
X172434371Y-94790091D02*
X172386752Y-94885329D01*
X179898181Y-100393901D02*
X179898181Y-99393901D01*
X179898181Y-99393901D02*
X180279133Y-99393901D01*
X180279133Y-99393901D02*
X180374371Y-99441520D01*
X180374371Y-99441520D02*
X180421990Y-99489139D01*
X180421990Y-99489139D02*
X180469609Y-99584377D01*
X180469609Y-99584377D02*
X180469609Y-99727234D01*
X180469609Y-99727234D02*
X180421990Y-99822472D01*
X180421990Y-99822472D02*
X180374371Y-99870091D01*
X180374371Y-99870091D02*
X180279133Y-99917710D01*
X180279133Y-99917710D02*
X179898181Y-99917710D01*
X181421990Y-100393901D02*
X180850562Y-100393901D01*
X181136276Y-100393901D02*
X181136276Y-99393901D01*
X181136276Y-99393901D02*
X181041038Y-99536758D01*
X181041038Y-99536758D02*
X180945800Y-99631996D01*
X180945800Y-99631996D02*
X180850562Y-99679615D01*
X182279133Y-99393901D02*
X182088657Y-99393901D01*
X182088657Y-99393901D02*
X181993419Y-99441520D01*
X181993419Y-99441520D02*
X181945800Y-99489139D01*
X181945800Y-99489139D02*
X181850562Y-99631996D01*
X181850562Y-99631996D02*
X181802943Y-99822472D01*
X181802943Y-99822472D02*
X181802943Y-100203424D01*
X181802943Y-100203424D02*
X181850562Y-100298662D01*
X181850562Y-100298662D02*
X181898181Y-100346282D01*
X181898181Y-100346282D02*
X181993419Y-100393901D01*
X181993419Y-100393901D02*
X182183895Y-100393901D01*
X182183895Y-100393901D02*
X182279133Y-100346282D01*
X182279133Y-100346282D02*
X182326752Y-100298662D01*
X182326752Y-100298662D02*
X182374371Y-100203424D01*
X182374371Y-100203424D02*
X182374371Y-99965329D01*
X182374371Y-99965329D02*
X182326752Y-99870091D01*
X182326752Y-99870091D02*
X182279133Y-99822472D01*
X182279133Y-99822472D02*
X182183895Y-99774853D01*
X182183895Y-99774853D02*
X181993419Y-99774853D01*
X181993419Y-99774853D02*
X181898181Y-99822472D01*
X181898181Y-99822472D02*
X181850562Y-99870091D01*
X181850562Y-99870091D02*
X181802943Y-99965329D01*
X179898180Y-90233901D02*
X179898180Y-89233901D01*
X179898180Y-89233901D02*
X180279132Y-89233901D01*
X180279132Y-89233901D02*
X180374370Y-89281520D01*
X180374370Y-89281520D02*
X180421989Y-89329139D01*
X180421989Y-89329139D02*
X180469608Y-89424377D01*
X180469608Y-89424377D02*
X180469608Y-89567234D01*
X180469608Y-89567234D02*
X180421989Y-89662472D01*
X180421989Y-89662472D02*
X180374370Y-89710091D01*
X180374370Y-89710091D02*
X180279132Y-89757710D01*
X180279132Y-89757710D02*
X179898180Y-89757710D01*
X181421989Y-90233901D02*
X180850561Y-90233901D01*
X181136275Y-90233901D02*
X181136275Y-89233901D01*
X181136275Y-89233901D02*
X181041037Y-89376758D01*
X181041037Y-89376758D02*
X180945799Y-89471996D01*
X180945799Y-89471996D02*
X180850561Y-89519615D01*
X181898180Y-90233901D02*
X182088656Y-90233901D01*
X182088656Y-90233901D02*
X182183894Y-90186282D01*
X182183894Y-90186282D02*
X182231513Y-90138662D01*
X182231513Y-90138662D02*
X182326751Y-89995805D01*
X182326751Y-89995805D02*
X182374370Y-89805329D01*
X182374370Y-89805329D02*
X182374370Y-89424377D01*
X182374370Y-89424377D02*
X182326751Y-89329139D01*
X182326751Y-89329139D02*
X182279132Y-89281520D01*
X182279132Y-89281520D02*
X182183894Y-89233901D01*
X182183894Y-89233901D02*
X181993418Y-89233901D01*
X181993418Y-89233901D02*
X181898180Y-89281520D01*
X181898180Y-89281520D02*
X181850561Y-89329139D01*
X181850561Y-89329139D02*
X181802942Y-89424377D01*
X181802942Y-89424377D02*
X181802942Y-89662472D01*
X181802942Y-89662472D02*
X181850561Y-89757710D01*
X181850561Y-89757710D02*
X181898180Y-89805329D01*
X181898180Y-89805329D02*
X181993418Y-89852948D01*
X181993418Y-89852948D02*
X182183894Y-89852948D01*
X182183894Y-89852948D02*
X182279132Y-89805329D01*
X182279132Y-89805329D02*
X182326751Y-89757710D01*
X182326751Y-89757710D02*
X182374370Y-89662472D01*
X180421990Y-74993901D02*
X180088657Y-74517710D01*
X179850562Y-74993901D02*
X179850562Y-73993901D01*
X179850562Y-73993901D02*
X180231514Y-73993901D01*
X180231514Y-73993901D02*
X180326752Y-74041520D01*
X180326752Y-74041520D02*
X180374371Y-74089139D01*
X180374371Y-74089139D02*
X180421990Y-74184377D01*
X180421990Y-74184377D02*
X180421990Y-74327234D01*
X180421990Y-74327234D02*
X180374371Y-74422472D01*
X180374371Y-74422472D02*
X180326752Y-74470091D01*
X180326752Y-74470091D02*
X180231514Y-74517710D01*
X180231514Y-74517710D02*
X179850562Y-74517710D01*
X180802943Y-74708186D02*
X181279133Y-74708186D01*
X180707705Y-74993901D02*
X181041038Y-73993901D01*
X181041038Y-73993901D02*
X181374371Y-74993901D01*
X181612467Y-73993901D02*
X181850562Y-74993901D01*
X181850562Y-74993901D02*
X182041038Y-74279615D01*
X182041038Y-74279615D02*
X182231514Y-74993901D01*
X182231514Y-74993901D02*
X182469610Y-73993901D01*
X179898180Y-102933901D02*
X179898180Y-101933901D01*
X179898180Y-101933901D02*
X180279132Y-101933901D01*
X180279132Y-101933901D02*
X180374370Y-101981520D01*
X180374370Y-101981520D02*
X180421989Y-102029139D01*
X180421989Y-102029139D02*
X180469608Y-102124377D01*
X180469608Y-102124377D02*
X180469608Y-102267234D01*
X180469608Y-102267234D02*
X180421989Y-102362472D01*
X180421989Y-102362472D02*
X180374370Y-102410091D01*
X180374370Y-102410091D02*
X180279132Y-102457710D01*
X180279132Y-102457710D02*
X179898180Y-102457710D01*
X181421989Y-102933901D02*
X180850561Y-102933901D01*
X181136275Y-102933901D02*
X181136275Y-101933901D01*
X181136275Y-101933901D02*
X181041037Y-102076758D01*
X181041037Y-102076758D02*
X180945799Y-102171996D01*
X180945799Y-102171996D02*
X180850561Y-102219615D01*
X182041037Y-101933901D02*
X182136275Y-101933901D01*
X182136275Y-101933901D02*
X182231513Y-101981520D01*
X182231513Y-101981520D02*
X182279132Y-102029139D01*
X182279132Y-102029139D02*
X182326751Y-102124377D01*
X182326751Y-102124377D02*
X182374370Y-102314853D01*
X182374370Y-102314853D02*
X182374370Y-102552948D01*
X182374370Y-102552948D02*
X182326751Y-102743424D01*
X182326751Y-102743424D02*
X182279132Y-102838662D01*
X182279132Y-102838662D02*
X182231513Y-102886282D01*
X182231513Y-102886282D02*
X182136275Y-102933901D01*
X182136275Y-102933901D02*
X182041037Y-102933901D01*
X182041037Y-102933901D02*
X181945799Y-102886282D01*
X181945799Y-102886282D02*
X181898180Y-102838662D01*
X181898180Y-102838662D02*
X181850561Y-102743424D01*
X181850561Y-102743424D02*
X181802942Y-102552948D01*
X181802942Y-102552948D02*
X181802942Y-102314853D01*
X181802942Y-102314853D02*
X181850561Y-102124377D01*
X181850561Y-102124377D02*
X181898180Y-102029139D01*
X181898180Y-102029139D02*
X181945799Y-101981520D01*
X181945799Y-101981520D02*
X182041037Y-101933901D01*
X171434371Y-87693901D02*
X171434371Y-86693901D01*
X171434371Y-86693901D02*
X171815323Y-86693901D01*
X171815323Y-86693901D02*
X171910561Y-86741520D01*
X171910561Y-86741520D02*
X171958180Y-86789139D01*
X171958180Y-86789139D02*
X172005799Y-86884377D01*
X172005799Y-86884377D02*
X172005799Y-87027234D01*
X172005799Y-87027234D02*
X171958180Y-87122472D01*
X171958180Y-87122472D02*
X171910561Y-87170091D01*
X171910561Y-87170091D02*
X171815323Y-87217710D01*
X171815323Y-87217710D02*
X171434371Y-87217710D01*
X172339133Y-86693901D02*
X172958180Y-86693901D01*
X172958180Y-86693901D02*
X172624847Y-87074853D01*
X172624847Y-87074853D02*
X172767704Y-87074853D01*
X172767704Y-87074853D02*
X172862942Y-87122472D01*
X172862942Y-87122472D02*
X172910561Y-87170091D01*
X172910561Y-87170091D02*
X172958180Y-87265329D01*
X172958180Y-87265329D02*
X172958180Y-87503424D01*
X172958180Y-87503424D02*
X172910561Y-87598662D01*
X172910561Y-87598662D02*
X172862942Y-87646282D01*
X172862942Y-87646282D02*
X172767704Y-87693901D01*
X172767704Y-87693901D02*
X172481990Y-87693901D01*
X172481990Y-87693901D02*
X172386752Y-87646282D01*
X172386752Y-87646282D02*
X172339133Y-87598662D01*
X179898180Y-92773899D02*
X179898180Y-91773899D01*
X179898180Y-91773899D02*
X180279132Y-91773899D01*
X180279132Y-91773899D02*
X180374370Y-91821518D01*
X180374370Y-91821518D02*
X180421989Y-91869137D01*
X180421989Y-91869137D02*
X180469608Y-91964375D01*
X180469608Y-91964375D02*
X180469608Y-92107232D01*
X180469608Y-92107232D02*
X180421989Y-92202470D01*
X180421989Y-92202470D02*
X180374370Y-92250089D01*
X180374370Y-92250089D02*
X180279132Y-92297708D01*
X180279132Y-92297708D02*
X179898180Y-92297708D01*
X181421989Y-92773899D02*
X180850561Y-92773899D01*
X181136275Y-92773899D02*
X181136275Y-91773899D01*
X181136275Y-91773899D02*
X181041037Y-91916756D01*
X181041037Y-91916756D02*
X180945799Y-92011994D01*
X180945799Y-92011994D02*
X180850561Y-92059613D01*
X181993418Y-92202470D02*
X181898180Y-92154851D01*
X181898180Y-92154851D02*
X181850561Y-92107232D01*
X181850561Y-92107232D02*
X181802942Y-92011994D01*
X181802942Y-92011994D02*
X181802942Y-91964375D01*
X181802942Y-91964375D02*
X181850561Y-91869137D01*
X181850561Y-91869137D02*
X181898180Y-91821518D01*
X181898180Y-91821518D02*
X181993418Y-91773899D01*
X181993418Y-91773899D02*
X182183894Y-91773899D01*
X182183894Y-91773899D02*
X182279132Y-91821518D01*
X182279132Y-91821518D02*
X182326751Y-91869137D01*
X182326751Y-91869137D02*
X182374370Y-91964375D01*
X182374370Y-91964375D02*
X182374370Y-92011994D01*
X182374370Y-92011994D02*
X182326751Y-92107232D01*
X182326751Y-92107232D02*
X182279132Y-92154851D01*
X182279132Y-92154851D02*
X182183894Y-92202470D01*
X182183894Y-92202470D02*
X181993418Y-92202470D01*
X181993418Y-92202470D02*
X181898180Y-92250089D01*
X181898180Y-92250089D02*
X181850561Y-92297708D01*
X181850561Y-92297708D02*
X181802942Y-92392946D01*
X181802942Y-92392946D02*
X181802942Y-92583422D01*
X181802942Y-92583422D02*
X181850561Y-92678660D01*
X181850561Y-92678660D02*
X181898180Y-92726280D01*
X181898180Y-92726280D02*
X181993418Y-92773899D01*
X181993418Y-92773899D02*
X182183894Y-92773899D01*
X182183894Y-92773899D02*
X182279132Y-92726280D01*
X182279132Y-92726280D02*
X182326751Y-92678660D01*
X182326751Y-92678660D02*
X182374370Y-92583422D01*
X182374370Y-92583422D02*
X182374370Y-92392946D01*
X182374370Y-92392946D02*
X182326751Y-92297708D01*
X182326751Y-92297708D02*
X182279132Y-92250089D01*
X182279132Y-92250089D02*
X182183894Y-92202470D01*
X171434371Y-92773899D02*
X171434371Y-91773899D01*
X171434371Y-91773899D02*
X171815323Y-91773899D01*
X171815323Y-91773899D02*
X171910561Y-91821518D01*
X171910561Y-91821518D02*
X171958180Y-91869137D01*
X171958180Y-91869137D02*
X172005799Y-91964375D01*
X172005799Y-91964375D02*
X172005799Y-92107232D01*
X172005799Y-92107232D02*
X171958180Y-92202470D01*
X171958180Y-92202470D02*
X171910561Y-92250089D01*
X171910561Y-92250089D02*
X171815323Y-92297708D01*
X171815323Y-92297708D02*
X171434371Y-92297708D01*
X172910561Y-91773899D02*
X172434371Y-91773899D01*
X172434371Y-91773899D02*
X172386752Y-92250089D01*
X172386752Y-92250089D02*
X172434371Y-92202470D01*
X172434371Y-92202470D02*
X172529609Y-92154851D01*
X172529609Y-92154851D02*
X172767704Y-92154851D01*
X172767704Y-92154851D02*
X172862942Y-92202470D01*
X172862942Y-92202470D02*
X172910561Y-92250089D01*
X172910561Y-92250089D02*
X172958180Y-92345327D01*
X172958180Y-92345327D02*
X172958180Y-92583422D01*
X172958180Y-92583422D02*
X172910561Y-92678660D01*
X172910561Y-92678660D02*
X172862942Y-92726280D01*
X172862942Y-92726280D02*
X172767704Y-92773899D01*
X172767704Y-92773899D02*
X172529609Y-92773899D01*
X172529609Y-92773899D02*
X172434371Y-92726280D01*
X172434371Y-92726280D02*
X172386752Y-92678660D01*
X171434371Y-102933901D02*
X171434371Y-101933901D01*
X171434371Y-101933901D02*
X171815323Y-101933901D01*
X171815323Y-101933901D02*
X171910561Y-101981520D01*
X171910561Y-101981520D02*
X171958180Y-102029139D01*
X171958180Y-102029139D02*
X172005799Y-102124377D01*
X172005799Y-102124377D02*
X172005799Y-102267234D01*
X172005799Y-102267234D02*
X171958180Y-102362472D01*
X171958180Y-102362472D02*
X171910561Y-102410091D01*
X171910561Y-102410091D02*
X171815323Y-102457710D01*
X171815323Y-102457710D02*
X171434371Y-102457710D01*
X172481990Y-102933901D02*
X172672466Y-102933901D01*
X172672466Y-102933901D02*
X172767704Y-102886282D01*
X172767704Y-102886282D02*
X172815323Y-102838662D01*
X172815323Y-102838662D02*
X172910561Y-102695805D01*
X172910561Y-102695805D02*
X172958180Y-102505329D01*
X172958180Y-102505329D02*
X172958180Y-102124377D01*
X172958180Y-102124377D02*
X172910561Y-102029139D01*
X172910561Y-102029139D02*
X172862942Y-101981520D01*
X172862942Y-101981520D02*
X172767704Y-101933901D01*
X172767704Y-101933901D02*
X172577228Y-101933901D01*
X172577228Y-101933901D02*
X172481990Y-101981520D01*
X172481990Y-101981520D02*
X172434371Y-102029139D01*
X172434371Y-102029139D02*
X172386752Y-102124377D01*
X172386752Y-102124377D02*
X172386752Y-102362472D01*
X172386752Y-102362472D02*
X172434371Y-102457710D01*
X172434371Y-102457710D02*
X172481990Y-102505329D01*
X172481990Y-102505329D02*
X172577228Y-102552948D01*
X172577228Y-102552948D02*
X172767704Y-102552948D01*
X172767704Y-102552948D02*
X172862942Y-102505329D01*
X172862942Y-102505329D02*
X172910561Y-102457710D01*
X172910561Y-102457710D02*
X172958180Y-102362472D01*
X171434370Y-100393901D02*
X171434370Y-99393901D01*
X171434370Y-99393901D02*
X171815322Y-99393901D01*
X171815322Y-99393901D02*
X171910560Y-99441520D01*
X171910560Y-99441520D02*
X171958179Y-99489139D01*
X171958179Y-99489139D02*
X172005798Y-99584377D01*
X172005798Y-99584377D02*
X172005798Y-99727234D01*
X172005798Y-99727234D02*
X171958179Y-99822472D01*
X171958179Y-99822472D02*
X171910560Y-99870091D01*
X171910560Y-99870091D02*
X171815322Y-99917710D01*
X171815322Y-99917710D02*
X171434370Y-99917710D01*
X172577227Y-99822472D02*
X172481989Y-99774853D01*
X172481989Y-99774853D02*
X172434370Y-99727234D01*
X172434370Y-99727234D02*
X172386751Y-99631996D01*
X172386751Y-99631996D02*
X172386751Y-99584377D01*
X172386751Y-99584377D02*
X172434370Y-99489139D01*
X172434370Y-99489139D02*
X172481989Y-99441520D01*
X172481989Y-99441520D02*
X172577227Y-99393901D01*
X172577227Y-99393901D02*
X172767703Y-99393901D01*
X172767703Y-99393901D02*
X172862941Y-99441520D01*
X172862941Y-99441520D02*
X172910560Y-99489139D01*
X172910560Y-99489139D02*
X172958179Y-99584377D01*
X172958179Y-99584377D02*
X172958179Y-99631996D01*
X172958179Y-99631996D02*
X172910560Y-99727234D01*
X172910560Y-99727234D02*
X172862941Y-99774853D01*
X172862941Y-99774853D02*
X172767703Y-99822472D01*
X172767703Y-99822472D02*
X172577227Y-99822472D01*
X172577227Y-99822472D02*
X172481989Y-99870091D01*
X172481989Y-99870091D02*
X172434370Y-99917710D01*
X172434370Y-99917710D02*
X172386751Y-100012948D01*
X172386751Y-100012948D02*
X172386751Y-100203424D01*
X172386751Y-100203424D02*
X172434370Y-100298662D01*
X172434370Y-100298662D02*
X172481989Y-100346282D01*
X172481989Y-100346282D02*
X172577227Y-100393901D01*
X172577227Y-100393901D02*
X172767703Y-100393901D01*
X172767703Y-100393901D02*
X172862941Y-100346282D01*
X172862941Y-100346282D02*
X172910560Y-100298662D01*
X172910560Y-100298662D02*
X172958179Y-100203424D01*
X172958179Y-100203424D02*
X172958179Y-100012948D01*
X172958179Y-100012948D02*
X172910560Y-99917710D01*
X172910560Y-99917710D02*
X172862941Y-99870091D01*
X172862941Y-99870091D02*
X172767703Y-99822472D01*
X171434371Y-97853901D02*
X171434371Y-96853901D01*
X171434371Y-96853901D02*
X171815323Y-96853901D01*
X171815323Y-96853901D02*
X171910561Y-96901520D01*
X171910561Y-96901520D02*
X171958180Y-96949139D01*
X171958180Y-96949139D02*
X172005799Y-97044377D01*
X172005799Y-97044377D02*
X172005799Y-97187234D01*
X172005799Y-97187234D02*
X171958180Y-97282472D01*
X171958180Y-97282472D02*
X171910561Y-97330091D01*
X171910561Y-97330091D02*
X171815323Y-97377710D01*
X171815323Y-97377710D02*
X171434371Y-97377710D01*
X172339133Y-96853901D02*
X173005799Y-96853901D01*
X173005799Y-96853901D02*
X172577228Y-97853901D01*
D13*
%TO.C,MCU1*%
X167692466Y-73209079D02*
X167692466Y-103809082D01*
X167692466Y-73209079D02*
X170352466Y-73209082D01*
X167692466Y-103809082D02*
X170352466Y-103809082D01*
X170352466Y-73209082D02*
X170352466Y-103809082D01*
X170352466Y-75809085D02*
X167692466Y-75809081D01*
X182932466Y-73209082D02*
X182932466Y-103809082D01*
X182932466Y-73209082D02*
X185592466Y-73209079D01*
X182932466Y-103809082D02*
X185592466Y-103809082D01*
X185592466Y-73209079D02*
X185592466Y-103809082D01*
%TD*%
M02*
