%TF.GenerationSoftware,KiCad,Pcbnew,9.0.6*%
%TF.CreationDate,2025-12-10T21:36:36-06:00*%
%TF.ProjectId,keyboard,6b657962-6f61-4726-942e-6b696361645f,v1.0.0*%
%TF.SameCoordinates,Original*%
%TF.FileFunction,Copper,L2,Bot*%
%TF.FilePolarity,Positive*%
%FSLAX46Y46*%
G04 Gerber Fmt 4.6, Leading zero omitted, Abs format (unit mm)*
G04 Created by KiCad (PCBNEW 9.0.6) date 2025-12-10 21:36:36*
%MOMM*%
%LPD*%
G01*
G04 APERTURE LIST*
G04 Aperture macros list*
%AMRotRect*
0 Rectangle, with rotation*
0 The origin of the aperture is its center*
0 $1 length*
0 $2 width*
0 $3 Rotation angle, in degrees counterclockwise*
0 Add horizontal line*
21,1,$1,$2,0,0,$3*%
G04 Aperture macros list end*
%TA.AperFunction,ComponentPad*%
%ADD10C,1.700000*%
%TD*%
%TA.AperFunction,ComponentPad*%
%ADD11C,2.032000*%
%TD*%
%TA.AperFunction,SMDPad,CuDef*%
%ADD12RotRect,0.900000X1.200000X335.000000*%
%TD*%
%TA.AperFunction,SMDPad,CuDef*%
%ADD13RotRect,0.900000X1.200000X25.000000*%
%TD*%
%TA.AperFunction,Conductor*%
%ADD14C,0.200000*%
%TD*%
G04 APERTURE END LIST*
D10*
%TO.P,MCU1,1*%
%TO.N,RAW*%
X184262465Y-74539080D03*
%TO.P,MCU1,2*%
%TO.N,GND*%
X184262466Y-77079082D03*
%TO.P,MCU1,3*%
%TO.N,RST*%
X184262466Y-79619082D03*
%TO.P,MCU1,4*%
%TO.N,VCC*%
X184262466Y-82159082D03*
%TO.P,MCU1,5*%
%TO.N,P21*%
X184262466Y-84699082D03*
%TO.P,MCU1,6*%
%TO.N,P20*%
X184262466Y-87239082D03*
%TO.P,MCU1,7*%
%TO.N,P19*%
X184262466Y-89779082D03*
%TO.P,MCU1,8*%
%TO.N,P18*%
X184262466Y-92319082D03*
%TO.P,MCU1,9*%
%TO.N,P15*%
X184262466Y-94859082D03*
%TO.P,MCU1,10*%
%TO.N,P14*%
X184262466Y-97399082D03*
%TO.P,MCU1,11*%
%TO.N,P16*%
X184262463Y-99939084D03*
%TO.P,MCU1,12*%
%TO.N,P10*%
X184262466Y-102479082D03*
%TO.P,MCU1,13*%
%TO.N,P9*%
X169022466Y-102479082D03*
%TO.P,MCU1,14*%
%TO.N,P8*%
X169022467Y-99939084D03*
%TO.P,MCU1,15*%
%TO.N,P7*%
X169022466Y-97399082D03*
%TO.P,MCU1,16*%
%TO.N,P6*%
X169022466Y-94859082D03*
%TO.P,MCU1,17*%
%TO.N,P5*%
X169022466Y-92319082D03*
%TO.P,MCU1,18*%
%TO.N,P4*%
X169022466Y-89779082D03*
%TO.P,MCU1,19*%
%TO.N,P3*%
X169022466Y-87239082D03*
%TO.P,MCU1,20*%
%TO.N,P2*%
X169022466Y-84699082D03*
%TO.P,MCU1,21*%
%TO.N,GND*%
X169022466Y-82159082D03*
%TO.P,MCU1,22*%
X169022466Y-79619082D03*
%TO.P,MCU1,23*%
%TO.N,P0*%
X169022466Y-77079082D03*
%TO.P,MCU1,24*%
%TO.N,P1*%
X169022469Y-74539080D03*
%TD*%
D11*
%TO.P,S27,1*%
%TO.N,mirror_index_home*%
X224129213Y-73993442D03*
%TO.P,S27,2*%
%TO.N,P18*%
X218710175Y-74203287D03*
%TD*%
%TO.P,S21,1*%
%TO.N,mirror_ring_home*%
X256756294Y-58779188D03*
%TO.P,S21,2*%
%TO.N,P20*%
X251337256Y-58989033D03*
%TD*%
D12*
%TO.P,D4,1*%
%TO.N,P8*%
X88661233Y-83577698D03*
%TO.P,D4,2*%
%TO.N,ring_bottom*%
X91652049Y-84972336D03*
%TD*%
D11*
%TO.P,S23,1*%
%TO.N,mirror_middle_bottom*%
X245471912Y-77171378D03*
%TO.P,S23,2*%
%TO.N,P19*%
X240052874Y-77381223D03*
%TD*%
D13*
%TO.P,D29,1*%
%TO.N,P8*%
X214129177Y-110875168D03*
%TO.P,D29,2*%
%TO.N,mirror_inner_bottom*%
X217119989Y-109480528D03*
%TD*%
D11*
%TO.P,S30,1*%
%TO.N,mirror_inner_home*%
X209252573Y-84682020D03*
%TO.P,S30,2*%
%TO.N,P15*%
X203833535Y-84891865D03*
%TD*%
D13*
%TO.P,D23,1*%
%TO.N,P8*%
X243164003Y-87957297D03*
%TO.P,D23,2*%
%TO.N,mirror_middle_bottom*%
X246154815Y-86562657D03*
%TD*%
D11*
%TO.P,S22,1*%
%TO.N,mirror_ring_top*%
X249571780Y-43371955D03*
%TO.P,S22,2*%
%TO.N,P20*%
X244152742Y-43581800D03*
%TD*%
D12*
%TO.P,D2,1*%
%TO.N,P7*%
X72347693Y-75970564D03*
%TO.P,D2,2*%
%TO.N,pinky_home*%
X75338509Y-77365202D03*
%TD*%
D13*
%TO.P,D26,1*%
%TO.N,P8*%
X229005815Y-100186593D03*
%TO.P,D26,2*%
%TO.N,mirror_index_bottom*%
X231996627Y-98791953D03*
%TD*%
D12*
%TO.P,D9,1*%
%TO.N,P6*%
X121499150Y-55748193D03*
%TO.P,D9,2*%
%TO.N,middle_top*%
X124489966Y-57142831D03*
%TD*%
D11*
%TO.P,S13,1*%
%TO.N,inner_bottom*%
X145910939Y-104315433D03*
%TO.P,S13,2*%
%TO.N,P4*%
X142266899Y-100299095D03*
%TD*%
%TO.P,S19,1*%
%TO.N,mirror_pinky_top*%
X273069829Y-51172057D03*
%TO.P,S19,2*%
%TO.N,P21*%
X267650791Y-51381902D03*
%TD*%
D13*
%TO.P,D18,1*%
%TO.N,P7*%
X277946440Y-77365206D03*
%TO.P,D18,2*%
%TO.N,mirror_pinky_home*%
X280937252Y-75970566D03*
%TD*%
%TO.P,D24,1*%
%TO.N,P7*%
X235979494Y-72550064D03*
%TO.P,D24,2*%
%TO.N,mirror_middle_home*%
X238970306Y-71155424D03*
%TD*%
D11*
%TO.P,S12,1*%
%TO.N,index_top*%
X145403325Y-62812393D03*
%TO.P,S12,2*%
%TO.N,P3*%
X141759285Y-58796055D03*
%TD*%
%TO.P,S20,1*%
%TO.N,mirror_ring_bottom*%
X263940802Y-74186418D03*
%TO.P,S20,2*%
%TO.N,P20*%
X258521764Y-74396263D03*
%TD*%
%TO.P,S14,1*%
%TO.N,inner_home*%
X153095451Y-88908200D03*
%TO.P,S14,2*%
%TO.N,P4*%
X149451411Y-84891862D03*
%TD*%
%TO.P,S2,1*%
%TO.N,pinky_home*%
X82093681Y-70805468D03*
%TO.P,S2,2*%
%TO.N,P1*%
X78449641Y-66789130D03*
%TD*%
%TO.P,S24,1*%
%TO.N,mirror_middle_home*%
X238287397Y-61764147D03*
%TO.P,S24,2*%
%TO.N,P19*%
X232868359Y-61973992D03*
%TD*%
%TO.P,S16,1*%
%TO.N,column_row*%
X146883202Y-123526231D03*
%TO.P,S16,2*%
%TO.N,P4*%
X143239162Y-119509893D03*
%TD*%
D13*
%TO.P,D32,1*%
%TO.N,P9*%
X213156913Y-130085965D03*
%TO.P,D32,2*%
%TO.N,mirror_column_row*%
X216147725Y-128691325D03*
%TD*%
D11*
%TO.P,S10,1*%
%TO.N,index_bottom*%
X131034300Y-93626858D03*
%TO.P,S10,2*%
%TO.N,P3*%
X127390260Y-89610520D03*
%TD*%
%TO.P,S8,1*%
%TO.N,middle_home*%
X124060627Y-65990325D03*
%TO.P,S8,2*%
%TO.N,P2*%
X120416587Y-61973987D03*
%TD*%
%TO.P,S11,1*%
%TO.N,index_home*%
X138218808Y-78219624D03*
%TO.P,S11,2*%
%TO.N,P3*%
X134574768Y-74203286D03*
%TD*%
D12*
%TO.P,D3,1*%
%TO.N,P6*%
X79532203Y-60563336D03*
%TO.P,D3,2*%
%TO.N,pinky_top*%
X82523019Y-61957974D03*
%TD*%
D13*
%TO.P,D19,1*%
%TO.N,P6*%
X270761926Y-61957975D03*
%TO.P,D19,2*%
%TO.N,mirror_pinky_top*%
X273752738Y-60563335D03*
%TD*%
D11*
%TO.P,S25,1*%
%TO.N,mirror_middle_top*%
X231102888Y-46356909D03*
%TO.P,S25,2*%
%TO.N,P19*%
X225683850Y-46566754D03*
%TD*%
%TO.P,S26,1*%
%TO.N,mirror_index_bottom*%
X231313726Y-89400677D03*
%TO.P,S26,2*%
%TO.N,P18*%
X225894688Y-89610522D03*
%TD*%
%TO.P,S18,1*%
%TO.N,mirror_pinky_home*%
X280254347Y-66579289D03*
%TO.P,S18,2*%
%TO.N,P21*%
X274835309Y-66789134D03*
%TD*%
D12*
%TO.P,D10,1*%
%TO.N,P8*%
X121288311Y-98791963D03*
%TO.P,D10,2*%
%TO.N,index_bottom*%
X124279127Y-100186601D03*
%TD*%
D13*
%TO.P,D27,1*%
%TO.N,P7*%
X221821302Y-84779363D03*
%TO.P,D27,2*%
%TO.N,mirror_index_home*%
X224812114Y-83384723D03*
%TD*%
D12*
%TO.P,D6,1*%
%TO.N,P6*%
X103030259Y-52763233D03*
%TO.P,D6,2*%
%TO.N,ring_top*%
X106021075Y-54157871D03*
%TD*%
%TO.P,D11,1*%
%TO.N,P7*%
X128472821Y-83384726D03*
%TO.P,D11,2*%
%TO.N,index_home*%
X131463637Y-84779364D03*
%TD*%
D11*
%TO.P,S1,1*%
%TO.N,pinky_bottom*%
X74909175Y-86212701D03*
%TO.P,S1,2*%
%TO.N,P1*%
X71265135Y-82196363D03*
%TD*%
D12*
%TO.P,D13,1*%
%TO.N,P8*%
X136164950Y-109480529D03*
%TO.P,D13,2*%
%TO.N,inner_bottom*%
X139155766Y-110875167D03*
%TD*%
D11*
%TO.P,S7,1*%
%TO.N,middle_bottom*%
X116876115Y-81397563D03*
%TO.P,S7,2*%
%TO.N,P2*%
X113232075Y-77381225D03*
%TD*%
%TO.P,S31,1*%
%TO.N,mirror_inner_top*%
X202068061Y-69274790D03*
%TO.P,S31,2*%
%TO.N,P15*%
X196649023Y-69484635D03*
%TD*%
D13*
%TO.P,D31,1*%
%TO.N,P6*%
X199760151Y-80060711D03*
%TO.P,D31,2*%
%TO.N,mirror_inner_top*%
X202750963Y-78666071D03*
%TD*%
D11*
%TO.P,S4,1*%
%TO.N,ring_bottom*%
X98407223Y-78412602D03*
%TO.P,S4,2*%
%TO.N,P0*%
X94763183Y-74396264D03*
%TD*%
D13*
%TO.P,D30,1*%
%TO.N,P7*%
X206944663Y-95467944D03*
%TO.P,D30,2*%
%TO.N,mirror_inner_home*%
X209935475Y-94073304D03*
%TD*%
D11*
%TO.P,S5,1*%
%TO.N,ring_home*%
X105591732Y-63005368D03*
%TO.P,S5,2*%
%TO.N,P0*%
X101947692Y-58989030D03*
%TD*%
D13*
%TO.P,D25,1*%
%TO.N,P6*%
X228794985Y-57142832D03*
%TO.P,D25,2*%
%TO.N,mirror_middle_top*%
X231785797Y-55748192D03*
%TD*%
D11*
%TO.P,S6,1*%
%TO.N,ring_top*%
X112776241Y-47598138D03*
%TO.P,S6,2*%
%TO.N,P0*%
X109132201Y-43581800D03*
%TD*%
%TO.P,S9,1*%
%TO.N,middle_top*%
X131245133Y-50583097D03*
%TO.P,S9,2*%
%TO.N,P2*%
X127601093Y-46566759D03*
%TD*%
D12*
%TO.P,D12,1*%
%TO.N,P6*%
X135657335Y-67977494D03*
%TO.P,D12,2*%
%TO.N,index_top*%
X138648151Y-69372132D03*
%TD*%
D13*
%TO.P,D17,1*%
%TO.N,P8*%
X285130947Y-92772440D03*
%TO.P,D17,2*%
%TO.N,mirror_pinky_bottom*%
X288121759Y-91377800D03*
%TD*%
D12*
%TO.P,D14,1*%
%TO.N,P7*%
X143349462Y-94073298D03*
%TO.P,D14,2*%
%TO.N,inner_home*%
X146340278Y-95467936D03*
%TD*%
D11*
%TO.P,S3,1*%
%TO.N,pinky_top*%
X89278192Y-55398238D03*
%TO.P,S3,2*%
%TO.N,P1*%
X85634152Y-51381900D03*
%TD*%
D12*
%TO.P,D5,1*%
%TO.N,P7*%
X95845742Y-68170468D03*
%TO.P,D5,2*%
%TO.N,ring_home*%
X98836558Y-69565106D03*
%TD*%
%TO.P,D15,1*%
%TO.N,P6*%
X150533972Y-78666066D03*
%TO.P,D15,2*%
%TO.N,inner_top*%
X153524788Y-80060704D03*
%TD*%
D11*
%TO.P,S15,1*%
%TO.N,inner_top*%
X160279958Y-73500970D03*
%TO.P,S15,2*%
%TO.N,P4*%
X156635918Y-69484632D03*
%TD*%
%TO.P,S32,1*%
%TO.N,mirror_column_row*%
X215464822Y-119300050D03*
%TO.P,S32,2*%
%TO.N,P15*%
X210045784Y-119509895D03*
%TD*%
%TO.P,S17,1*%
%TO.N,mirror_pinky_bottom*%
X287438851Y-81986519D03*
%TO.P,S17,2*%
%TO.N,P21*%
X282019813Y-82196364D03*
%TD*%
D12*
%TO.P,D1,1*%
%TO.N,P8*%
X65163186Y-91377798D03*
%TO.P,D1,2*%
%TO.N,pinky_bottom*%
X68154002Y-92772436D03*
%TD*%
%TO.P,D8,1*%
%TO.N,P7*%
X114314637Y-71155428D03*
%TO.P,D8,2*%
%TO.N,middle_home*%
X117305453Y-72550066D03*
%TD*%
D11*
%TO.P,S28,1*%
%TO.N,mirror_index_top*%
X216944695Y-58586210D03*
%TO.P,S28,2*%
%TO.N,P18*%
X211525657Y-58796055D03*
%TD*%
D13*
%TO.P,D20,1*%
%TO.N,P8*%
X261632893Y-84972336D03*
%TO.P,D20,2*%
%TO.N,mirror_ring_bottom*%
X264623705Y-83577696D03*
%TD*%
D11*
%TO.P,S29,1*%
%TO.N,mirror_inner_bottom*%
X216437078Y-100089251D03*
%TO.P,S29,2*%
%TO.N,P15*%
X211018040Y-100299096D03*
%TD*%
D13*
%TO.P,D28,1*%
%TO.N,P6*%
X214636799Y-69372135D03*
%TO.P,D28,2*%
%TO.N,mirror_index_top*%
X217627611Y-67977495D03*
%TD*%
D12*
%TO.P,D16,1*%
%TO.N,P9*%
X137137211Y-128691330D03*
%TO.P,D16,2*%
%TO.N,column_row*%
X140128027Y-130085968D03*
%TD*%
D13*
%TO.P,D22,1*%
%TO.N,P6*%
X247263874Y-54157868D03*
%TO.P,D22,2*%
%TO.N,mirror_ring_top*%
X250254686Y-52763228D03*
%TD*%
%TO.P,D21,1*%
%TO.N,P7*%
X254448386Y-69565109D03*
%TO.P,D21,2*%
%TO.N,mirror_ring_home*%
X257439198Y-68170469D03*
%TD*%
D12*
%TO.P,D7,1*%
%TO.N,P8*%
X107130124Y-86562660D03*
%TO.P,D7,2*%
%TO.N,middle_bottom*%
X110120940Y-87957298D03*
%TD*%
D14*
%TO.N,pinky_bottom*%
X68153999Y-92772440D02*
X68685937Y-92578831D01*
X70989208Y-87639453D02*
X74909170Y-86212705D01*
X68685937Y-92578831D02*
X70989208Y-87639453D01*
%TO.N,GND*%
X169022466Y-79619082D02*
X171562466Y-77079082D01*
X171562466Y-77079082D02*
X184262466Y-77079082D01*
X169022466Y-82159082D02*
X169022466Y-79619082D01*
%TO.N,pinky_home*%
X75870447Y-77171596D02*
X78173709Y-72232223D01*
X75338509Y-77365206D02*
X75870447Y-77171596D01*
X78173709Y-72232223D02*
X82093681Y-70805470D01*
%TO.N,pinky_top*%
X82523017Y-61957976D02*
X83055916Y-61764019D01*
X83055916Y-61764019D02*
X85359188Y-56824640D01*
X85359188Y-56824640D02*
X89278187Y-55398243D01*
%TO.N,ring_bottom*%
X94488220Y-79838999D02*
X98407218Y-78412599D01*
X92184950Y-84778380D02*
X94488220Y-79838999D01*
X91652051Y-84972339D02*
X92184950Y-84778380D01*
%TO.N,ring_home*%
X98836556Y-69565108D02*
X99369461Y-69371144D01*
X101672730Y-64431769D02*
X105591732Y-63005370D01*
X99369461Y-69371144D02*
X101672730Y-64431769D01*
%TO.N,ring_top*%
X106553969Y-53963914D02*
X108857240Y-49024535D01*
X108857240Y-49024535D02*
X112776234Y-47598136D01*
X106021067Y-54157876D02*
X106553969Y-53963914D01*
%TO.N,middle_bottom*%
X110120943Y-87957299D02*
X110652879Y-87763689D01*
X110652879Y-87763689D02*
X112956151Y-82824305D01*
X112956151Y-82824305D02*
X116876117Y-81397563D01*
%TO.N,middle_home*%
X120140656Y-67417081D02*
X124060620Y-65990327D01*
X117837386Y-72356451D02*
X120140656Y-67417081D01*
X117305452Y-72550059D02*
X117837386Y-72356451D01*
%TO.N,middle_top*%
X125022861Y-56948876D02*
X127326130Y-52009496D01*
X127326130Y-52009496D02*
X131245131Y-50583094D01*
X124489965Y-57142831D02*
X125022861Y-56948876D01*
%TO.N,index_bottom*%
X124812033Y-99992631D02*
X127115301Y-95053257D01*
X124279131Y-100186594D02*
X124812033Y-99992631D01*
X127115301Y-95053257D02*
X131034304Y-93626857D01*
%TO.N,index_home*%
X134298846Y-79646377D02*
X138218810Y-78219626D01*
X131463640Y-84779364D02*
X131995579Y-84585749D01*
X131995579Y-84585749D02*
X134298846Y-79646377D01*
%TO.N,index_top*%
X138648148Y-69372133D02*
X139180086Y-69178520D01*
X141483357Y-64239139D02*
X145403320Y-62812393D01*
X139180086Y-69178520D02*
X141483357Y-64239139D01*
%TO.N,inner_bottom*%
X139155769Y-110875167D02*
X139687705Y-110681559D01*
X139687705Y-110681559D02*
X141990978Y-105742183D01*
X141990978Y-105742183D02*
X145910939Y-104315434D01*
%TO.N,inner_home*%
X149176447Y-90334596D02*
X153095451Y-88908200D01*
X146873182Y-95273976D02*
X149176447Y-90334596D01*
X146340280Y-95467941D02*
X146873182Y-95273976D01*
%TO.N,inner_top*%
X154056725Y-79867099D02*
X156359996Y-74927721D01*
X153524790Y-80060709D02*
X154056725Y-79867099D01*
X156359996Y-74927721D02*
X160279961Y-73500967D01*
%TO.N,column_row*%
X140128025Y-130085967D02*
X140660927Y-129892008D01*
X140660927Y-129892008D02*
X142964195Y-124952633D01*
X142964195Y-124952633D02*
X146883193Y-123526231D01*
%TO.N,mirror_pinky_bottom*%
X288121759Y-91377799D02*
X288315719Y-90844900D01*
X286012448Y-85905528D02*
X287438853Y-81986523D01*
X288315719Y-90844900D02*
X286012448Y-85905528D01*
%TO.N,mirror_pinky_home*%
X280937249Y-75970566D02*
X281130861Y-75438626D01*
X278827596Y-70499252D02*
X280254342Y-66579284D01*
X281130861Y-75438626D02*
X278827596Y-70499252D01*
%TO.N,mirror_pinky_top*%
X273752737Y-60563335D02*
X273946350Y-60031398D01*
X273946350Y-60031398D02*
X271643081Y-55092025D01*
X271643081Y-55092025D02*
X273069834Y-51172062D01*
%TO.N,mirror_ring_bottom*%
X264817320Y-83045760D02*
X262514050Y-78106384D01*
X264623708Y-83577698D02*
X264817320Y-83045760D01*
X262514050Y-78106384D02*
X263940801Y-74186418D01*
%TO.N,mirror_ring_home*%
X255329895Y-62698189D02*
X256756295Y-58779187D01*
X257439201Y-68170468D02*
X257633156Y-67637562D01*
X257633156Y-67637562D02*
X255329895Y-62698189D01*
%TO.N,mirror_ring_top*%
X250254687Y-52763233D02*
X250448296Y-52231294D01*
X248145028Y-47291919D02*
X249571780Y-43371953D01*
X250448296Y-52231294D02*
X248145028Y-47291919D01*
%TO.N,mirror_middle_bottom*%
X246154815Y-86562656D02*
X246348772Y-86029753D01*
X246348772Y-86029753D02*
X244045507Y-81090384D01*
X244045507Y-81090384D02*
X245471910Y-77171378D01*
%TO.N,mirror_middle_home*%
X239163911Y-70623488D02*
X236860645Y-65684109D01*
X238970304Y-71155424D02*
X239163911Y-70623488D01*
X236860645Y-65684109D02*
X238287397Y-61764149D01*
%TO.N,mirror_middle_top*%
X231979756Y-55215289D02*
X229676485Y-50275912D01*
X231785794Y-55748194D02*
X231979756Y-55215289D01*
X229676485Y-50275912D02*
X231102887Y-46356917D01*
%TO.N,mirror_index_bottom*%
X229886972Y-93320642D02*
X231313722Y-89400674D01*
X231996626Y-98791955D02*
X232190236Y-98260015D01*
X232190236Y-98260015D02*
X229886972Y-93320642D01*
%TO.N,mirror_index_home*%
X225005731Y-82852788D02*
X222702458Y-77913411D01*
X222702458Y-77913411D02*
X224129208Y-73993440D01*
X224812119Y-83384729D02*
X225005731Y-82852788D01*
%TO.N,mirror_index_top*%
X215517944Y-62506176D02*
X216944694Y-58586212D01*
X217627604Y-67977490D02*
X217821218Y-67445553D01*
X217821218Y-67445553D02*
X215517944Y-62506176D01*
%TO.N,mirror_inner_bottom*%
X217119991Y-109480533D02*
X217313952Y-108947634D01*
X215010681Y-104008255D02*
X216437078Y-100089252D01*
X217313952Y-108947634D02*
X215010681Y-104008255D01*
%TO.N,mirror_inner_home*%
X209935480Y-94073302D02*
X210129439Y-93540400D01*
X207826171Y-88601021D02*
X209252568Y-84682018D01*
X210129439Y-93540400D02*
X207826171Y-88601021D01*
%TO.N,mirror_inner_top*%
X200641308Y-73194750D02*
X202068061Y-69274790D01*
X202750966Y-78666068D02*
X202944581Y-78134126D01*
X202944581Y-78134126D02*
X200641308Y-73194750D01*
%TO.N,mirror_column_row*%
X216341338Y-128159390D02*
X214038071Y-123220015D01*
X214038071Y-123220015D02*
X215464821Y-119300048D01*
X216147728Y-128691326D02*
X216341338Y-128159390D01*
%TO.N,P8*%
X107130124Y-86562661D02*
X107807772Y-88424481D01*
X285130947Y-92772441D02*
X284505689Y-93064003D01*
X261007642Y-85263899D02*
X255427482Y-83232884D01*
X215326538Y-111310973D02*
X218165384Y-109987203D01*
X255427482Y-83232884D02*
X244361365Y-88393102D01*
X136164948Y-109480531D02*
X138594549Y-111910133D01*
X214129181Y-110875172D02*
X215326538Y-111310973D01*
X65598982Y-92575156D02*
X68453855Y-93906413D01*
X218165384Y-109987203D02*
X220245736Y-104271486D01*
X233042022Y-99298621D02*
X235944648Y-91323738D01*
X99829626Y-83158378D02*
X107130124Y-86562661D01*
X261632893Y-84972331D02*
X261007642Y-85263899D01*
X220245736Y-104271486D02*
X229005815Y-100186594D01*
X235944648Y-91323738D02*
X243164000Y-87957295D01*
X68453855Y-93906413D02*
X74532635Y-91693914D01*
X269035632Y-82514528D02*
X262830253Y-85408141D01*
X244361365Y-88393102D02*
X243164000Y-87957295D01*
X107807772Y-88424481D02*
X119499143Y-93876260D01*
X121288314Y-98791960D02*
X122932855Y-103310305D01*
X138594549Y-111910133D02*
X157051418Y-111910132D01*
X278577209Y-90906213D02*
X275814648Y-84981886D01*
X74532635Y-91693914D02*
X77536269Y-85252599D01*
X157051418Y-111910132D02*
X169022467Y-99939085D01*
X91854750Y-86060999D02*
X99829626Y-83158378D01*
X229005815Y-100186594D02*
X230203177Y-100622400D01*
X65163182Y-91377802D02*
X65598982Y-92575156D01*
X262830253Y-85408141D02*
X261632893Y-84972331D01*
X230203177Y-100622400D02*
X233042022Y-99298621D01*
X88661233Y-83577698D02*
X89097033Y-84775053D01*
X179958554Y-110875170D02*
X214129178Y-110875169D01*
X119499143Y-93876260D02*
X121288314Y-98791960D01*
X77536269Y-85252599D02*
X85801645Y-82244250D01*
X122932855Y-103310305D02*
X136164949Y-109480530D01*
X284505689Y-93064003D02*
X278577209Y-90906213D01*
X89097033Y-84775053D02*
X91854750Y-86060999D01*
X275814648Y-84981886D02*
X269035632Y-82514528D01*
X169022467Y-99939085D02*
X179958554Y-110875170D01*
X85801645Y-82244250D02*
X88661233Y-83577698D01*
%TO.N,P7*%
X106339757Y-74058044D02*
X114314634Y-71155427D01*
X114314634Y-71155427D02*
X116781451Y-77932948D01*
X221821304Y-84779363D02*
X223018668Y-85215170D01*
X130117368Y-87903073D02*
X128472826Y-83384726D01*
X146675244Y-97399082D02*
X143349463Y-94073297D01*
X206944665Y-95467942D02*
X208142029Y-95903745D01*
X169022468Y-97399080D02*
X146675244Y-97399082D01*
X143349463Y-94073298D02*
X130117368Y-87903073D01*
X219740957Y-90495075D02*
X221821304Y-84779363D01*
X203862526Y-98550082D02*
X206944665Y-95467942D01*
X242757016Y-75016884D02*
X235979489Y-72550061D01*
X277946436Y-77365208D02*
X277321183Y-77656767D01*
X170173467Y-98550083D02*
X203862526Y-98550082D01*
X116781451Y-77932948D02*
X128472826Y-83384726D01*
X95845737Y-68170465D02*
X96281542Y-69367821D01*
X277321183Y-77656767D02*
X264904879Y-73137602D01*
X169022468Y-97399080D02*
X170173467Y-98550083D01*
X233076867Y-80524953D02*
X235979489Y-72550061D01*
X96281542Y-69367821D02*
X106339757Y-74058044D01*
X94175553Y-71752192D02*
X95845741Y-68170466D01*
X75638368Y-78499174D02*
X94175553Y-71752192D01*
X264903862Y-73135423D02*
X254731626Y-69433031D01*
X254448388Y-69565104D02*
X242757016Y-75016884D01*
X254731626Y-69433031D02*
X254448388Y-69565104D01*
X72347692Y-75970571D02*
X72783495Y-77167926D01*
X72783495Y-77167926D02*
X75638368Y-78499174D01*
X223018668Y-85215170D02*
X233076867Y-80524953D01*
X264904879Y-73137602D02*
X264903862Y-73135423D01*
X208142029Y-95903745D02*
X219740957Y-90495075D01*
%TO.N,P6*%
X101360069Y-56344958D02*
X82822876Y-63091946D01*
X257719353Y-57728187D02*
X247547112Y-54025795D01*
X169022469Y-94859080D02*
X170173467Y-93708080D01*
X247547112Y-54025795D02*
X247263871Y-54157872D01*
X103030252Y-52763236D02*
X101360069Y-56344958D01*
X113524270Y-58650814D02*
X103466058Y-53960590D01*
X79968003Y-61760693D02*
X79532198Y-60563340D01*
X121499147Y-55748195D02*
X113524270Y-58650814D01*
X103466058Y-53960590D02*
X103030252Y-52763236D01*
X170173467Y-93708080D02*
X186112781Y-93708082D01*
X216156717Y-69925340D02*
X225774962Y-65440281D01*
X199760155Y-80060708D02*
X200957518Y-80496512D01*
X270761926Y-61957978D02*
X270136670Y-62249537D01*
X212556449Y-75087842D02*
X214636796Y-69372132D01*
X225774962Y-65440281D02*
X228794978Y-57142833D01*
X214636796Y-69372132D02*
X216156717Y-69925340D01*
X169022469Y-94859080D02*
X166726988Y-94859083D01*
X257720375Y-57730381D02*
X257719353Y-57728187D01*
X135657333Y-67977492D02*
X123965965Y-62525719D01*
X200957518Y-80496512D02*
X212556449Y-75087842D01*
X150533971Y-78666066D02*
X137301876Y-72495842D01*
X247263871Y-54157872D02*
X235572503Y-59609650D01*
X186112781Y-93708082D02*
X199760151Y-80060711D01*
X166726988Y-94859083D02*
X150533972Y-78666065D01*
X235572503Y-59609650D02*
X228794978Y-57142833D01*
X82822876Y-63091946D02*
X79968003Y-61760693D01*
X123965965Y-62525719D02*
X121499147Y-55748195D01*
X137301876Y-72495842D02*
X135657333Y-67977492D01*
X270136670Y-62249537D02*
X257720375Y-57730381D01*
%TO.N,P9*%
X168904973Y-131120929D02*
X212121945Y-131120932D01*
X137137211Y-128691331D02*
X139566813Y-131120932D01*
X139566813Y-131120932D02*
X168904973Y-131120929D01*
X169022468Y-102479082D02*
X169022468Y-131003436D01*
X212121945Y-131120932D02*
X213156914Y-130085964D01*
X169022468Y-131003436D02*
X168904973Y-131120929D01*
%TD*%
M02*
