M48
; DRILL file {KiCad 9.0.6} date 2025-12-10T21:38:51-0600
; FORMAT={-:-/ absolute / metric / decimal}
; #@! TF.CreationDate,2025-12-10T21:38:51-06:00
; #@! TF.GenerationSoftware,Kicad,Pcbnew,9.0.6
; #@! TF.FileFunction,Plated,1,2,PTH
FMAT,2
METRIC
; #@! TA.AperFunction,Plated,PTH,ComponentDrill
T1C1.000
; #@! TA.AperFunction,Plated,PTH,ComponentDrill
T2C1.270
%
G90
G05
T1
X169.022Y-77.079
X169.022Y-79.619
X169.022Y-82.159
X169.022Y-84.699
X169.022Y-87.239
X169.022Y-89.779
X169.022Y-92.319
X169.022Y-94.859
X169.022Y-97.399
X169.022Y-102.479
X169.022Y-99.939
X169.022Y-74.539
X184.262Y-99.939
X184.262Y-74.539
X184.262Y-77.079
X184.262Y-79.619
X184.262Y-82.159
X184.262Y-84.699
X184.262Y-87.239
X184.262Y-89.779
X184.262Y-92.319
X184.262Y-94.859
X184.262Y-97.399
X184.262Y-102.479
T2
X71.265Y-82.196
X74.909Y-86.213
X78.45Y-66.789
X82.094Y-70.805
X85.634Y-51.382
X89.278Y-55.398
X94.763Y-74.396
X98.407Y-78.413
X101.948Y-58.989
X105.592Y-63.005
X109.132Y-43.582
X112.776Y-47.598
X113.232Y-77.381
X116.876Y-81.398
X120.417Y-61.974
X124.061Y-65.99
X127.39Y-89.611
X127.601Y-46.567
X131.034Y-93.627
X131.245Y-50.583
X134.575Y-74.203
X138.219Y-78.22
X141.759Y-58.796
X142.267Y-100.299
X143.239Y-119.51
X145.403Y-62.812
X145.911Y-104.315
X146.883Y-123.526
X149.451Y-84.892
X153.095Y-88.908
X156.636Y-69.485
X160.28Y-73.501
X196.649Y-69.485
X202.068Y-69.275
X203.834Y-84.892
X209.253Y-84.682
X210.046Y-119.51
X211.018Y-100.299
X211.526Y-58.796
X215.465Y-119.3
X216.437Y-100.089
X216.945Y-58.586
X218.71Y-74.203
X224.129Y-73.993
X225.684Y-46.567
X225.895Y-89.611
X231.103Y-46.357
X231.314Y-89.401
X232.868Y-61.974
X238.287Y-61.764
X240.053Y-77.381
X244.153Y-43.582
X245.472Y-77.171
X249.572Y-43.372
X251.337Y-58.989
X256.756Y-58.779
X258.522Y-74.396
X263.941Y-74.186
X267.651Y-51.382
X273.07Y-51.172
X274.835Y-66.789
X280.254Y-66.579
X282.02Y-82.196
X287.439Y-81.987
M30
