M48
; DRILL file {KiCad 9.0.6} date 2025-12-10T21:38:51-0600
; FORMAT={-:-/ absolute / metric / decimal}
; #@! TF.CreationDate,2025-12-10T21:38:51-06:00
; #@! TF.GenerationSoftware,Kicad,Pcbnew,9.0.6
; #@! TF.FileFunction,NonPlated,1,2,NPTH
FMAT,2
METRIC
; #@! TA.AperFunction,NonPlated,NPTH,ComponentDrill
T1C1.900
; #@! TA.AperFunction,NonPlated,NPTH,ComponentDrill
T2C3.400
%
G90
G05
T1
X63.787Y-85.219
X70.971Y-69.812
X73.756Y-89.868
X78.156Y-54.405
X80.941Y-74.461
X87.285Y-77.419
X88.125Y-59.054
X94.47Y-62.012
X97.254Y-82.068
X101.654Y-46.605
X104.439Y-66.661
X105.754Y-80.404
X111.623Y-51.253
X112.938Y-64.997
X115.723Y-85.053
X119.912Y-92.633
X120.123Y-49.59
X122.908Y-69.646
X127.097Y-77.226
X129.882Y-97.282
X130.092Y-54.238
X134.281Y-61.819
X134.789Y-103.322
X135.761Y-122.533
X137.066Y-81.875
X141.973Y-87.915
X144.251Y-66.468
X144.758Y-107.971
X145.73Y-127.182
X149.158Y-72.507
X151.943Y-92.563
X159.127Y-77.156
X194.158Y-77.156
X201.342Y-92.563
X204.127Y-72.507
X207.555Y-127.182
X208.527Y-107.971
X209.034Y-66.468
X211.312Y-87.915
X216.219Y-81.875
X217.524Y-122.533
X218.496Y-103.322
X219.004Y-61.819
X223.193Y-54.238
X223.403Y-97.282
X226.188Y-77.226
X230.377Y-69.646
X233.162Y-49.59
X233.373Y-92.633
X237.562Y-85.053
X240.347Y-64.997
X241.661Y-51.253
X247.531Y-80.404
X248.846Y-66.661
X251.631Y-46.605
X256.031Y-82.068
X258.815Y-62.012
X265.16Y-59.054
X266.0Y-77.419
X272.344Y-74.461
X275.129Y-54.405
X279.529Y-89.868
X282.313Y-69.812
X289.498Y-85.219
T2
X68.772Y-87.544
X75.956Y-72.136
X83.141Y-56.729
X92.27Y-79.743
X99.454Y-64.336
X106.639Y-48.929
X110.739Y-82.728
X117.923Y-67.321
X124.897Y-94.958
X125.108Y-51.914
X132.081Y-79.551
X139.266Y-64.143
X139.773Y-105.646
X140.746Y-124.857
X146.958Y-90.239
X154.142Y-74.832
X199.142Y-74.832
X206.327Y-90.239
X212.539Y-124.857
X213.511Y-105.646
X214.019Y-64.143
X221.204Y-79.551
X228.177Y-51.914
X228.388Y-94.958
X235.362Y-67.321
X242.546Y-82.728
X246.646Y-48.929
X253.831Y-64.336
X261.015Y-79.743
X270.144Y-56.729
X277.329Y-72.136
X284.513Y-87.544
M30
