%TF.GenerationSoftware,KiCad,Pcbnew,9.0.6*%
%TF.CreationDate,2025-12-10T21:36:36-06:00*%
%TF.ProjectId,keyboard,6b657962-6f61-4726-942e-6b696361645f,v1.0.0*%
%TF.SameCoordinates,Original*%
%TF.FileFunction,Profile,NP*%
%FSLAX46Y46*%
G04 Gerber Fmt 4.6, Leading zero omitted, Abs format (unit mm)*
G04 Created by KiCad (PCBNEW 9.0.6) date 2025-12-10 21:36:36*
%MOMM*%
%LPD*%
G01*
G04 APERTURE LIST*
%TA.AperFunction,Profile*%
%ADD10C,0.150000*%
%TD*%
G04 APERTURE END LIST*
D10*
X127709778Y-107854913D02*
X127118117Y-109123746D01*
X201955441Y-61934672D02*
G75*
G02*
X201471766Y-63263623I-906341J-422628D01*
G01*
X280371363Y-99957074D02*
G75*
G02*
X279042398Y-99473402I-422663J906274D01*
G01*
X151329502Y-61934668D02*
X151921169Y-60665840D01*
X215521966Y-48436544D02*
X216832084Y-51246095D01*
X94828657Y-50593834D02*
G75*
G02*
X93499706Y-51077576I-906357J422634D01*
G01*
X151437476Y-59336912D02*
G75*
G02*
X151921160Y-60665836I-422576J-906288D01*
G01*
X274286136Y-44315631D02*
X259785209Y-51077522D01*
X252905345Y-88380027D02*
G75*
G02*
X254234227Y-88863746I422555J-906373D01*
G01*
X207691948Y-137599524D02*
G75*
G02*
X207269335Y-137693227I-422648J906324D01*
G01*
X113551597Y-95625617D02*
X112241478Y-98435169D01*
X99050672Y-88863722D02*
G75*
G02*
X100379619Y-88379991I906328J-422578D01*
G01*
X241043461Y-98435174D02*
X239733346Y-95625617D01*
X225194566Y-128334543D02*
G75*
G02*
X224710888Y-129663498I-906266J-422657D01*
G01*
X119636826Y-39984173D02*
G75*
G02*
X120965728Y-39500527I906274J-422627D01*
G01*
X119636826Y-39984173D02*
X118326704Y-42793727D01*
X134429652Y-114739924D02*
X128090379Y-128334543D01*
X271374240Y-85395075D02*
G75*
G02*
X272703147Y-85878773I422560J-906425D01*
G01*
X256873315Y-92156971D02*
G75*
G02*
X255544364Y-91673290I-422615J906371D01*
G01*
X218855289Y-114739923D02*
G75*
G02*
X219338998Y-113411033I906211J422623D01*
G01*
X236287161Y-43277418D02*
G75*
G02*
X234958223Y-42793734I-422661J906218D01*
G01*
X232319193Y-39500487D02*
X216005653Y-47107614D01*
X226166825Y-109123745D02*
G75*
G02*
X225683161Y-110452722I-906325J-422655D01*
G01*
X127601805Y-110452669D02*
G75*
G02*
X127118151Y-109123762I422595J906269D01*
G01*
X146015609Y-137693212D02*
G75*
G02*
X145592988Y-137599535I-9J1000112D01*
G01*
X256873315Y-92156971D02*
X271374240Y-85395075D01*
X136452866Y-51246097D02*
X137762980Y-48436540D01*
X56600034Y-92349940D02*
G75*
G02*
X56116283Y-91020984I422566J906340D01*
G01*
X280371363Y-99957074D02*
X296684909Y-92349942D01*
X272703161Y-85878766D02*
X279042439Y-99473383D01*
X112725170Y-99764097D02*
G75*
G02*
X112241499Y-98435179I422630J906297D01*
G01*
X226058848Y-106525988D02*
X240559772Y-99764098D01*
X225194566Y-128334543D02*
X218855289Y-114739923D01*
X100379599Y-88380033D02*
X113067905Y-94296685D01*
X101167932Y-36999213D02*
X94828657Y-50593834D01*
X74242507Y-99473380D02*
X80581778Y-85878768D01*
X201471754Y-63263598D02*
X186265444Y-70354412D01*
X275615059Y-44799319D02*
X297168595Y-91021021D01*
X127226093Y-106525993D02*
G75*
G02*
X127709794Y-107854921I-422593J-906307D01*
G01*
X81910705Y-85395078D02*
X96411629Y-92156973D01*
X216832084Y-51246095D02*
G75*
G02*
X216348402Y-52575039I-906384J-422605D01*
G01*
X250788084Y-36515526D02*
X236287161Y-43277418D01*
X93499731Y-51077522D02*
X78998803Y-44315630D01*
X136936552Y-52575023D02*
G75*
G02*
X136452858Y-51246093I422648J906323D01*
G01*
X241043461Y-98435174D02*
G75*
G02*
X240559788Y-99764132I-906361J-422626D01*
G01*
X185842825Y-70448107D02*
X167442118Y-70448104D01*
X127601805Y-110452669D02*
X133945962Y-113410997D01*
X215521966Y-48436544D02*
G75*
G02*
X216005671Y-47107652I906434J422544D01*
G01*
X80581778Y-85878768D02*
G75*
G02*
X81910730Y-85395024I906322J-422532D01*
G01*
X101167932Y-36999213D02*
G75*
G02*
X102496873Y-36515479I906368J-422687D01*
G01*
X201363774Y-60665838D02*
G75*
G02*
X201847484Y-59336957I906426J422538D01*
G01*
X137279293Y-47107614D02*
G75*
G02*
X137763011Y-48436554I-422493J-906286D01*
G01*
X219338982Y-113410999D02*
X225683137Y-110452672D01*
X186265444Y-70354412D02*
G75*
G02*
X185842825Y-70448105I-422644J906412D01*
G01*
X74242507Y-99473380D02*
G75*
G02*
X72913593Y-99957041I-906307J422680D01*
G01*
X167442118Y-70448104D02*
G75*
G02*
X167019499Y-70354420I-18J1000004D01*
G01*
X239733346Y-95625617D02*
G75*
G02*
X240217046Y-94296717I906254J422617D01*
G01*
X216348392Y-52575018D02*
X201847462Y-59336911D01*
X116997777Y-43277418D02*
X102496851Y-36515527D01*
X254234273Y-88863724D02*
X255544385Y-91673280D01*
X56116353Y-91021017D02*
X77669881Y-44799322D01*
X113067905Y-94296685D02*
G75*
G02*
X113551607Y-95625622I-422605J-906315D01*
G01*
X250788084Y-36515526D02*
G75*
G02*
X252116992Y-36999222I422616J-906274D01*
G01*
X97740559Y-91673281D02*
G75*
G02*
X96411650Y-92156927I-906259J422581D01*
G01*
X234958231Y-42793730D02*
X233648122Y-39984179D01*
X201363774Y-60665838D02*
X201955441Y-61934672D01*
X128574064Y-129663470D02*
X145592992Y-137599527D01*
X137279293Y-47107614D02*
X120965747Y-39500486D01*
X207691948Y-137599524D02*
X224710874Y-129663468D01*
X146015609Y-137693212D02*
X207269335Y-137693218D01*
X128574064Y-129663470D02*
G75*
G02*
X128090352Y-128334531I422736J906370D01*
G01*
X118326704Y-42793727D02*
G75*
G02*
X116997802Y-43277364I-906304J422727D01*
G01*
X133945962Y-113410997D02*
G75*
G02*
X134429582Y-114739892I-422762J-906303D01*
G01*
X151813191Y-63263598D02*
G75*
G02*
X151329511Y-61934672I422609J906298D01*
G01*
X97740559Y-91673281D02*
X99050672Y-88863722D01*
X226166825Y-109123745D02*
X225575159Y-107854917D01*
X258456288Y-50593831D02*
X252117014Y-36999212D01*
X297168595Y-91021021D02*
G75*
G02*
X296684921Y-92349969I-906195J-422679D01*
G01*
X77669881Y-44799322D02*
G75*
G02*
X78998817Y-44315599I906319J-422578D01*
G01*
X112725170Y-99764097D02*
X127226093Y-106525993D01*
X274286136Y-44315631D02*
G75*
G02*
X275615022Y-44799336I422564J-906369D01*
G01*
X151437476Y-59336912D02*
X136936552Y-52575023D01*
X167019500Y-70354418D02*
X151813191Y-63263598D01*
X232319193Y-39500487D02*
G75*
G02*
X233648109Y-39984185I422607J-906313D01*
G01*
X56600034Y-92349940D02*
X72913578Y-99957073D01*
X225575159Y-107854917D02*
G75*
G02*
X226058864Y-106526021I906241J422617D01*
G01*
X240217033Y-94296690D02*
X252905345Y-88380027D01*
X259785209Y-51077522D02*
G75*
G02*
X258456288Y-50593831I-422609J906322D01*
G01*
M02*
