%TF.GenerationSoftware,KiCad,Pcbnew,9.0.6*%
%TF.CreationDate,2025-12-10T21:36:36-06:00*%
%TF.ProjectId,keyboard,6b657962-6f61-4726-942e-6b696361645f,v1.0.0*%
%TF.SameCoordinates,Original*%
%TF.FileFunction,Legend,Bot*%
%TF.FilePolarity,Positive*%
%FSLAX46Y46*%
G04 Gerber Fmt 4.6, Leading zero omitted, Abs format (unit mm)*
G04 Created by KiCad (PCBNEW 9.0.6) date 2025-12-10 21:36:36*
%MOMM*%
%LPD*%
G01*
G04 APERTURE LIST*
%ADD10C,0.100000*%
G04 APERTURE END LIST*
D10*
%TO.C,D4*%
X89476910Y-83958053D02*
X89839433Y-84127101D01*
X89839433Y-84127101D02*
X89606994Y-84625570D01*
X89839433Y-84127101D02*
X90071873Y-83628631D01*
X89839433Y-84127101D02*
X90552265Y-84018148D01*
X90214171Y-84743195D02*
X89839433Y-84127101D01*
X90383219Y-84380674D02*
X90836372Y-84591981D01*
X90552265Y-84018148D02*
X90214171Y-84743195D01*
%TO.C,D29*%
X214944852Y-110494812D02*
X215307375Y-110325764D01*
X215307375Y-110325764D02*
X215074936Y-109827295D01*
X215307375Y-110325764D02*
X215539815Y-110824234D01*
X215307375Y-110325764D02*
X215682113Y-109709670D01*
X215682113Y-109709670D02*
X216020207Y-110434717D01*
X215851161Y-110072191D02*
X216304314Y-109860884D01*
X216020207Y-110434717D02*
X215307375Y-110325764D01*
%TO.C,D23*%
X243979678Y-87576941D02*
X244342201Y-87407893D01*
X244342201Y-87407893D02*
X244109762Y-86909424D01*
X244342201Y-87407893D02*
X244574641Y-87906363D01*
X244342201Y-87407893D02*
X244716939Y-86791799D01*
X244716939Y-86791799D02*
X245055033Y-87516846D01*
X244885987Y-87154320D02*
X245339140Y-86943013D01*
X245055033Y-87516846D02*
X244342201Y-87407893D01*
%TO.C,D2*%
X73163370Y-76350919D02*
X73525893Y-76519967D01*
X73525893Y-76519967D02*
X73293454Y-77018436D01*
X73525893Y-76519967D02*
X73758333Y-76021497D01*
X73525893Y-76519967D02*
X74238725Y-76411014D01*
X73900631Y-77136061D02*
X73525893Y-76519967D01*
X74069679Y-76773540D02*
X74522832Y-76984847D01*
X74238725Y-76411014D02*
X73900631Y-77136061D01*
%TO.C,D26*%
X229821490Y-99806237D02*
X230184013Y-99637189D01*
X230184013Y-99637189D02*
X229951574Y-99138720D01*
X230184013Y-99637189D02*
X230416453Y-100135659D01*
X230184013Y-99637189D02*
X230558751Y-99021095D01*
X230558751Y-99021095D02*
X230896845Y-99746142D01*
X230727799Y-99383616D02*
X231180952Y-99172309D01*
X230896845Y-99746142D02*
X230184013Y-99637189D01*
%TO.C,D9*%
X122314827Y-56128548D02*
X122677350Y-56297596D01*
X122677350Y-56297596D02*
X122444911Y-56796065D01*
X122677350Y-56297596D02*
X122909790Y-55799126D01*
X122677350Y-56297596D02*
X123390182Y-56188643D01*
X123052088Y-56913690D02*
X122677350Y-56297596D01*
X123221136Y-56551169D02*
X123674289Y-56762476D01*
X123390182Y-56188643D02*
X123052088Y-56913690D01*
%TO.C,D18*%
X278762115Y-76984850D02*
X279124638Y-76815802D01*
X279124638Y-76815802D02*
X278892199Y-76317333D01*
X279124638Y-76815802D02*
X279357078Y-77314272D01*
X279124638Y-76815802D02*
X279499376Y-76199708D01*
X279499376Y-76199708D02*
X279837470Y-76924755D01*
X279668424Y-76562229D02*
X280121577Y-76350922D01*
X279837470Y-76924755D02*
X279124638Y-76815802D01*
%TO.C,D24*%
X236795169Y-72169708D02*
X237157692Y-72000660D01*
X237157692Y-72000660D02*
X236925253Y-71502191D01*
X237157692Y-72000660D02*
X237390132Y-72499130D01*
X237157692Y-72000660D02*
X237532430Y-71384566D01*
X237532430Y-71384566D02*
X237870524Y-72109613D01*
X237701478Y-71747087D02*
X238154631Y-71535780D01*
X237870524Y-72109613D02*
X237157692Y-72000660D01*
%TO.C,D32*%
X213972588Y-129705609D02*
X214335111Y-129536561D01*
X214335111Y-129536561D02*
X214102672Y-129038092D01*
X214335111Y-129536561D02*
X214567551Y-130035031D01*
X214335111Y-129536561D02*
X214709849Y-128920467D01*
X214709849Y-128920467D02*
X215047943Y-129645514D01*
X214878897Y-129282988D02*
X215332050Y-129071681D01*
X215047943Y-129645514D02*
X214335111Y-129536561D01*
%TO.C,D3*%
X80347880Y-60943691D02*
X80710403Y-61112739D01*
X80710403Y-61112739D02*
X80477964Y-61611208D01*
X80710403Y-61112739D02*
X80942843Y-60614269D01*
X80710403Y-61112739D02*
X81423235Y-61003786D01*
X81085141Y-61728833D02*
X80710403Y-61112739D01*
X81254189Y-61366312D02*
X81707342Y-61577619D01*
X81423235Y-61003786D02*
X81085141Y-61728833D01*
%TO.C,D19*%
X271577601Y-61577619D02*
X271940124Y-61408571D01*
X271940124Y-61408571D02*
X271707685Y-60910102D01*
X271940124Y-61408571D02*
X272172564Y-61907041D01*
X271940124Y-61408571D02*
X272314862Y-60792477D01*
X272314862Y-60792477D02*
X272652956Y-61517524D01*
X272483910Y-61154998D02*
X272937063Y-60943691D01*
X272652956Y-61517524D02*
X271940124Y-61408571D01*
%TO.C,D10*%
X122103988Y-99172318D02*
X122466511Y-99341366D01*
X122466511Y-99341366D02*
X122234072Y-99839835D01*
X122466511Y-99341366D02*
X122698951Y-98842896D01*
X122466511Y-99341366D02*
X123179343Y-99232413D01*
X122841249Y-99957460D02*
X122466511Y-99341366D01*
X123010297Y-99594939D02*
X123463450Y-99806246D01*
X123179343Y-99232413D02*
X122841249Y-99957460D01*
%TO.C,D27*%
X222636977Y-84399007D02*
X222999500Y-84229959D01*
X222999500Y-84229959D02*
X222767061Y-83731490D01*
X222999500Y-84229959D02*
X223231940Y-84728429D01*
X222999500Y-84229959D02*
X223374238Y-83613865D01*
X223374238Y-83613865D02*
X223712332Y-84338912D01*
X223543286Y-83976386D02*
X223996439Y-83765079D01*
X223712332Y-84338912D02*
X222999500Y-84229959D01*
%TO.C,D6*%
X103845936Y-53143588D02*
X104208459Y-53312636D01*
X104208459Y-53312636D02*
X103976020Y-53811105D01*
X104208459Y-53312636D02*
X104440899Y-52814166D01*
X104208459Y-53312636D02*
X104921291Y-53203683D01*
X104583197Y-53928730D02*
X104208459Y-53312636D01*
X104752245Y-53566209D02*
X105205398Y-53777516D01*
X104921291Y-53203683D02*
X104583197Y-53928730D01*
%TO.C,D11*%
X129288498Y-83765081D02*
X129651021Y-83934129D01*
X129651021Y-83934129D02*
X129418582Y-84432598D01*
X129651021Y-83934129D02*
X129883461Y-83435659D01*
X129651021Y-83934129D02*
X130363853Y-83825176D01*
X130025759Y-84550223D02*
X129651021Y-83934129D01*
X130194807Y-84187702D02*
X130647960Y-84399009D01*
X130363853Y-83825176D02*
X130025759Y-84550223D01*
%TO.C,D13*%
X136980627Y-109860884D02*
X137343150Y-110029932D01*
X137343150Y-110029932D02*
X137110711Y-110528401D01*
X137343150Y-110029932D02*
X137575590Y-109531462D01*
X137343150Y-110029932D02*
X138055982Y-109920979D01*
X137717888Y-110646026D02*
X137343150Y-110029932D01*
X137886936Y-110283505D02*
X138340089Y-110494812D01*
X138055982Y-109920979D02*
X137717888Y-110646026D01*
%TO.C,D31*%
X200575826Y-79680355D02*
X200938349Y-79511307D01*
X200938349Y-79511307D02*
X200705910Y-79012838D01*
X200938349Y-79511307D02*
X201170789Y-80009777D01*
X200938349Y-79511307D02*
X201313087Y-78895213D01*
X201313087Y-78895213D02*
X201651181Y-79620260D01*
X201482135Y-79257734D02*
X201935288Y-79046427D01*
X201651181Y-79620260D02*
X200938349Y-79511307D01*
%TO.C,D30*%
X207760338Y-95087588D02*
X208122861Y-94918540D01*
X208122861Y-94918540D02*
X207890422Y-94420071D01*
X208122861Y-94918540D02*
X208355301Y-95417010D01*
X208122861Y-94918540D02*
X208497599Y-94302446D01*
X208497599Y-94302446D02*
X208835693Y-95027493D01*
X208666647Y-94664967D02*
X209119800Y-94453660D01*
X208835693Y-95027493D02*
X208122861Y-94918540D01*
%TO.C,D25*%
X229610660Y-56762476D02*
X229973183Y-56593428D01*
X229973183Y-56593428D02*
X229740744Y-56094959D01*
X229973183Y-56593428D02*
X230205623Y-57091898D01*
X229973183Y-56593428D02*
X230347921Y-55977334D01*
X230347921Y-55977334D02*
X230686015Y-56702381D01*
X230516969Y-56339855D02*
X230970122Y-56128548D01*
X230686015Y-56702381D02*
X229973183Y-56593428D01*
%TO.C,D12*%
X136473012Y-68357849D02*
X136835535Y-68526897D01*
X136835535Y-68526897D02*
X136603096Y-69025366D01*
X136835535Y-68526897D02*
X137067975Y-68028427D01*
X136835535Y-68526897D02*
X137548367Y-68417944D01*
X137210273Y-69142991D02*
X136835535Y-68526897D01*
X137379321Y-68780470D02*
X137832474Y-68991777D01*
X137548367Y-68417944D02*
X137210273Y-69142991D01*
%TO.C,D17*%
X285946622Y-92392084D02*
X286309145Y-92223036D01*
X286309145Y-92223036D02*
X286076706Y-91724567D01*
X286309145Y-92223036D02*
X286541585Y-92721506D01*
X286309145Y-92223036D02*
X286683883Y-91606942D01*
X286683883Y-91606942D02*
X287021977Y-92331989D01*
X286852931Y-91969463D02*
X287306084Y-91758156D01*
X287021977Y-92331989D02*
X286309145Y-92223036D01*
%TO.C,D14*%
X144165139Y-94453653D02*
X144527662Y-94622701D01*
X144527662Y-94622701D02*
X144295223Y-95121170D01*
X144527662Y-94622701D02*
X144760102Y-94124231D01*
X144527662Y-94622701D02*
X145240494Y-94513748D01*
X144902400Y-95238795D02*
X144527662Y-94622701D01*
X145071448Y-94876274D02*
X145524601Y-95087581D01*
X145240494Y-94513748D02*
X144902400Y-95238795D01*
%TO.C,D5*%
X96661419Y-68550823D02*
X97023942Y-68719871D01*
X97023942Y-68719871D02*
X96791503Y-69218340D01*
X97023942Y-68719871D02*
X97256382Y-68221401D01*
X97023942Y-68719871D02*
X97736774Y-68610918D01*
X97398680Y-69335965D02*
X97023942Y-68719871D01*
X97567728Y-68973444D02*
X98020881Y-69184751D01*
X97736774Y-68610918D02*
X97398680Y-69335965D01*
%TO.C,D15*%
X151349649Y-79046421D02*
X151712172Y-79215469D01*
X151712172Y-79215469D02*
X151479733Y-79713938D01*
X151712172Y-79215469D02*
X151944612Y-78716999D01*
X151712172Y-79215469D02*
X152425004Y-79106516D01*
X152086910Y-79831563D02*
X151712172Y-79215469D01*
X152255958Y-79469042D02*
X152709111Y-79680349D01*
X152425004Y-79106516D02*
X152086910Y-79831563D01*
%TO.C,D1*%
X65978863Y-91758153D02*
X66341386Y-91927201D01*
X66341386Y-91927201D02*
X66108947Y-92425670D01*
X66341386Y-91927201D02*
X66573826Y-91428731D01*
X66341386Y-91927201D02*
X67054218Y-91818248D01*
X66716124Y-92543295D02*
X66341386Y-91927201D01*
X66885172Y-92180774D02*
X67338325Y-92392081D01*
X67054218Y-91818248D02*
X66716124Y-92543295D01*
%TO.C,D8*%
X115130314Y-71535783D02*
X115492837Y-71704831D01*
X115492837Y-71704831D02*
X115260398Y-72203300D01*
X115492837Y-71704831D02*
X115725277Y-71206361D01*
X115492837Y-71704831D02*
X116205669Y-71595878D01*
X115867575Y-72320925D02*
X115492837Y-71704831D01*
X116036623Y-71958404D02*
X116489776Y-72169711D01*
X116205669Y-71595878D02*
X115867575Y-72320925D01*
%TO.C,D20*%
X262448568Y-84591980D02*
X262811091Y-84422932D01*
X262811091Y-84422932D02*
X262578652Y-83924463D01*
X262811091Y-84422932D02*
X263043531Y-84921402D01*
X262811091Y-84422932D02*
X263185829Y-83806838D01*
X263185829Y-83806838D02*
X263523923Y-84531885D01*
X263354877Y-84169359D02*
X263808030Y-83958052D01*
X263523923Y-84531885D02*
X262811091Y-84422932D01*
%TO.C,D28*%
X215452474Y-68991779D02*
X215814997Y-68822731D01*
X215814997Y-68822731D02*
X215582558Y-68324262D01*
X215814997Y-68822731D02*
X216047437Y-69321201D01*
X215814997Y-68822731D02*
X216189735Y-68206637D01*
X216189735Y-68206637D02*
X216527829Y-68931684D01*
X216358783Y-68569158D02*
X216811936Y-68357851D01*
X216527829Y-68931684D02*
X215814997Y-68822731D01*
%TO.C,D16*%
X137952888Y-129071685D02*
X138315411Y-129240733D01*
X138315411Y-129240733D02*
X138082972Y-129739202D01*
X138315411Y-129240733D02*
X138547851Y-128742263D01*
X138315411Y-129240733D02*
X139028243Y-129131780D01*
X138690149Y-129856827D02*
X138315411Y-129240733D01*
X138859197Y-129494306D02*
X139312350Y-129705613D01*
X139028243Y-129131780D02*
X138690149Y-129856827D01*
%TO.C,D22*%
X248079549Y-53777512D02*
X248442072Y-53608464D01*
X248442072Y-53608464D02*
X248209633Y-53109995D01*
X248442072Y-53608464D02*
X248674512Y-54106934D01*
X248442072Y-53608464D02*
X248816810Y-52992370D01*
X248816810Y-52992370D02*
X249154904Y-53717417D01*
X248985858Y-53354891D02*
X249439011Y-53143584D01*
X249154904Y-53717417D02*
X248442072Y-53608464D01*
%TO.C,D21*%
X255264061Y-69184753D02*
X255626584Y-69015705D01*
X255626584Y-69015705D02*
X255394145Y-68517236D01*
X255626584Y-69015705D02*
X255859024Y-69514175D01*
X255626584Y-69015705D02*
X256001322Y-68399611D01*
X256001322Y-68399611D02*
X256339416Y-69124658D01*
X256170370Y-68762132D02*
X256623523Y-68550825D01*
X256339416Y-69124658D02*
X255626584Y-69015705D01*
%TO.C,D7*%
X107945801Y-86943015D02*
X108308324Y-87112063D01*
X108308324Y-87112063D02*
X108075885Y-87610532D01*
X108308324Y-87112063D02*
X108540764Y-86613593D01*
X108308324Y-87112063D02*
X109021156Y-87003110D01*
X108683062Y-87728157D02*
X108308324Y-87112063D01*
X108852110Y-87365636D02*
X109305263Y-87576943D01*
X109021156Y-87003110D02*
X108683062Y-87728157D01*
%TD*%
M02*
