%TF.GenerationSoftware,KiCad,Pcbnew,9.0.6*%
%TF.CreationDate,2025-12-10T21:38:51-06:00*%
%TF.ProjectId,keyboard,6b657962-6f61-4726-942e-6b696361645f,v1.0.0*%
%TF.SameCoordinates,Original*%
%TF.FileFunction,Drillmap*%
%TF.FilePolarity,Positive*%
%FSLAX45Y45*%
G04 Gerber Fmt 4.5, Leading zero omitted, Abs format (unit mm)*
G04 Created by KiCad (PCBNEW 9.0.6) date 2025-12-10 21:38:51*
%MOMM*%
%LPD*%
G01*
G04 APERTURE LIST*
%ADD10C,0.150000*%
%ADD11C,0.200000*%
%ADD12C,0.100000*%
%ADD13C,0.127000*%
G04 APERTURE END LIST*
D10*
X12770978Y-10785491D02*
X12711812Y-10912375D01*
X20195544Y-6193467D02*
G75*
G02*
X20147177Y-6326362I-90634J-42263D01*
G01*
X28037136Y-9995707D02*
G75*
G02*
X27904240Y-9947340I-42266J90627D01*
G01*
X15132950Y-6193467D02*
X15192117Y-6066584D01*
X21552197Y-4843654D02*
X21683208Y-5124610D01*
X9482866Y-5059383D02*
G75*
G02*
X9349971Y-5107758I-90636J42263D01*
G01*
X15143748Y-5933691D02*
G75*
G02*
X15192116Y-6066584I-42258J-90629D01*
G01*
X27428614Y-4431563D02*
X25978521Y-5107752D01*
X25290534Y-8838003D02*
G75*
G02*
X25423423Y-8886375I42256J-90637D01*
G01*
X20769195Y-13759952D02*
G75*
G02*
X20726934Y-13769323I-42265J90632D01*
G01*
X11355160Y-9562562D02*
X11224148Y-9843517D01*
X9905067Y-8886372D02*
G75*
G02*
X10037962Y-8837999I90633J-42258D01*
G01*
X24104346Y-9843517D02*
X23973335Y-9562562D01*
X22519457Y-12833454D02*
G75*
G02*
X22471089Y-12966350I-90627J-42266D01*
G01*
X11963683Y-3998417D02*
G75*
G02*
X12096573Y-3950053I90627J-42263D01*
G01*
X11963683Y-3998417D02*
X11832670Y-4279373D01*
X13442965Y-11473992D02*
X12809038Y-12833454D01*
X27137424Y-8539508D02*
G75*
G02*
X27270315Y-8587877I42256J-90643D01*
G01*
X25687331Y-9215697D02*
G75*
G02*
X25554436Y-9167329I-42262J90637D01*
G01*
X21885529Y-11473992D02*
G75*
G02*
X21933900Y-11341103I90621J42262D01*
G01*
X23628716Y-4327742D02*
G75*
G02*
X23495822Y-4279373I-42266J90622D01*
G01*
X23231919Y-3950049D02*
X21600565Y-4710761D01*
X22616682Y-10912375D02*
G75*
G02*
X22568316Y-11045272I-90633J-42266D01*
G01*
X12760180Y-11045267D02*
G75*
G02*
X12711815Y-10912376I42260J90627D01*
G01*
X14601561Y-13769321D02*
G75*
G02*
X14559299Y-13759953I-1J100011D01*
G01*
X25687331Y-9215697D02*
X27137424Y-8539508D01*
X13645287Y-5124610D02*
X13776298Y-4843654D01*
X5660003Y-9234994D02*
G75*
G02*
X5611628Y-9102098I42257J90634D01*
G01*
X28037136Y-9995707D02*
X29668491Y-9234994D01*
X27270316Y-8587877D02*
X27904244Y-9947338D01*
X11272517Y-9976410D02*
G75*
G02*
X11224150Y-9843518I42263J90630D01*
G01*
X22605885Y-10652599D02*
X24055977Y-9976410D01*
X22519457Y-12833454D02*
X21885529Y-11473992D01*
X10037960Y-8838003D02*
X11306790Y-9429669D01*
X10116793Y-3699921D02*
X9482866Y-5059383D01*
X7424251Y-9947338D02*
X8058178Y-8587877D01*
X20147175Y-6326360D02*
X18626544Y-7035441D01*
X27561506Y-4479932D02*
X29716859Y-9102102D01*
X12722609Y-10652599D02*
G75*
G02*
X12770979Y-10785492I-42259J-90631D01*
G01*
X8191070Y-8539508D02*
X9641163Y-9215697D01*
X21683208Y-5124610D02*
G75*
G02*
X21634840Y-5257504I-90638J-42261D01*
G01*
X25078808Y-3651553D02*
X23628716Y-4327742D01*
X9349973Y-5107752D02*
X7899880Y-4431563D01*
X13693655Y-5257502D02*
G75*
G02*
X13645286Y-5124609I42265J90632D01*
G01*
X24104346Y-9843517D02*
G75*
G02*
X24055979Y-9976413I-90636J-42263D01*
G01*
X18584283Y-7044811D02*
X16744212Y-7044810D01*
X12760180Y-11045267D02*
X13394596Y-11341100D01*
X21552197Y-4843654D02*
G75*
G02*
X21600567Y-4710765I90643J42254D01*
G01*
X8058178Y-8587877D02*
G75*
G02*
X8191073Y-8539502I90632J-42253D01*
G01*
X10116793Y-3699921D02*
G75*
G02*
X10249687Y-3651548I90637J-42269D01*
G01*
X20136377Y-6066584D02*
G75*
G02*
X20184748Y-5933696I90643J42254D01*
G01*
X13727929Y-4710761D02*
G75*
G02*
X13776301Y-4843655I-42249J-90629D01*
G01*
X21933898Y-11341100D02*
X22568314Y-11045267D01*
X18626544Y-7035441D02*
G75*
G02*
X18584283Y-7044810I-42264J90641D01*
G01*
X7424251Y-9947338D02*
G75*
G02*
X7291359Y-9995704I-90631J42268D01*
G01*
X16744212Y-7044810D02*
G75*
G02*
X16701950Y-7035442I-2J100000D01*
G01*
X23973335Y-9562562D02*
G75*
G02*
X24021705Y-9429672I90625J42262D01*
G01*
X21634839Y-5257502D02*
X20184746Y-5933691D01*
X11699778Y-4327742D02*
X10249685Y-3651553D01*
X25423427Y-8886372D02*
X25554438Y-9167328D01*
X5611635Y-9102102D02*
X7766988Y-4479932D01*
X11306790Y-9429669D02*
G75*
G02*
X11355161Y-9562562I-42261J-90632D01*
G01*
X25078808Y-3651553D02*
G75*
G02*
X25211699Y-3699922I42262J-90627D01*
G01*
X9774056Y-9167328D02*
G75*
G02*
X9641165Y-9215693I-90626J42258D01*
G01*
X23495823Y-4279373D02*
X23364812Y-3998418D01*
X20136377Y-6066584D02*
X20195544Y-6193467D01*
X12857406Y-12966347D02*
X14559299Y-13759953D01*
X13727929Y-4710761D02*
X12096575Y-3950049D01*
X20769195Y-13759952D02*
X22471087Y-12966347D01*
X14601561Y-13769321D02*
X20726934Y-13769322D01*
X12857406Y-12966347D02*
G75*
G02*
X12809035Y-12833453I42274J90637D01*
G01*
X11832670Y-4279373D02*
G75*
G02*
X11699780Y-4327736I-90630J42273D01*
G01*
X13394596Y-11341100D02*
G75*
G02*
X13442958Y-11473989I-42276J-90630D01*
G01*
X15181319Y-6326360D02*
G75*
G02*
X15132951Y-6193467I42261J90630D01*
G01*
X9774056Y-9167328D02*
X9905067Y-8886372D01*
X22616682Y-10912375D02*
X22557516Y-10785492D01*
X25845629Y-5059383D02*
X25211701Y-3699921D01*
X29716859Y-9102102D02*
G75*
G02*
X29668492Y-9234997I-90620J-42268D01*
G01*
X7766988Y-4479932D02*
G75*
G02*
X7899882Y-4431560I90632J-42258D01*
G01*
X11272517Y-9976410D02*
X12722609Y-10652599D01*
X27428614Y-4431563D02*
G75*
G02*
X27561502Y-4479934I42256J-90637D01*
G01*
X15143748Y-5933691D02*
X13693655Y-5257502D01*
X16701950Y-7035442D02*
X15181319Y-6326360D01*
X23231919Y-3950049D02*
G75*
G02*
X23364811Y-3998418I42261J-90631D01*
G01*
X5660003Y-9234994D02*
X7291358Y-9995707D01*
X22557516Y-10785492D02*
G75*
G02*
X22605886Y-10652602I90624J42262D01*
G01*
X24021703Y-9429669D02*
X25290534Y-8838003D01*
X25978521Y-5107752D02*
G75*
G02*
X25845629Y-5059383I-42261J90632D01*
G01*
D11*
D12*
X16852247Y-7657908D02*
X16952247Y-7757908D01*
X16952247Y-7657908D02*
X16852247Y-7757908D01*
X16852247Y-7911908D02*
X16952247Y-8011908D01*
X16952247Y-7911908D02*
X16852247Y-8011908D01*
X16852247Y-8165908D02*
X16952247Y-8265908D01*
X16952247Y-8165908D02*
X16852247Y-8265908D01*
X16852247Y-8419908D02*
X16952247Y-8519908D01*
X16952247Y-8419908D02*
X16852247Y-8519908D01*
X16852247Y-8673908D02*
X16952247Y-8773908D01*
X16952247Y-8673908D02*
X16852247Y-8773908D01*
X16852247Y-8927908D02*
X16952247Y-9027908D01*
X16952247Y-8927908D02*
X16852247Y-9027908D01*
X16852247Y-9181908D02*
X16952247Y-9281908D01*
X16952247Y-9181908D02*
X16852247Y-9281908D01*
X16852247Y-9435908D02*
X16952247Y-9535908D01*
X16952247Y-9435908D02*
X16852247Y-9535908D01*
X16852247Y-9689908D02*
X16952247Y-9789908D01*
X16952247Y-9689908D02*
X16852247Y-9789908D01*
X16852247Y-10197908D02*
X16952247Y-10297908D01*
X16952247Y-10197908D02*
X16852247Y-10297908D01*
X16852247Y-9943908D02*
X16952247Y-10043908D01*
X16952247Y-9943908D02*
X16852247Y-10043908D01*
X16852247Y-7403908D02*
X16952247Y-7503908D01*
X16952247Y-7403908D02*
X16852247Y-7503908D01*
X18376246Y-9943908D02*
X18476246Y-10043908D01*
X18476246Y-9943908D02*
X18376246Y-10043908D01*
X18376247Y-7403908D02*
X18476247Y-7503908D01*
X18476247Y-7403908D02*
X18376247Y-7503908D01*
X18376247Y-7657908D02*
X18476247Y-7757908D01*
X18476247Y-7657908D02*
X18376247Y-7757908D01*
X18376247Y-7911908D02*
X18476247Y-8011908D01*
X18476247Y-7911908D02*
X18376247Y-8011908D01*
X18376247Y-8165908D02*
X18476247Y-8265908D01*
X18476247Y-8165908D02*
X18376247Y-8265908D01*
X18376247Y-8419908D02*
X18476247Y-8519908D01*
X18476247Y-8419908D02*
X18376247Y-8519908D01*
X18376247Y-8673908D02*
X18476247Y-8773908D01*
X18476247Y-8673908D02*
X18376247Y-8773908D01*
X18376247Y-8927908D02*
X18476247Y-9027908D01*
X18476247Y-8927908D02*
X18376247Y-9027908D01*
X18376247Y-9181908D02*
X18476247Y-9281908D01*
X18476247Y-9181908D02*
X18376247Y-9281908D01*
X18376247Y-9435908D02*
X18476247Y-9535908D01*
X18476247Y-9435908D02*
X18376247Y-9535908D01*
X18376247Y-9689908D02*
X18476247Y-9789908D01*
X18476247Y-9689908D02*
X18376247Y-9789908D01*
X18376247Y-10197908D02*
X18476247Y-10297908D01*
X18476247Y-10197908D02*
X18376247Y-10297908D01*
D13*
X7190013Y-8219636D02*
G75*
G02*
X7063013Y-8219636I-63500J0D01*
G01*
X7063013Y-8219636D02*
G75*
G02*
X7190013Y-8219636I63500J0D01*
G01*
X7554417Y-8621270D02*
G75*
G02*
X7427417Y-8621270I-63500J0D01*
G01*
X7427417Y-8621270D02*
G75*
G02*
X7554417Y-8621270I63500J0D01*
G01*
X7908464Y-6678913D02*
G75*
G02*
X7781464Y-6678913I-63500J0D01*
G01*
X7781464Y-6678913D02*
G75*
G02*
X7908464Y-6678913I63500J0D01*
G01*
X8272868Y-7080547D02*
G75*
G02*
X8145868Y-7080547I-63500J0D01*
G01*
X8145868Y-7080547D02*
G75*
G02*
X8272868Y-7080547I63500J0D01*
G01*
X8626915Y-5138190D02*
G75*
G02*
X8499915Y-5138190I-63500J0D01*
G01*
X8499915Y-5138190D02*
G75*
G02*
X8626915Y-5138190I63500J0D01*
G01*
X8991319Y-5539824D02*
G75*
G02*
X8864319Y-5539824I-63500J0D01*
G01*
X8864319Y-5539824D02*
G75*
G02*
X8991319Y-5539824I63500J0D01*
G01*
X9539818Y-7439626D02*
G75*
G02*
X9412818Y-7439626I-63500J0D01*
G01*
X9412818Y-7439626D02*
G75*
G02*
X9539818Y-7439626I63500J0D01*
G01*
X9904222Y-7841260D02*
G75*
G02*
X9777222Y-7841260I-63500J0D01*
G01*
X9777222Y-7841260D02*
G75*
G02*
X9904222Y-7841260I63500J0D01*
G01*
X10258269Y-5898903D02*
G75*
G02*
X10131269Y-5898903I-63500J0D01*
G01*
X10131269Y-5898903D02*
G75*
G02*
X10258269Y-5898903I63500J0D01*
G01*
X10622673Y-6300537D02*
G75*
G02*
X10495673Y-6300537I-63500J0D01*
G01*
X10495673Y-6300537D02*
G75*
G02*
X10622673Y-6300537I63500J0D01*
G01*
X10976720Y-4358180D02*
G75*
G02*
X10849720Y-4358180I-63500J0D01*
G01*
X10849720Y-4358180D02*
G75*
G02*
X10976720Y-4358180I63500J0D01*
G01*
X11341124Y-4759814D02*
G75*
G02*
X11214124Y-4759814I-63500J0D01*
G01*
X11214124Y-4759814D02*
G75*
G02*
X11341124Y-4759814I63500J0D01*
G01*
X11386707Y-7738122D02*
G75*
G02*
X11259707Y-7738122I-63500J0D01*
G01*
X11259707Y-7738122D02*
G75*
G02*
X11386707Y-7738122I63500J0D01*
G01*
X11751111Y-8139756D02*
G75*
G02*
X11624111Y-8139756I-63500J0D01*
G01*
X11624111Y-8139756D02*
G75*
G02*
X11751111Y-8139756I63500J0D01*
G01*
X12105159Y-6197399D02*
G75*
G02*
X11978159Y-6197399I-63500J0D01*
G01*
X11978159Y-6197399D02*
G75*
G02*
X12105159Y-6197399I63500J0D01*
G01*
X12469563Y-6599032D02*
G75*
G02*
X12342563Y-6599032I-63500J0D01*
G01*
X12342563Y-6599032D02*
G75*
G02*
X12469563Y-6599032I63500J0D01*
G01*
X12802526Y-8961052D02*
G75*
G02*
X12675526Y-8961052I-63500J0D01*
G01*
X12675526Y-8961052D02*
G75*
G02*
X12802526Y-8961052I63500J0D01*
G01*
X12823609Y-4656676D02*
G75*
G02*
X12696609Y-4656676I-63500J0D01*
G01*
X12696609Y-4656676D02*
G75*
G02*
X12823609Y-4656676I63500J0D01*
G01*
X13166930Y-9362686D02*
G75*
G02*
X13039930Y-9362686I-63500J0D01*
G01*
X13039930Y-9362686D02*
G75*
G02*
X13166930Y-9362686I63500J0D01*
G01*
X13188013Y-5058310D02*
G75*
G02*
X13061013Y-5058310I-63500J0D01*
G01*
X13061013Y-5058310D02*
G75*
G02*
X13188013Y-5058310I63500J0D01*
G01*
X13520977Y-7420329D02*
G75*
G02*
X13393977Y-7420329I-63500J0D01*
G01*
X13393977Y-7420329D02*
G75*
G02*
X13520977Y-7420329I63500J0D01*
G01*
X13885381Y-7821962D02*
G75*
G02*
X13758381Y-7821962I-63500J0D01*
G01*
X13758381Y-7821962D02*
G75*
G02*
X13885381Y-7821962I63500J0D01*
G01*
X14239428Y-5879605D02*
G75*
G02*
X14112428Y-5879605I-63500J0D01*
G01*
X14112428Y-5879605D02*
G75*
G02*
X14239428Y-5879605I63500J0D01*
G01*
X14290190Y-10029910D02*
G75*
G02*
X14163190Y-10029910I-63500J0D01*
G01*
X14163190Y-10029910D02*
G75*
G02*
X14290190Y-10029910I63500J0D01*
G01*
X14387416Y-11950989D02*
G75*
G02*
X14260416Y-11950989I-63500J0D01*
G01*
X14260416Y-11950989D02*
G75*
G02*
X14387416Y-11950989I63500J0D01*
G01*
X14603832Y-6281239D02*
G75*
G02*
X14476832Y-6281239I-63500J0D01*
G01*
X14476832Y-6281239D02*
G75*
G02*
X14603832Y-6281239I63500J0D01*
G01*
X14654594Y-10431543D02*
G75*
G02*
X14527594Y-10431543I-63500J0D01*
G01*
X14527594Y-10431543D02*
G75*
G02*
X14654594Y-10431543I63500J0D01*
G01*
X14751820Y-12352623D02*
G75*
G02*
X14624820Y-12352623I-63500J0D01*
G01*
X14624820Y-12352623D02*
G75*
G02*
X14751820Y-12352623I63500J0D01*
G01*
X15008641Y-8489186D02*
G75*
G02*
X14881641Y-8489186I-63500J0D01*
G01*
X14881641Y-8489186D02*
G75*
G02*
X15008641Y-8489186I63500J0D01*
G01*
X15373045Y-8890820D02*
G75*
G02*
X15246045Y-8890820I-63500J0D01*
G01*
X15246045Y-8890820D02*
G75*
G02*
X15373045Y-8890820I63500J0D01*
G01*
X15727092Y-6948463D02*
G75*
G02*
X15600092Y-6948463I-63500J0D01*
G01*
X15600092Y-6948463D02*
G75*
G02*
X15727092Y-6948463I63500J0D01*
G01*
X16091496Y-7350097D02*
G75*
G02*
X15964496Y-7350097I-63500J0D01*
G01*
X15964496Y-7350097D02*
G75*
G02*
X16091496Y-7350097I63500J0D01*
G01*
X19728402Y-6948463D02*
G75*
G02*
X19601402Y-6948463I-63500J0D01*
G01*
X19601402Y-6948463D02*
G75*
G02*
X19728402Y-6948463I63500J0D01*
G01*
X20270306Y-6927479D02*
G75*
G02*
X20143306Y-6927479I-63500J0D01*
G01*
X20143306Y-6927479D02*
G75*
G02*
X20270306Y-6927479I63500J0D01*
G01*
X20446854Y-8489187D02*
G75*
G02*
X20319854Y-8489187I-63500J0D01*
G01*
X20319854Y-8489187D02*
G75*
G02*
X20446854Y-8489187I63500J0D01*
G01*
X20988757Y-8468202D02*
G75*
G02*
X20861757Y-8468202I-63500J0D01*
G01*
X20861757Y-8468202D02*
G75*
G02*
X20988757Y-8468202I63500J0D01*
G01*
X21068078Y-11950989D02*
G75*
G02*
X20941078Y-11950989I-63500J0D01*
G01*
X20941078Y-11950989D02*
G75*
G02*
X21068078Y-11950989I63500J0D01*
G01*
X21165304Y-10029910D02*
G75*
G02*
X21038304Y-10029910I-63500J0D01*
G01*
X21038304Y-10029910D02*
G75*
G02*
X21165304Y-10029910I63500J0D01*
G01*
X21216066Y-5879605D02*
G75*
G02*
X21089066Y-5879605I-63500J0D01*
G01*
X21089066Y-5879605D02*
G75*
G02*
X21216066Y-5879605I63500J0D01*
G01*
X21609982Y-11930005D02*
G75*
G02*
X21482982Y-11930005I-63500J0D01*
G01*
X21482982Y-11930005D02*
G75*
G02*
X21609982Y-11930005I63500J0D01*
G01*
X21707208Y-10008925D02*
G75*
G02*
X21580208Y-10008925I-63500J0D01*
G01*
X21580208Y-10008925D02*
G75*
G02*
X21707208Y-10008925I63500J0D01*
G01*
X21757970Y-5858621D02*
G75*
G02*
X21630970Y-5858621I-63500J0D01*
G01*
X21630970Y-5858621D02*
G75*
G02*
X21757970Y-5858621I63500J0D01*
G01*
X21934518Y-7420329D02*
G75*
G02*
X21807518Y-7420329I-63500J0D01*
G01*
X21807518Y-7420329D02*
G75*
G02*
X21934518Y-7420329I63500J0D01*
G01*
X22476421Y-7399344D02*
G75*
G02*
X22349421Y-7399344I-63500J0D01*
G01*
X22349421Y-7399344D02*
G75*
G02*
X22476421Y-7399344I63500J0D01*
G01*
X22631885Y-4656675D02*
G75*
G02*
X22504885Y-4656675I-63500J0D01*
G01*
X22504885Y-4656675D02*
G75*
G02*
X22631885Y-4656675I63500J0D01*
G01*
X22652969Y-8961052D02*
G75*
G02*
X22525969Y-8961052I-63500J0D01*
G01*
X22525969Y-8961052D02*
G75*
G02*
X22652969Y-8961052I63500J0D01*
G01*
X23173789Y-4635691D02*
G75*
G02*
X23046789Y-4635691I-63500J0D01*
G01*
X23046789Y-4635691D02*
G75*
G02*
X23173789Y-4635691I63500J0D01*
G01*
X23194873Y-8940068D02*
G75*
G02*
X23067873Y-8940068I-63500J0D01*
G01*
X23067873Y-8940068D02*
G75*
G02*
X23194873Y-8940068I63500J0D01*
G01*
X23350336Y-6197399D02*
G75*
G02*
X23223336Y-6197399I-63500J0D01*
G01*
X23223336Y-6197399D02*
G75*
G02*
X23350336Y-6197399I63500J0D01*
G01*
X23892240Y-6176415D02*
G75*
G02*
X23765240Y-6176415I-63500J0D01*
G01*
X23765240Y-6176415D02*
G75*
G02*
X23892240Y-6176415I63500J0D01*
G01*
X24068787Y-7738122D02*
G75*
G02*
X23941787Y-7738122I-63500J0D01*
G01*
X23941787Y-7738122D02*
G75*
G02*
X24068787Y-7738122I63500J0D01*
G01*
X24478774Y-4358180D02*
G75*
G02*
X24351774Y-4358180I-63500J0D01*
G01*
X24351774Y-4358180D02*
G75*
G02*
X24478774Y-4358180I63500J0D01*
G01*
X24610691Y-7717138D02*
G75*
G02*
X24483691Y-7717138I-63500J0D01*
G01*
X24483691Y-7717138D02*
G75*
G02*
X24610691Y-7717138I63500J0D01*
G01*
X25020678Y-4337196D02*
G75*
G02*
X24893678Y-4337196I-63500J0D01*
G01*
X24893678Y-4337196D02*
G75*
G02*
X25020678Y-4337196I63500J0D01*
G01*
X25197226Y-5898903D02*
G75*
G02*
X25070226Y-5898903I-63500J0D01*
G01*
X25070226Y-5898903D02*
G75*
G02*
X25197226Y-5898903I63500J0D01*
G01*
X25739129Y-5877919D02*
G75*
G02*
X25612129Y-5877919I-63500J0D01*
G01*
X25612129Y-5877919D02*
G75*
G02*
X25739129Y-5877919I63500J0D01*
G01*
X25915676Y-7439626D02*
G75*
G02*
X25788676Y-7439626I-63500J0D01*
G01*
X25788676Y-7439626D02*
G75*
G02*
X25915676Y-7439626I63500J0D01*
G01*
X26457580Y-7418642D02*
G75*
G02*
X26330580Y-7418642I-63500J0D01*
G01*
X26330580Y-7418642D02*
G75*
G02*
X26457580Y-7418642I63500J0D01*
G01*
X26828579Y-5138190D02*
G75*
G02*
X26701579Y-5138190I-63500J0D01*
G01*
X26701579Y-5138190D02*
G75*
G02*
X26828579Y-5138190I63500J0D01*
G01*
X27370483Y-5117206D02*
G75*
G02*
X27243483Y-5117206I-63500J0D01*
G01*
X27243483Y-5117206D02*
G75*
G02*
X27370483Y-5117206I63500J0D01*
G01*
X27547031Y-6678913D02*
G75*
G02*
X27420031Y-6678913I-63500J0D01*
G01*
X27420031Y-6678913D02*
G75*
G02*
X27547031Y-6678913I63500J0D01*
G01*
X28088935Y-6657929D02*
G75*
G02*
X27961935Y-6657929I-63500J0D01*
G01*
X27961935Y-6657929D02*
G75*
G02*
X28088935Y-6657929I63500J0D01*
G01*
X28265481Y-8219636D02*
G75*
G02*
X28138481Y-8219636I-63500J0D01*
G01*
X28138481Y-8219636D02*
G75*
G02*
X28265481Y-8219636I63500J0D01*
G01*
X28807385Y-8198652D02*
G75*
G02*
X28680385Y-8198652I-63500J0D01*
G01*
X28680385Y-8198652D02*
G75*
G02*
X28807385Y-8198652I63500J0D01*
G01*
D11*
X5855536Y-14088306D02*
X5855536Y-13888306D01*
X5855536Y-13888306D02*
X5903155Y-13888306D01*
X5903155Y-13888306D02*
X5931727Y-13897829D01*
X5931727Y-13897829D02*
X5950774Y-13916877D01*
X5950774Y-13916877D02*
X5960298Y-13935925D01*
X5960298Y-13935925D02*
X5969822Y-13974020D01*
X5969822Y-13974020D02*
X5969822Y-14002591D01*
X5969822Y-14002591D02*
X5960298Y-14040686D01*
X5960298Y-14040686D02*
X5950774Y-14059734D01*
X5950774Y-14059734D02*
X5931727Y-14078782D01*
X5931727Y-14078782D02*
X5903155Y-14088306D01*
X5903155Y-14088306D02*
X5855536Y-14088306D01*
X6055536Y-14088306D02*
X6055536Y-13954972D01*
X6055536Y-13993067D02*
X6065060Y-13974020D01*
X6065060Y-13974020D02*
X6074584Y-13964496D01*
X6074584Y-13964496D02*
X6093631Y-13954972D01*
X6093631Y-13954972D02*
X6112679Y-13954972D01*
X6179346Y-14088306D02*
X6179346Y-13954972D01*
X6179346Y-13888306D02*
X6169822Y-13897829D01*
X6169822Y-13897829D02*
X6179346Y-13907353D01*
X6179346Y-13907353D02*
X6188869Y-13897829D01*
X6188869Y-13897829D02*
X6179346Y-13888306D01*
X6179346Y-13888306D02*
X6179346Y-13907353D01*
X6303155Y-14088306D02*
X6284107Y-14078782D01*
X6284107Y-14078782D02*
X6274584Y-14059734D01*
X6274584Y-14059734D02*
X6274584Y-13888306D01*
X6407917Y-14088306D02*
X6388869Y-14078782D01*
X6388869Y-14078782D02*
X6379346Y-14059734D01*
X6379346Y-14059734D02*
X6379346Y-13888306D01*
X6636488Y-14088306D02*
X6636488Y-13888306D01*
X6636488Y-13888306D02*
X6703155Y-14031163D01*
X6703155Y-14031163D02*
X6769822Y-13888306D01*
X6769822Y-13888306D02*
X6769822Y-14088306D01*
X6950774Y-14088306D02*
X6950774Y-13983544D01*
X6950774Y-13983544D02*
X6941250Y-13964496D01*
X6941250Y-13964496D02*
X6922203Y-13954972D01*
X6922203Y-13954972D02*
X6884107Y-13954972D01*
X6884107Y-13954972D02*
X6865060Y-13964496D01*
X6950774Y-14078782D02*
X6931727Y-14088306D01*
X6931727Y-14088306D02*
X6884107Y-14088306D01*
X6884107Y-14088306D02*
X6865060Y-14078782D01*
X6865060Y-14078782D02*
X6855536Y-14059734D01*
X6855536Y-14059734D02*
X6855536Y-14040686D01*
X6855536Y-14040686D02*
X6865060Y-14021639D01*
X6865060Y-14021639D02*
X6884107Y-14012115D01*
X6884107Y-14012115D02*
X6931727Y-14012115D01*
X6931727Y-14012115D02*
X6950774Y-14002591D01*
X7046012Y-13954972D02*
X7046012Y-14154972D01*
X7046012Y-13964496D02*
X7065060Y-13954972D01*
X7065060Y-13954972D02*
X7103155Y-13954972D01*
X7103155Y-13954972D02*
X7122203Y-13964496D01*
X7122203Y-13964496D02*
X7131727Y-13974020D01*
X7131727Y-13974020D02*
X7141250Y-13993067D01*
X7141250Y-13993067D02*
X7141250Y-14050210D01*
X7141250Y-14050210D02*
X7131727Y-14069258D01*
X7131727Y-14069258D02*
X7122203Y-14078782D01*
X7122203Y-14078782D02*
X7103155Y-14088306D01*
X7103155Y-14088306D02*
X7065060Y-14088306D01*
X7065060Y-14088306D02*
X7046012Y-14078782D01*
X7226965Y-14069258D02*
X7236488Y-14078782D01*
X7236488Y-14078782D02*
X7226965Y-14088306D01*
X7226965Y-14088306D02*
X7217441Y-14078782D01*
X7217441Y-14078782D02*
X7226965Y-14069258D01*
X7226965Y-14069258D02*
X7226965Y-14088306D01*
X7226965Y-13964496D02*
X7236488Y-13974020D01*
X7236488Y-13974020D02*
X7226965Y-13983544D01*
X7226965Y-13983544D02*
X7217441Y-13974020D01*
X7217441Y-13974020D02*
X7226965Y-13964496D01*
X7226965Y-13964496D02*
X7226965Y-13983544D01*
D12*
X5494759Y-14366822D02*
X5594759Y-14466822D01*
X5594759Y-14366822D02*
X5494759Y-14466822D01*
D11*
X5960298Y-14508306D02*
X5846012Y-14508306D01*
X5903155Y-14508306D02*
X5903155Y-14308306D01*
X5903155Y-14308306D02*
X5884107Y-14336877D01*
X5884107Y-14336877D02*
X5865060Y-14355925D01*
X5865060Y-14355925D02*
X5846012Y-14365448D01*
X6046012Y-14489258D02*
X6055536Y-14498782D01*
X6055536Y-14498782D02*
X6046012Y-14508306D01*
X6046012Y-14508306D02*
X6036488Y-14498782D01*
X6036488Y-14498782D02*
X6046012Y-14489258D01*
X6046012Y-14489258D02*
X6046012Y-14508306D01*
X6179346Y-14308306D02*
X6198393Y-14308306D01*
X6198393Y-14308306D02*
X6217441Y-14317829D01*
X6217441Y-14317829D02*
X6226965Y-14327353D01*
X6226965Y-14327353D02*
X6236488Y-14346401D01*
X6236488Y-14346401D02*
X6246012Y-14384496D01*
X6246012Y-14384496D02*
X6246012Y-14432115D01*
X6246012Y-14432115D02*
X6236488Y-14470210D01*
X6236488Y-14470210D02*
X6226965Y-14489258D01*
X6226965Y-14489258D02*
X6217441Y-14498782D01*
X6217441Y-14498782D02*
X6198393Y-14508306D01*
X6198393Y-14508306D02*
X6179346Y-14508306D01*
X6179346Y-14508306D02*
X6160298Y-14498782D01*
X6160298Y-14498782D02*
X6150774Y-14489258D01*
X6150774Y-14489258D02*
X6141250Y-14470210D01*
X6141250Y-14470210D02*
X6131727Y-14432115D01*
X6131727Y-14432115D02*
X6131727Y-14384496D01*
X6131727Y-14384496D02*
X6141250Y-14346401D01*
X6141250Y-14346401D02*
X6150774Y-14327353D01*
X6150774Y-14327353D02*
X6160298Y-14317829D01*
X6160298Y-14317829D02*
X6179346Y-14308306D01*
X6369822Y-14308306D02*
X6388869Y-14308306D01*
X6388869Y-14308306D02*
X6407917Y-14317829D01*
X6407917Y-14317829D02*
X6417441Y-14327353D01*
X6417441Y-14327353D02*
X6426965Y-14346401D01*
X6426965Y-14346401D02*
X6436488Y-14384496D01*
X6436488Y-14384496D02*
X6436488Y-14432115D01*
X6436488Y-14432115D02*
X6426965Y-14470210D01*
X6426965Y-14470210D02*
X6417441Y-14489258D01*
X6417441Y-14489258D02*
X6407917Y-14498782D01*
X6407917Y-14498782D02*
X6388869Y-14508306D01*
X6388869Y-14508306D02*
X6369822Y-14508306D01*
X6369822Y-14508306D02*
X6350774Y-14498782D01*
X6350774Y-14498782D02*
X6341250Y-14489258D01*
X6341250Y-14489258D02*
X6331727Y-14470210D01*
X6331727Y-14470210D02*
X6322203Y-14432115D01*
X6322203Y-14432115D02*
X6322203Y-14384496D01*
X6322203Y-14384496D02*
X6331727Y-14346401D01*
X6331727Y-14346401D02*
X6341250Y-14327353D01*
X6341250Y-14327353D02*
X6350774Y-14317829D01*
X6350774Y-14317829D02*
X6369822Y-14308306D01*
X6560298Y-14308306D02*
X6579346Y-14308306D01*
X6579346Y-14308306D02*
X6598393Y-14317829D01*
X6598393Y-14317829D02*
X6607917Y-14327353D01*
X6607917Y-14327353D02*
X6617441Y-14346401D01*
X6617441Y-14346401D02*
X6626965Y-14384496D01*
X6626965Y-14384496D02*
X6626965Y-14432115D01*
X6626965Y-14432115D02*
X6617441Y-14470210D01*
X6617441Y-14470210D02*
X6607917Y-14489258D01*
X6607917Y-14489258D02*
X6598393Y-14498782D01*
X6598393Y-14498782D02*
X6579346Y-14508306D01*
X6579346Y-14508306D02*
X6560298Y-14508306D01*
X6560298Y-14508306D02*
X6541250Y-14498782D01*
X6541250Y-14498782D02*
X6531727Y-14489258D01*
X6531727Y-14489258D02*
X6522203Y-14470210D01*
X6522203Y-14470210D02*
X6512679Y-14432115D01*
X6512679Y-14432115D02*
X6512679Y-14384496D01*
X6512679Y-14384496D02*
X6522203Y-14346401D01*
X6522203Y-14346401D02*
X6531727Y-14327353D01*
X6531727Y-14327353D02*
X6541250Y-14317829D01*
X6541250Y-14317829D02*
X6560298Y-14308306D01*
X6712679Y-14508306D02*
X6712679Y-14374972D01*
X6712679Y-14394020D02*
X6722203Y-14384496D01*
X6722203Y-14384496D02*
X6741250Y-14374972D01*
X6741250Y-14374972D02*
X6769822Y-14374972D01*
X6769822Y-14374972D02*
X6788869Y-14384496D01*
X6788869Y-14384496D02*
X6798393Y-14403544D01*
X6798393Y-14403544D02*
X6798393Y-14508306D01*
X6798393Y-14403544D02*
X6807917Y-14384496D01*
X6807917Y-14384496D02*
X6826965Y-14374972D01*
X6826965Y-14374972D02*
X6855536Y-14374972D01*
X6855536Y-14374972D02*
X6874584Y-14384496D01*
X6874584Y-14384496D02*
X6884108Y-14403544D01*
X6884108Y-14403544D02*
X6884108Y-14508306D01*
X6979346Y-14508306D02*
X6979346Y-14374972D01*
X6979346Y-14394020D02*
X6988869Y-14384496D01*
X6988869Y-14384496D02*
X7007917Y-14374972D01*
X7007917Y-14374972D02*
X7036489Y-14374972D01*
X7036489Y-14374972D02*
X7055536Y-14384496D01*
X7055536Y-14384496D02*
X7065060Y-14403544D01*
X7065060Y-14403544D02*
X7065060Y-14508306D01*
X7065060Y-14403544D02*
X7074584Y-14384496D01*
X7074584Y-14384496D02*
X7093631Y-14374972D01*
X7093631Y-14374972D02*
X7122203Y-14374972D01*
X7122203Y-14374972D02*
X7141250Y-14384496D01*
X7141250Y-14384496D02*
X7150774Y-14403544D01*
X7150774Y-14403544D02*
X7150774Y-14508306D01*
X7541250Y-14298782D02*
X7369822Y-14555925D01*
X7798393Y-14308306D02*
X7817441Y-14308306D01*
X7817441Y-14308306D02*
X7836489Y-14317829D01*
X7836489Y-14317829D02*
X7846012Y-14327353D01*
X7846012Y-14327353D02*
X7855536Y-14346401D01*
X7855536Y-14346401D02*
X7865060Y-14384496D01*
X7865060Y-14384496D02*
X7865060Y-14432115D01*
X7865060Y-14432115D02*
X7855536Y-14470210D01*
X7855536Y-14470210D02*
X7846012Y-14489258D01*
X7846012Y-14489258D02*
X7836489Y-14498782D01*
X7836489Y-14498782D02*
X7817441Y-14508306D01*
X7817441Y-14508306D02*
X7798393Y-14508306D01*
X7798393Y-14508306D02*
X7779346Y-14498782D01*
X7779346Y-14498782D02*
X7769822Y-14489258D01*
X7769822Y-14489258D02*
X7760298Y-14470210D01*
X7760298Y-14470210D02*
X7750774Y-14432115D01*
X7750774Y-14432115D02*
X7750774Y-14384496D01*
X7750774Y-14384496D02*
X7760298Y-14346401D01*
X7760298Y-14346401D02*
X7769822Y-14327353D01*
X7769822Y-14327353D02*
X7779346Y-14317829D01*
X7779346Y-14317829D02*
X7798393Y-14308306D01*
X7950774Y-14489258D02*
X7960298Y-14498782D01*
X7960298Y-14498782D02*
X7950774Y-14508306D01*
X7950774Y-14508306D02*
X7941251Y-14498782D01*
X7941251Y-14498782D02*
X7950774Y-14489258D01*
X7950774Y-14489258D02*
X7950774Y-14508306D01*
X8084108Y-14308306D02*
X8103155Y-14308306D01*
X8103155Y-14308306D02*
X8122203Y-14317829D01*
X8122203Y-14317829D02*
X8131727Y-14327353D01*
X8131727Y-14327353D02*
X8141251Y-14346401D01*
X8141251Y-14346401D02*
X8150774Y-14384496D01*
X8150774Y-14384496D02*
X8150774Y-14432115D01*
X8150774Y-14432115D02*
X8141251Y-14470210D01*
X8141251Y-14470210D02*
X8131727Y-14489258D01*
X8131727Y-14489258D02*
X8122203Y-14498782D01*
X8122203Y-14498782D02*
X8103155Y-14508306D01*
X8103155Y-14508306D02*
X8084108Y-14508306D01*
X8084108Y-14508306D02*
X8065060Y-14498782D01*
X8065060Y-14498782D02*
X8055536Y-14489258D01*
X8055536Y-14489258D02*
X8046012Y-14470210D01*
X8046012Y-14470210D02*
X8036489Y-14432115D01*
X8036489Y-14432115D02*
X8036489Y-14384496D01*
X8036489Y-14384496D02*
X8046012Y-14346401D01*
X8046012Y-14346401D02*
X8055536Y-14327353D01*
X8055536Y-14327353D02*
X8065060Y-14317829D01*
X8065060Y-14317829D02*
X8084108Y-14308306D01*
X8217441Y-14308306D02*
X8341251Y-14308306D01*
X8341251Y-14308306D02*
X8274584Y-14384496D01*
X8274584Y-14384496D02*
X8303155Y-14384496D01*
X8303155Y-14384496D02*
X8322203Y-14394020D01*
X8322203Y-14394020D02*
X8331727Y-14403544D01*
X8331727Y-14403544D02*
X8341251Y-14422591D01*
X8341251Y-14422591D02*
X8341251Y-14470210D01*
X8341251Y-14470210D02*
X8331727Y-14489258D01*
X8331727Y-14489258D02*
X8322203Y-14498782D01*
X8322203Y-14498782D02*
X8303155Y-14508306D01*
X8303155Y-14508306D02*
X8246012Y-14508306D01*
X8246012Y-14508306D02*
X8226965Y-14498782D01*
X8226965Y-14498782D02*
X8217441Y-14489258D01*
X8436489Y-14508306D02*
X8474584Y-14508306D01*
X8474584Y-14508306D02*
X8493632Y-14498782D01*
X8493632Y-14498782D02*
X8503155Y-14489258D01*
X8503155Y-14489258D02*
X8522203Y-14460686D01*
X8522203Y-14460686D02*
X8531727Y-14422591D01*
X8531727Y-14422591D02*
X8531727Y-14346401D01*
X8531727Y-14346401D02*
X8522203Y-14327353D01*
X8522203Y-14327353D02*
X8512679Y-14317829D01*
X8512679Y-14317829D02*
X8493632Y-14308306D01*
X8493632Y-14308306D02*
X8455536Y-14308306D01*
X8455536Y-14308306D02*
X8436489Y-14317829D01*
X8436489Y-14317829D02*
X8426965Y-14327353D01*
X8426965Y-14327353D02*
X8417441Y-14346401D01*
X8417441Y-14346401D02*
X8417441Y-14394020D01*
X8417441Y-14394020D02*
X8426965Y-14413067D01*
X8426965Y-14413067D02*
X8436489Y-14422591D01*
X8436489Y-14422591D02*
X8455536Y-14432115D01*
X8455536Y-14432115D02*
X8493632Y-14432115D01*
X8493632Y-14432115D02*
X8512679Y-14422591D01*
X8512679Y-14422591D02*
X8522203Y-14413067D01*
X8522203Y-14413067D02*
X8531727Y-14394020D01*
X8703155Y-14374972D02*
X8703155Y-14508306D01*
X8655536Y-14298782D02*
X8607917Y-14441639D01*
X8607917Y-14441639D02*
X8731727Y-14441639D01*
X8798394Y-14308306D02*
X8798394Y-14346401D01*
X8874584Y-14308306D02*
X8874584Y-14346401D01*
X9169822Y-14584496D02*
X9160298Y-14574972D01*
X9160298Y-14574972D02*
X9141251Y-14546401D01*
X9141251Y-14546401D02*
X9131727Y-14527353D01*
X9131727Y-14527353D02*
X9122203Y-14498782D01*
X9122203Y-14498782D02*
X9112679Y-14451163D01*
X9112679Y-14451163D02*
X9112679Y-14413067D01*
X9112679Y-14413067D02*
X9122203Y-14365448D01*
X9122203Y-14365448D02*
X9131727Y-14336877D01*
X9131727Y-14336877D02*
X9141251Y-14317829D01*
X9141251Y-14317829D02*
X9160298Y-14289258D01*
X9160298Y-14289258D02*
X9169822Y-14279734D01*
X9236489Y-14327353D02*
X9246013Y-14317829D01*
X9246013Y-14317829D02*
X9265060Y-14308306D01*
X9265060Y-14308306D02*
X9312679Y-14308306D01*
X9312679Y-14308306D02*
X9331727Y-14317829D01*
X9331727Y-14317829D02*
X9341251Y-14327353D01*
X9341251Y-14327353D02*
X9350775Y-14346401D01*
X9350775Y-14346401D02*
X9350775Y-14365448D01*
X9350775Y-14365448D02*
X9341251Y-14394020D01*
X9341251Y-14394020D02*
X9226965Y-14508306D01*
X9226965Y-14508306D02*
X9350775Y-14508306D01*
X9522203Y-14374972D02*
X9522203Y-14508306D01*
X9474584Y-14298782D02*
X9426965Y-14441639D01*
X9426965Y-14441639D02*
X9550775Y-14441639D01*
X9779346Y-14508306D02*
X9779346Y-14308306D01*
X9865060Y-14508306D02*
X9865060Y-14403544D01*
X9865060Y-14403544D02*
X9855537Y-14384496D01*
X9855537Y-14384496D02*
X9836489Y-14374972D01*
X9836489Y-14374972D02*
X9807917Y-14374972D01*
X9807917Y-14374972D02*
X9788870Y-14384496D01*
X9788870Y-14384496D02*
X9779346Y-14394020D01*
X9988870Y-14508306D02*
X9969822Y-14498782D01*
X9969822Y-14498782D02*
X9960298Y-14489258D01*
X9960298Y-14489258D02*
X9950775Y-14470210D01*
X9950775Y-14470210D02*
X9950775Y-14413067D01*
X9950775Y-14413067D02*
X9960298Y-14394020D01*
X9960298Y-14394020D02*
X9969822Y-14384496D01*
X9969822Y-14384496D02*
X9988870Y-14374972D01*
X9988870Y-14374972D02*
X10017441Y-14374972D01*
X10017441Y-14374972D02*
X10036489Y-14384496D01*
X10036489Y-14384496D02*
X10046013Y-14394020D01*
X10046013Y-14394020D02*
X10055537Y-14413067D01*
X10055537Y-14413067D02*
X10055537Y-14470210D01*
X10055537Y-14470210D02*
X10046013Y-14489258D01*
X10046013Y-14489258D02*
X10036489Y-14498782D01*
X10036489Y-14498782D02*
X10017441Y-14508306D01*
X10017441Y-14508306D02*
X9988870Y-14508306D01*
X10169822Y-14508306D02*
X10150775Y-14498782D01*
X10150775Y-14498782D02*
X10141251Y-14479734D01*
X10141251Y-14479734D02*
X10141251Y-14308306D01*
X10322203Y-14498782D02*
X10303156Y-14508306D01*
X10303156Y-14508306D02*
X10265060Y-14508306D01*
X10265060Y-14508306D02*
X10246013Y-14498782D01*
X10246013Y-14498782D02*
X10236489Y-14479734D01*
X10236489Y-14479734D02*
X10236489Y-14403544D01*
X10236489Y-14403544D02*
X10246013Y-14384496D01*
X10246013Y-14384496D02*
X10265060Y-14374972D01*
X10265060Y-14374972D02*
X10303156Y-14374972D01*
X10303156Y-14374972D02*
X10322203Y-14384496D01*
X10322203Y-14384496D02*
X10331727Y-14403544D01*
X10331727Y-14403544D02*
X10331727Y-14422591D01*
X10331727Y-14422591D02*
X10236489Y-14441639D01*
X10407918Y-14498782D02*
X10426965Y-14508306D01*
X10426965Y-14508306D02*
X10465060Y-14508306D01*
X10465060Y-14508306D02*
X10484108Y-14498782D01*
X10484108Y-14498782D02*
X10493632Y-14479734D01*
X10493632Y-14479734D02*
X10493632Y-14470210D01*
X10493632Y-14470210D02*
X10484108Y-14451163D01*
X10484108Y-14451163D02*
X10465060Y-14441639D01*
X10465060Y-14441639D02*
X10436489Y-14441639D01*
X10436489Y-14441639D02*
X10417441Y-14432115D01*
X10417441Y-14432115D02*
X10407918Y-14413067D01*
X10407918Y-14413067D02*
X10407918Y-14403544D01*
X10407918Y-14403544D02*
X10417441Y-14384496D01*
X10417441Y-14384496D02*
X10436489Y-14374972D01*
X10436489Y-14374972D02*
X10465060Y-14374972D01*
X10465060Y-14374972D02*
X10484108Y-14384496D01*
X10560299Y-14584496D02*
X10569822Y-14574972D01*
X10569822Y-14574972D02*
X10588870Y-14546401D01*
X10588870Y-14546401D02*
X10598394Y-14527353D01*
X10598394Y-14527353D02*
X10607918Y-14498782D01*
X10607918Y-14498782D02*
X10617441Y-14451163D01*
X10617441Y-14451163D02*
X10617441Y-14413067D01*
X10617441Y-14413067D02*
X10607918Y-14365448D01*
X10607918Y-14365448D02*
X10598394Y-14336877D01*
X10598394Y-14336877D02*
X10588870Y-14317829D01*
X10588870Y-14317829D02*
X10569822Y-14289258D01*
X10569822Y-14289258D02*
X10560299Y-14279734D01*
D13*
X5594759Y-14680822D02*
G75*
G02*
X5467759Y-14680822I-63500J0D01*
G01*
X5467759Y-14680822D02*
G75*
G02*
X5594759Y-14680822I63500J0D01*
G01*
D11*
X5960298Y-14772306D02*
X5846012Y-14772306D01*
X5903155Y-14772306D02*
X5903155Y-14572306D01*
X5903155Y-14572306D02*
X5884107Y-14600877D01*
X5884107Y-14600877D02*
X5865060Y-14619925D01*
X5865060Y-14619925D02*
X5846012Y-14629448D01*
X6046012Y-14753258D02*
X6055536Y-14762782D01*
X6055536Y-14762782D02*
X6046012Y-14772306D01*
X6046012Y-14772306D02*
X6036488Y-14762782D01*
X6036488Y-14762782D02*
X6046012Y-14753258D01*
X6046012Y-14753258D02*
X6046012Y-14772306D01*
X6131727Y-14591353D02*
X6141250Y-14581829D01*
X6141250Y-14581829D02*
X6160298Y-14572306D01*
X6160298Y-14572306D02*
X6207917Y-14572306D01*
X6207917Y-14572306D02*
X6226965Y-14581829D01*
X6226965Y-14581829D02*
X6236488Y-14591353D01*
X6236488Y-14591353D02*
X6246012Y-14610401D01*
X6246012Y-14610401D02*
X6246012Y-14629448D01*
X6246012Y-14629448D02*
X6236488Y-14658020D01*
X6236488Y-14658020D02*
X6122203Y-14772306D01*
X6122203Y-14772306D02*
X6246012Y-14772306D01*
X6312679Y-14572306D02*
X6446012Y-14572306D01*
X6446012Y-14572306D02*
X6360298Y-14772306D01*
X6560298Y-14572306D02*
X6579346Y-14572306D01*
X6579346Y-14572306D02*
X6598393Y-14581829D01*
X6598393Y-14581829D02*
X6607917Y-14591353D01*
X6607917Y-14591353D02*
X6617441Y-14610401D01*
X6617441Y-14610401D02*
X6626965Y-14648496D01*
X6626965Y-14648496D02*
X6626965Y-14696115D01*
X6626965Y-14696115D02*
X6617441Y-14734210D01*
X6617441Y-14734210D02*
X6607917Y-14753258D01*
X6607917Y-14753258D02*
X6598393Y-14762782D01*
X6598393Y-14762782D02*
X6579346Y-14772306D01*
X6579346Y-14772306D02*
X6560298Y-14772306D01*
X6560298Y-14772306D02*
X6541250Y-14762782D01*
X6541250Y-14762782D02*
X6531727Y-14753258D01*
X6531727Y-14753258D02*
X6522203Y-14734210D01*
X6522203Y-14734210D02*
X6512679Y-14696115D01*
X6512679Y-14696115D02*
X6512679Y-14648496D01*
X6512679Y-14648496D02*
X6522203Y-14610401D01*
X6522203Y-14610401D02*
X6531727Y-14591353D01*
X6531727Y-14591353D02*
X6541250Y-14581829D01*
X6541250Y-14581829D02*
X6560298Y-14572306D01*
X6712679Y-14772306D02*
X6712679Y-14638972D01*
X6712679Y-14658020D02*
X6722203Y-14648496D01*
X6722203Y-14648496D02*
X6741250Y-14638972D01*
X6741250Y-14638972D02*
X6769822Y-14638972D01*
X6769822Y-14638972D02*
X6788869Y-14648496D01*
X6788869Y-14648496D02*
X6798393Y-14667544D01*
X6798393Y-14667544D02*
X6798393Y-14772306D01*
X6798393Y-14667544D02*
X6807917Y-14648496D01*
X6807917Y-14648496D02*
X6826965Y-14638972D01*
X6826965Y-14638972D02*
X6855536Y-14638972D01*
X6855536Y-14638972D02*
X6874584Y-14648496D01*
X6874584Y-14648496D02*
X6884108Y-14667544D01*
X6884108Y-14667544D02*
X6884108Y-14772306D01*
X6979346Y-14772306D02*
X6979346Y-14638972D01*
X6979346Y-14658020D02*
X6988869Y-14648496D01*
X6988869Y-14648496D02*
X7007917Y-14638972D01*
X7007917Y-14638972D02*
X7036489Y-14638972D01*
X7036489Y-14638972D02*
X7055536Y-14648496D01*
X7055536Y-14648496D02*
X7065060Y-14667544D01*
X7065060Y-14667544D02*
X7065060Y-14772306D01*
X7065060Y-14667544D02*
X7074584Y-14648496D01*
X7074584Y-14648496D02*
X7093631Y-14638972D01*
X7093631Y-14638972D02*
X7122203Y-14638972D01*
X7122203Y-14638972D02*
X7141250Y-14648496D01*
X7141250Y-14648496D02*
X7150774Y-14667544D01*
X7150774Y-14667544D02*
X7150774Y-14772306D01*
X7541250Y-14562782D02*
X7369822Y-14819925D01*
X7798393Y-14572306D02*
X7817441Y-14572306D01*
X7817441Y-14572306D02*
X7836489Y-14581829D01*
X7836489Y-14581829D02*
X7846012Y-14591353D01*
X7846012Y-14591353D02*
X7855536Y-14610401D01*
X7855536Y-14610401D02*
X7865060Y-14648496D01*
X7865060Y-14648496D02*
X7865060Y-14696115D01*
X7865060Y-14696115D02*
X7855536Y-14734210D01*
X7855536Y-14734210D02*
X7846012Y-14753258D01*
X7846012Y-14753258D02*
X7836489Y-14762782D01*
X7836489Y-14762782D02*
X7817441Y-14772306D01*
X7817441Y-14772306D02*
X7798393Y-14772306D01*
X7798393Y-14772306D02*
X7779346Y-14762782D01*
X7779346Y-14762782D02*
X7769822Y-14753258D01*
X7769822Y-14753258D02*
X7760298Y-14734210D01*
X7760298Y-14734210D02*
X7750774Y-14696115D01*
X7750774Y-14696115D02*
X7750774Y-14648496D01*
X7750774Y-14648496D02*
X7760298Y-14610401D01*
X7760298Y-14610401D02*
X7769822Y-14591353D01*
X7769822Y-14591353D02*
X7779346Y-14581829D01*
X7779346Y-14581829D02*
X7798393Y-14572306D01*
X7950774Y-14753258D02*
X7960298Y-14762782D01*
X7960298Y-14762782D02*
X7950774Y-14772306D01*
X7950774Y-14772306D02*
X7941251Y-14762782D01*
X7941251Y-14762782D02*
X7950774Y-14753258D01*
X7950774Y-14753258D02*
X7950774Y-14772306D01*
X8084108Y-14572306D02*
X8103155Y-14572306D01*
X8103155Y-14572306D02*
X8122203Y-14581829D01*
X8122203Y-14581829D02*
X8131727Y-14591353D01*
X8131727Y-14591353D02*
X8141251Y-14610401D01*
X8141251Y-14610401D02*
X8150774Y-14648496D01*
X8150774Y-14648496D02*
X8150774Y-14696115D01*
X8150774Y-14696115D02*
X8141251Y-14734210D01*
X8141251Y-14734210D02*
X8131727Y-14753258D01*
X8131727Y-14753258D02*
X8122203Y-14762782D01*
X8122203Y-14762782D02*
X8103155Y-14772306D01*
X8103155Y-14772306D02*
X8084108Y-14772306D01*
X8084108Y-14772306D02*
X8065060Y-14762782D01*
X8065060Y-14762782D02*
X8055536Y-14753258D01*
X8055536Y-14753258D02*
X8046012Y-14734210D01*
X8046012Y-14734210D02*
X8036489Y-14696115D01*
X8036489Y-14696115D02*
X8036489Y-14648496D01*
X8036489Y-14648496D02*
X8046012Y-14610401D01*
X8046012Y-14610401D02*
X8055536Y-14591353D01*
X8055536Y-14591353D02*
X8065060Y-14581829D01*
X8065060Y-14581829D02*
X8084108Y-14572306D01*
X8331727Y-14572306D02*
X8236489Y-14572306D01*
X8236489Y-14572306D02*
X8226965Y-14667544D01*
X8226965Y-14667544D02*
X8236489Y-14658020D01*
X8236489Y-14658020D02*
X8255536Y-14648496D01*
X8255536Y-14648496D02*
X8303155Y-14648496D01*
X8303155Y-14648496D02*
X8322203Y-14658020D01*
X8322203Y-14658020D02*
X8331727Y-14667544D01*
X8331727Y-14667544D02*
X8341251Y-14686591D01*
X8341251Y-14686591D02*
X8341251Y-14734210D01*
X8341251Y-14734210D02*
X8331727Y-14753258D01*
X8331727Y-14753258D02*
X8322203Y-14762782D01*
X8322203Y-14762782D02*
X8303155Y-14772306D01*
X8303155Y-14772306D02*
X8255536Y-14772306D01*
X8255536Y-14772306D02*
X8236489Y-14762782D01*
X8236489Y-14762782D02*
X8226965Y-14753258D01*
X8465060Y-14572306D02*
X8484108Y-14572306D01*
X8484108Y-14572306D02*
X8503155Y-14581829D01*
X8503155Y-14581829D02*
X8512679Y-14591353D01*
X8512679Y-14591353D02*
X8522203Y-14610401D01*
X8522203Y-14610401D02*
X8531727Y-14648496D01*
X8531727Y-14648496D02*
X8531727Y-14696115D01*
X8531727Y-14696115D02*
X8522203Y-14734210D01*
X8522203Y-14734210D02*
X8512679Y-14753258D01*
X8512679Y-14753258D02*
X8503155Y-14762782D01*
X8503155Y-14762782D02*
X8484108Y-14772306D01*
X8484108Y-14772306D02*
X8465060Y-14772306D01*
X8465060Y-14772306D02*
X8446013Y-14762782D01*
X8446013Y-14762782D02*
X8436489Y-14753258D01*
X8436489Y-14753258D02*
X8426965Y-14734210D01*
X8426965Y-14734210D02*
X8417441Y-14696115D01*
X8417441Y-14696115D02*
X8417441Y-14648496D01*
X8417441Y-14648496D02*
X8426965Y-14610401D01*
X8426965Y-14610401D02*
X8436489Y-14591353D01*
X8436489Y-14591353D02*
X8446013Y-14581829D01*
X8446013Y-14581829D02*
X8465060Y-14572306D01*
X8655536Y-14572306D02*
X8674584Y-14572306D01*
X8674584Y-14572306D02*
X8693632Y-14581829D01*
X8693632Y-14581829D02*
X8703155Y-14591353D01*
X8703155Y-14591353D02*
X8712679Y-14610401D01*
X8712679Y-14610401D02*
X8722203Y-14648496D01*
X8722203Y-14648496D02*
X8722203Y-14696115D01*
X8722203Y-14696115D02*
X8712679Y-14734210D01*
X8712679Y-14734210D02*
X8703155Y-14753258D01*
X8703155Y-14753258D02*
X8693632Y-14762782D01*
X8693632Y-14762782D02*
X8674584Y-14772306D01*
X8674584Y-14772306D02*
X8655536Y-14772306D01*
X8655536Y-14772306D02*
X8636489Y-14762782D01*
X8636489Y-14762782D02*
X8626965Y-14753258D01*
X8626965Y-14753258D02*
X8617441Y-14734210D01*
X8617441Y-14734210D02*
X8607917Y-14696115D01*
X8607917Y-14696115D02*
X8607917Y-14648496D01*
X8607917Y-14648496D02*
X8617441Y-14610401D01*
X8617441Y-14610401D02*
X8626965Y-14591353D01*
X8626965Y-14591353D02*
X8636489Y-14581829D01*
X8636489Y-14581829D02*
X8655536Y-14572306D01*
X8798394Y-14572306D02*
X8798394Y-14610401D01*
X8874584Y-14572306D02*
X8874584Y-14610401D01*
X9169822Y-14848496D02*
X9160298Y-14838972D01*
X9160298Y-14838972D02*
X9141251Y-14810401D01*
X9141251Y-14810401D02*
X9131727Y-14791353D01*
X9131727Y-14791353D02*
X9122203Y-14762782D01*
X9122203Y-14762782D02*
X9112679Y-14715163D01*
X9112679Y-14715163D02*
X9112679Y-14677067D01*
X9112679Y-14677067D02*
X9122203Y-14629448D01*
X9122203Y-14629448D02*
X9131727Y-14600877D01*
X9131727Y-14600877D02*
X9141251Y-14581829D01*
X9141251Y-14581829D02*
X9160298Y-14553258D01*
X9160298Y-14553258D02*
X9169822Y-14543734D01*
X9331727Y-14572306D02*
X9293632Y-14572306D01*
X9293632Y-14572306D02*
X9274584Y-14581829D01*
X9274584Y-14581829D02*
X9265060Y-14591353D01*
X9265060Y-14591353D02*
X9246013Y-14619925D01*
X9246013Y-14619925D02*
X9236489Y-14658020D01*
X9236489Y-14658020D02*
X9236489Y-14734210D01*
X9236489Y-14734210D02*
X9246013Y-14753258D01*
X9246013Y-14753258D02*
X9255536Y-14762782D01*
X9255536Y-14762782D02*
X9274584Y-14772306D01*
X9274584Y-14772306D02*
X9312679Y-14772306D01*
X9312679Y-14772306D02*
X9331727Y-14762782D01*
X9331727Y-14762782D02*
X9341251Y-14753258D01*
X9341251Y-14753258D02*
X9350775Y-14734210D01*
X9350775Y-14734210D02*
X9350775Y-14686591D01*
X9350775Y-14686591D02*
X9341251Y-14667544D01*
X9341251Y-14667544D02*
X9331727Y-14658020D01*
X9331727Y-14658020D02*
X9312679Y-14648496D01*
X9312679Y-14648496D02*
X9274584Y-14648496D01*
X9274584Y-14648496D02*
X9255536Y-14658020D01*
X9255536Y-14658020D02*
X9246013Y-14667544D01*
X9246013Y-14667544D02*
X9236489Y-14686591D01*
X9522203Y-14638972D02*
X9522203Y-14772306D01*
X9474584Y-14562782D02*
X9426965Y-14705639D01*
X9426965Y-14705639D02*
X9550775Y-14705639D01*
X9779346Y-14772306D02*
X9779346Y-14572306D01*
X9865060Y-14772306D02*
X9865060Y-14667544D01*
X9865060Y-14667544D02*
X9855537Y-14648496D01*
X9855537Y-14648496D02*
X9836489Y-14638972D01*
X9836489Y-14638972D02*
X9807917Y-14638972D01*
X9807917Y-14638972D02*
X9788870Y-14648496D01*
X9788870Y-14648496D02*
X9779346Y-14658020D01*
X9988870Y-14772306D02*
X9969822Y-14762782D01*
X9969822Y-14762782D02*
X9960298Y-14753258D01*
X9960298Y-14753258D02*
X9950775Y-14734210D01*
X9950775Y-14734210D02*
X9950775Y-14677067D01*
X9950775Y-14677067D02*
X9960298Y-14658020D01*
X9960298Y-14658020D02*
X9969822Y-14648496D01*
X9969822Y-14648496D02*
X9988870Y-14638972D01*
X9988870Y-14638972D02*
X10017441Y-14638972D01*
X10017441Y-14638972D02*
X10036489Y-14648496D01*
X10036489Y-14648496D02*
X10046013Y-14658020D01*
X10046013Y-14658020D02*
X10055537Y-14677067D01*
X10055537Y-14677067D02*
X10055537Y-14734210D01*
X10055537Y-14734210D02*
X10046013Y-14753258D01*
X10046013Y-14753258D02*
X10036489Y-14762782D01*
X10036489Y-14762782D02*
X10017441Y-14772306D01*
X10017441Y-14772306D02*
X9988870Y-14772306D01*
X10169822Y-14772306D02*
X10150775Y-14762782D01*
X10150775Y-14762782D02*
X10141251Y-14743734D01*
X10141251Y-14743734D02*
X10141251Y-14572306D01*
X10322203Y-14762782D02*
X10303156Y-14772306D01*
X10303156Y-14772306D02*
X10265060Y-14772306D01*
X10265060Y-14772306D02*
X10246013Y-14762782D01*
X10246013Y-14762782D02*
X10236489Y-14743734D01*
X10236489Y-14743734D02*
X10236489Y-14667544D01*
X10236489Y-14667544D02*
X10246013Y-14648496D01*
X10246013Y-14648496D02*
X10265060Y-14638972D01*
X10265060Y-14638972D02*
X10303156Y-14638972D01*
X10303156Y-14638972D02*
X10322203Y-14648496D01*
X10322203Y-14648496D02*
X10331727Y-14667544D01*
X10331727Y-14667544D02*
X10331727Y-14686591D01*
X10331727Y-14686591D02*
X10236489Y-14705639D01*
X10407918Y-14762782D02*
X10426965Y-14772306D01*
X10426965Y-14772306D02*
X10465060Y-14772306D01*
X10465060Y-14772306D02*
X10484108Y-14762782D01*
X10484108Y-14762782D02*
X10493632Y-14743734D01*
X10493632Y-14743734D02*
X10493632Y-14734210D01*
X10493632Y-14734210D02*
X10484108Y-14715163D01*
X10484108Y-14715163D02*
X10465060Y-14705639D01*
X10465060Y-14705639D02*
X10436489Y-14705639D01*
X10436489Y-14705639D02*
X10417441Y-14696115D01*
X10417441Y-14696115D02*
X10407918Y-14677067D01*
X10407918Y-14677067D02*
X10407918Y-14667544D01*
X10407918Y-14667544D02*
X10417441Y-14648496D01*
X10417441Y-14648496D02*
X10436489Y-14638972D01*
X10436489Y-14638972D02*
X10465060Y-14638972D01*
X10465060Y-14638972D02*
X10484108Y-14648496D01*
X10560299Y-14848496D02*
X10569822Y-14838972D01*
X10569822Y-14838972D02*
X10588870Y-14810401D01*
X10588870Y-14810401D02*
X10598394Y-14791353D01*
X10598394Y-14791353D02*
X10607918Y-14762782D01*
X10607918Y-14762782D02*
X10617441Y-14715163D01*
X10617441Y-14715163D02*
X10617441Y-14677067D01*
X10617441Y-14677067D02*
X10607918Y-14629448D01*
X10607918Y-14629448D02*
X10598394Y-14600877D01*
X10598394Y-14600877D02*
X10588870Y-14581829D01*
X10588870Y-14581829D02*
X10569822Y-14553258D01*
X10569822Y-14553258D02*
X10560299Y-14543734D01*
M02*
